<mxfile host="app.diagrams.net" modified="2024-05-07T20:45:34.607Z" agent="Mozilla/5.0 (X11; Linux x86_64; rv:125.0) Gecko/20100101 Firefox/125.0" etag="f9RZBG2w86jDFWWlCXMX" version="23.1.0" type="device">
  <diagram name="Page-1" id="5Yzbtm4-7MDEccCgHpou">
    <mxGraphModel dx="2876" dy="1131" grid="1" gridSize="10" guides="1" tooltips="1" connect="1" arrows="1" fold="1" page="1" pageScale="1" pageWidth="827" pageHeight="1169" math="0" shadow="0">
      <root>
        <mxCell id="0" />
        <mxCell id="1" parent="0" />
        <mxCell id="DniHUGlrfKImg_ZBEnJM-2" value="" style="shape=image;verticalLabelPosition=bottom;labelBackgroundColor=default;verticalAlign=top;aspect=fixed;imageAspect=0;image=data:image/png,iVBORw0KGgoAAAANSUhEUgAAAi0AAAMSCAYAAACmsvS+AAAABHNCSVQICAgIfAhkiAAAIABJREFUeF7svQuMXcWd7lt0IgtZcWTijO10sBRkLI3dMjAgqzGPcUaOiYOaaOKQm8klDj4tzkxyFfFqN07QHWl05goCxrwUXUhO1MfByeRwMZ0jsIiBWIkHP+jrCwFa7Y5ELBjZ0xgnDhaOLGQl5q5vddfu2rWr1qq1Vq211+Mradu9a9XjX79ae69v/+t13odBEAwkQAIkQAIkQAIkUHICHy25fTSPBBpBYOq9U41oZxkb2XvB/DKaRZtIgAQMBChaDFAYRQJFE3jj1VfE8al3iq628fUtu3ip6F29uvEcCIAEqkKgpyqG0k4SIAESIAESIIFmE6BoaXb/s/UkQAIkQAIkUBkCFC2V6SoaSgIkQAIkQALNJkDR0uz+Z+tJgARIgARIoDIEKFoq01U0lARIgARIgASaTYCipdn9z9aTAAmQAAmQQGUIcMlzZbqKhtaZAJY7nzz5xzo3sZRtw5JnBhIggeoQoKelOn1FS0mABEiABEig0QQoWhrd/Ww8CZAACZAACVSHAEVLdfqKlpIACZAACZBAowlQtDS6+9l4EiABEiABEqgOAYqW6vQVLSUBEiABEiCBRhOgaGl097PxJEACJEACJFAdAhQt1ekrWkoCJEACJEACjSZA0dLo7mfjy0Jgce+nWqYsWPCJ8G/+XwyHstwDtIMESCCewHkfBiE+GVOQAAnkSWD3nj0CG8wxFEsAm8tdvXp1sZWyNhIggdQEKFpSo2texv0HD4rTZ840r+EFtJiCpQDIhipUD5fhMqMyELjk8itE7wXzM5TArCTQSYDb+HcyYYxCQBUqQy+9Ig6fOUs+ORB4oPfjreGgHIpnkRYCI2O/EU+d+sByldFZCNx5+qxYN29OWMS8uXPp0coCk3lbBChaeDN0EIBQkeGan+/puM4IEiABEogj8OCBV8SDM4nuvOoKIYLvlYv+ejm9L3HgeD2SAEVLJJ7mXYRgoVBpXr+zxSSQJwEpYFbMfUn88PPXhlVxLlGexOtbNkVLffs2Ucum3jsVpqdgSYTNW+KxYNitX/CUZ29AWVApCWB4Gd8xK+bOES/S61LKPiq7URQtZe+hnO2DWHnrt5MUKzlzZvEkQAKzBCBe1j3yQ/Hibf8YRnLCLu8OVwIULa6kapqOgqWmHctmkUDJCUC4fPre74dWfnj//1lya2leWQhwc7my9ETBdmDuynl3/V/0sBTMndWRAAl0EsB3EQMJuBCgaHGhVLM02MiMc1dq1qlsDglUnACEi5xbV/Gm0PwcCVC05Ai3jEVDsHzh+dklzWW0kTaRAAk0kwCGiyhcmtn3rq2maHElxXQkQAIkQAK5E8AEXQqX3DFXtgJOxK1s1yU3HPNYmupl+cr880V/sMwyadg89X7SLExPAm0EsLx3MLj/koam3nvqyiKuKkp619Q/PUVL/fs4bCGGhbANP0M5CUBQyVOdy2lhTa06c7y0DYPYaeqxGWg3Vjb28jDL0t6f3TKMw0PdIl9gvVKwNPULsEDUrIoESMATgX98/iUOE3liWadiKFrq1JuWtrwYHFxGwWKBw2gSIIFSEpDDROpZaKU0lEYVSoDDQ4XiLr4yeFl2vzaeW8U4CE2e5ApxhDNGGEiABOpNQP3c53n6O4TL6TNn6g2TrUtEgKIlEa7qJc7Dy6J+YV1y+RWtLbgvCY4EoICp3j1Ci0nAhcAvPr+6lUz93M+bO7dNWIyM/UY8deoDlyKd0qA81MEDFp1w1T4RRUuNuxhuVZ9elvB4+SAMrVltPCsEM/17164N00DAyFAm78u5E5OhWTdf9t/Fj1/7r9b/exYub9nPP0jAFwHcf1W79+Tnfv3MZ1tnoYsJCAzxq/3ehAsE0CC9LTr2xr4/78MgNLb1NW/40P/6hbfhGnxx2cRKFEbst7Bt7/Rmdt0UL/d/9D9DM/HAcA0QNXf9+dOuyTOlk0uysYLo5Mnp0575d/4ccLq2T6+A6SZA367605HE9972ORd1dS4aVi+tv2yl2Pb3XzA1KzIOP5hG3z0ljh6e8MIXXh6baIo0hBdrR4CipXZdOtsgX6IlrWDR0fqyRy837j2+fH+14u64ZMbr/8fPviCeXtZvvOYzMu0+Mj5taGJZeYsW3Hubzr6VSLDIfoBo7pZwySJY1PsI4uURD14XX99BTbzH69Zmrh6qW4/OtAdfFviVkzX4/LLALzbpas5ql2v+LIIFdfzfX/uFkF4a1zqZjgQkgbSCBfnhFUR+3MNFBl+CBTZj6Oi2v7taQJRnCfDSvvEqJ/lnYViXvBQtdelJrR1wzWZ1e/sULNI8CJciv4TxpZ814OFRpM1Z7WX+7hPA/QKxm2Q40mQ18i9//SXTpVzifAoWaSCEy2D/3+RiLwttHgGKlub1uXOL08xhcSkc4+RFBHwBZ31oSDv75vCjUkSf1aWOLB4WnUH/8gsLE81p57DoNuvvMTmXwl+nwvdpCPCbOA21BuTJ6s6NQlSUtyXtPBaT7d+/+Dv80jWBYVzuBOQwUe4V5VgBvC0//Py1mWrA9g08SDETwlpkpmipRTf6b8T/c/dm47JmXzXRc+GLJMshAT8EMBycZqWQa+0X/XW2bQQwr0WuRHStk+nqR4CipX59mrlFRbhxIYry9OZkhmAooMi5BYbqGVURAj7mslSkqYnMxD5O+740vY9TooxMTAIKAYoW3g4dBCb+5a6OOEZMryQqQtCRNQmQAAmQgJkAd8Q1c2EsCRRKoD+YNIzN5BgKJnDmeMEVlrO6vIeGytlqWlVFAvS0VLHXaDMJkAAJkAAJNJAARUsDO51NTkfg7w7f09Vt1dNZzVwkQAIkUB8CFC316Uu2hARIoAQEcF4VtuBnIAES8E+AosU/08qX2Pcv91e+DWwACZCAOwEsJ8bZYAwkUHYCFC1l76Eu2Hc4OPk274AvyKzHDMTZiOEcX794cXBiEVzi2sTrzSMgD05sXsvZYhLoJMDVQ51MGFMAgd2vjedeSygyPN3hk5cGu3nmKOZw2nC/+GPuTFhBMQQwRCSCISIfx0iMTR4Th5cF5VU8YDfbf3y+uHOUKo6L5lsI0NNiAdP06P/tngdqsWX29jkXZfa20MvS9E9Duvb7mNsCL8vTy/rTGZAwF35I5DlE9NZvJ+mtTNgnTN5JwNPv0M6CGVNtAhi6eTinJuCLsaihFtSzfe5F4uaUbZl+aJh/5WKjOdfjCPIeCkvZPGbLmUAWj0trWOjP+Q/XAgM+K+tz4rH/4EGBk+cZSCArAYqWrARrnB/nfPg+6RmCBZP+igz4MpZzW1zd9TJ9+NCxBAgWbArnEihaXCjVM82hjy1NLJqlYClK3EvyctjW5xlEECyP/Gp/7nPY6nn3sFU6AYoWnQjftwhIceFLuHRDsMjG4MEBgRElXnANogb/9yycOdxt6n2nO8K2m+3Jk5yn4gSw5Ilcz8maOHuuw4uIuB1TD4pzJybDVtqEs7w3ce/1LAwSBt7OokMokoJhonXz5oj1a7OfEyQ9LBTtRfdkfeujaKlv33ppmS/h0k3BooKQYgQPEYSNvXe2hAyuIT58YCQIECyLez8l5s2d25br9Jkz4XsKlwQwS5rU1aMmxNlAtJgbod97EDGqSE5635lryR4L4TL00rQ3NItwoYcle1+whE4CFC2dTBijEcgiXLBiAMNMRQ8JuXZiGpGilm0TLEgDETPv4qXTyR09Nq52M113CNg8arAmqThNK5KLaLkULi+enp5Pk3S4iIKliF5qZh0ULc3s98StlqIDbmOESy6/QuCoeVuAWHnj1VcEvvTKKlhstieJN3lY9PxII8bf1qPb3uu/5PFwlA9B/j09xJYHh8hO0S6i/mVShGrX4FVLKlqS1N2NtBAuh2fmn8nPfZznBWIFLPC555BQN3qt/nVStNS/j721EOJjelBFiDuDLyX5RWaqoO5ixdTmrHH6r3j1Pf+epuudQ4JTnm2CBZbBqxbalqC8rPdLkfm/8PzBsLq4PXNHxn5DsVJkxzSwLoqWBna6jyarAsZHeVUtY2J8oqqm024SSExAipfEGZmBBDwRoGjxBJLFNJPA1pERcWLi9fjGD/1rfBqmKDWBl8cOldo+GkcCTSBA0dKEXmYbSYAEMhMYHrotsowNXxwQPavWRKbhRRIggWwEKFqy8WPuihDApEBODKxIZ9XMTExo3Yz9TxhIgAQyE+DZQ5kRsgASIAESIAESIIEiCNDTUgRl1kECMQR4ynMMIF4mARIggYAAPS28DUiABEiABEiABCpBgJ6WSnQTjSwrge0PbevYvl+3FZttcamoToXvSYAESCA5AXpakjNjDhIgARIgARIggS4QoKelC9BZZXMIwMvCDejq0d8j23fENuS5o8dj06RNsCI4pXxw/vnO2TfzvCtnVkxYHQIULdXpK1paQgIQJFFn0pTQZJqUkkDUNv4o8s3fHUlZslu2vjl0jLuRYqo6E6BoqXPvNqhtd151RUdrd782Hsatv2xl27WjhyfExNlzHfFIhOMJTGVFHfqIg/JMByfCy3J86p0OuxhBAlkJQCiHB3FqgV49nQjf140ARUvdepTtaSNg+nW6ZEWfmJgRNL5wSY+LXl7dTv7V29ek9/CkmMQpGOBaUX0tBQsOaVQDRHLfyuDe5nlYTbotG9dWipbGdXl9G7zy9MlW48bnLWhrqLyGeHhaZFDj1QxRZdkIZnlowfMzcfYDW9He4jEnAg82PcAjtPXIlIDIG+z/G/1y+B4n+MLO4aW91l/5I8HOw7YyUAfmfNjKV+swGpBDJHardQ2yf+ddvLQtSxkECwySIobCxbVHma6KBChaqthrtNlIQBUNvcGQjQy9b78ppJxB/FElt8yjpsflNgGiCSCZ3afQSPLwNDbeMXIqGCq7UvuFjqyYPjptwxzrEm60V9qp/8pHGVOfWSYOB8NrfXPON5cRDGdMBMLIlFdlWhQLR2RtyUzC1BSXpmzXPFH8UEbcddd6mI4EykiAoqWMvUKbnAks2r0zTPsfb46J/9BynTxyVJxbukQc1OL3BfFhnteXdORZFFzrKGvviwLxCO+uv7FVWpkfrlqTW29DL9Oiq22XGe9AoGiR4mASk5BAYwhQtDSmq+vZ0BMTr4cNG535X2+lLT5tHqGIFr2uKrzHfB6G5ARwzIJLgDcqz/D7yf1i1+iTsVWsXrMuNg0TkEAVCVC0VLHXaDMJkEChBNKeEI69VUyTwU3Gu9QxNnlMjD6zy5S9LY6iJRYRE1SUAEVLRTuOZneHAIaj5BARHkiuoSxDSRwecu0xf+n6He8TF9HizyqWRALVJEDRUs1+o9VdIqDOacEvaNcH0mbH4YW8m8XhobwJ28vHUmVT4BwZExXGkYCZAEWLmQtjSSAVAfXBxIdRKoS1zBS3azLvlVp2OxuVAwGKlhygssjmEZBiRW71jo2+ZCjTA6kMw0PY1yRuS/w63UFxggUsynSP1Ik921I/AhQt9etTtqhgAqaHEvbKwCZkEC9leyCZzsiZ3ozv7ZCc6Tri5bycMK3hnJ2jM4cFYgWNqQzkQxn/Zfxt8T8K7iNWRwIkUA8CFC316Ee2ggScCGCy51On3jaknY6TosKQoBUVdQ4TEtnLmK0XwoUhHYGFfZemy8hcJFADAhQtNehENqF7BLBletQOpLgWbps/pW9x1z2b61IzVm/hWII0Afuu6Kt10pSHYwviVob59LQNbPiquEM7RsDU/pfHDpmiGUcClSdA0VL5LmQDSIAEykzgYLCjctzeKvdt+WbQhE+XuRm0jQRKQYCipRTdQCOqSmDTHUNC7sob2Yahf428zIvlJXDuxGRoXM/C5V03UnptbBOZMYeKpzx3vZtoQI4EKFpyhFuHoh/o/bj3Zmyeet97mVUq0CfTprPMu9+lYEE9+LvMwoWCJe+7geWXgQBFSxl6oUI2yDkcD91/j9XljYmCT//gsXDlDH/1RXcuVh7JX89J/44umVezElAFiyyrTMLF51yZrKyYnwSKIkDRUhTpitcTTiYNQtSkU72JrUmowQWKF52OEElFii19Z8nNijGJC3hEbPEudEx5Zb6yCBeXdjANCdSNAEVL3Xo0x/YkESzSjDR5cmxCqYrGL2UpRNL8XXRjcO6S0/ydhIZ9mMN8nyjREWeeS95uCJfp5eofxJnP6yRQawIULbXuXj+Ni1vW61ILyqC3pZ2UzXOSNN6Fv480eQgWH3b5LMNFsMj6wrRzLoqtHicuO5263PC5XrEgmYAEAgIULbwNCiFAj0snZt27IlMkje8sOT4Ge5LgwMckYVW4LHc2bNt1MJHnZXpZb2eNhz4Wv9cKdtmN2w+ls+RyxJh2TNYt474qOhG+JwEzAYoWMxfGkoATgeHBQePcCTXzoY8t7djIDNdNHhV1uEhNY4t3MtKQKMkJ1a3sc/Ulv8k2zLOtvOk32NcZdTYQLZ2xiIF4cg1DA+VYuuxqry0dROf6y1a2Lq+bN0e8ePqsMP1vKwPxyINgyqeXZytHL0MtT/5ty6vHf+F5977U8/J9MwhQtDSjnzO18vjUO0L0firRJFy9QtNZNHqaKr6fHjpbFWn6ymAV1VOGL2OTR0VdEaKKGn2Fkb5y5CuOO8NW2WNhgowhmiTDVmNLl4jVJdhvRW1Lms8GBMvQmtVtSC6Zeaf+33vBfBO2MG7qvVNCpsV7U34ZH1XOJUE5MpjKk9eiypBpVrz0SmU9ai0I/CNXAhQtueKtR+F4QC4OREuWoD9ks5RVtby2uTx44J4U06tcVC+EnOT5+8n9rX1BbHFyF9X+4Je3W7B7LNzylycVhou2z42fU6JbjK33iwzqva9vCgfB0uTPRpH9wLrqQYCipR79mHsr4G05HtQC8ZJkfkqaX5G5N8ZjBXFeKOxVowd1sqf8W58Aaoo3xell4z08NGqo80MRwuU8EwRL3L4jR8W7y6aHRPQkKGvszWN6dOT7w8vctt639YEtPrJSXiSBBhOgaGlw5ydpuvrlCvHSv/zC4N9ggoAlSLFS9y9l2T5d0EGshIKm4GCa9AmhCVvq3hdZUWNJ9+jE68mKGXKbkSMLbWofuAwNJQPP1E0lQNHS1J53bDdOw20LZ/B4DkIwubRn1VJrKc8dnUlnTVGfC20PoplhtG6IBJNgAeXQMxbY1dQHZp53GoTOu+tvjKyi4zMUmbq4ixASmNdSREA9FC5FkK5/HRQt9e/j2BZiJYItYOJmVKjqMtSoNqW9BlGQVBjoO7eq7/VrcXbp8yXU9BAu4bDRjOic7lfzMImtnnOH9touOcXjtGNT6Fm1xhTdFhd3H8YWkFOCOMGCz4dt1VNOJjkXW5RgcTaICUnAgQBFiwOkOifBqhP3SZztJKZ/Qc5p7Gz/NA9+/V6yzWVBOvVaUgGj16O/T/MwPe+ZXXoxid6PWvJ/uCzZEEuiSpm4FAToZSlFN9TCCIqWWnRjukbAw5JWsKDG6bzl/SWZjop7rjQPfvfS21Pq4sZUDjcoM1FhXBkIcHioDL1QDxsoWurRj4lbAcEy6Li3R1zhKEsdJooablLL0oeW0uaLs8/ndZc5DEnr070o+nvX8oaHbotMuuGLA8E8pPihmMhCeLGNQB73Q1GIi5zTUlSbWE/9CVC01L+Pc22h7m1JIoZGAsukcHEdpsKQVDfnCMTNYUgDW/ei5DkslMY+5rETyON+sNfm90qRc1o4POS375pcGkVLA3sfwmLT2beCOROeGh+sJGLIh4AuaPKphaWCAATIeUmXPBOdEwEODzlhYiIHAhQtDpDqluTk6L+JLR6/nBf2XSqEZdnnlf2dW9zHzb0wLd3Fvie2nWW71T+u3iHYt5kn+HrvJim+tyQo+Rps49/7cQGP3VPazrhhedqhkHFFb5/T3InocWx4nQTyIEDRkgdVlhkur7UtwYWQsQmX6bN8gn1FtIAlu7g2NvYb/VLl3sst++XZQmn/DxtOMVS5/i+LwUXOaeHwUFl6vfp2ULRUvw9L14IowRJlrE2wROUpyzVTm+O8Q9jTRQoWtMPlvUxXlnZ32w4IwPsSeEekYOy23WWov8g5LRweKkOP18OGnno0g62oGgHTsFFcG+BtuX7J4rhkhV83CRYYIb1DJoOQB0EKFfytChjbdZnOVCbjSIAESKDuBOhpqXsPs325ErAJlrhK5c65uqcF+XTxItPq/+t1jGzfoUd1vG/S8QodjWdE1whweKhr6GtXMUVL7bq0+w36/eR+8Z2tD8Qaoi8X/dH3HxY4hTc2WCb9xubLIQEOI4wKLW/L1MGOZKo4wUX5Xh0mUo8FkNf1fLJg2xwieb3uJ26rgNPudZMkXzjUpE3m7ejklBFxk7wXnD6ZsuTZbEXOaeHwUObuYgEzBChaeCvkQuCEy+okTXxAsMTlC1cq1SSo4sTmXTEJFVXI1ARFpmbY5qnY4uMqcxEuacuOq9v1epxYdimnyDktLvYwDQm4EKBocaHENCRgIZDFO6QPDameFlSnX5cm2Dwt8KTYvC24RrFj6URDdJRw6bZgMZhb+igOD5W+iypjIEVLZbqKhpoIfDj0r2E03Omr/nSkLcldf/60wN4bfXN62q6NTR4TTweH9Ol5bPGHgs3z9D09ZEUu3qEwrWFISxcRtve6SNHTSVts8bgeda0NGt+0CJiECwVLuhuEw0PpuDFXJwGKlk4mjKkggSUr+kTP23PaLF8RzDeAYAmPGpgbzD+YCT2BCFlx9pzQ86wO5ig8Hex7oscv+cwyIQ684o3KSNJ5EKemnOt2FSdSzDkXHCQ8F5xdpAbbqc22MnH2kSn0OJyBhRO19bOqTGX5jlOFS5GCBe2dOPuBtTnrT58Vl1ivul0ock6Lm0VMRQLxBCha4hkxRUUITAXiovftN0Nr4Z0QCR72yIP8YsqfOLFhy+Phm1QItcSczUhT/Jp1bbHOXqaZXKu1/KYq7HHdPXOqSMECBnH3yHo7KOcrRc5p4fCQc7cwYQwBipYYQLycnAC+4G2/qtXSntaKHhpYLcaCbdbjgp5PTQ/hsTJYWTE+b0EQPe2hkHFIh3jUMPHaeJgtFDcz8eEfM0HG4627n0Mtodi/4x5yxVpTTG1o81jgSUsT4MlwDUULFle7qpSOw0NV6q1y20rRUu7+qaR1eODfcdfdsbZPPv9S2y/KlWtvFFfd0LmFv1oQJpQ+Pf52R9lHD0+04qYXTR+fKTsYGgquzS6kPh643acfWMgTH49ij3fUx4hyELDNNUprHc4kShKaKBaT8GFaEvBNgKLFN1GW50QAW9wnDVF5bA8vPFQOW6qyxdvKSmov01eLQNS9Uq2WuFlb5JwWDg+59QlTxROgaIlnxBQJCWAyKPaRwMZqtmA6sfn41DtCxOQr246uODVYZBzSsjFiPAnkSaDIOS0cHsqzJ5tVNkVLs/q7sNZClNgOQLR5TForXwzCBXlCUVOycMu3b48UZzAXtj/9fOeOuN1syvQQWbKhkHOH9mYy+eDeF435e1atMcarkUnmoMQWxgQkQAKVJUDRUtmuK7/hUrjolpq8LDKNKlzUfBAsrst59fryfO/iHSqj2EozFHLeM7syobQtkf4w2DOHoZ0AlqTXKXB4qE692d22ULR0l3/ta48SKLbGQ5yUUaCY7JV2zrt4acdl6VGqSls6GsCIrhGIW5LeNy+7qClyTguHh7p2K9WuYoqW2nUpG9QNArYhrzSirRv2u9SJc5/izoZyKYdpykGgyDkt5WgxragDAYqWOvRiidqAYYfNCZeNwnys2Knqqp0qeYay3CrhqdyG4wiylMm8zSDA4aFm9HMRrUy3M1MRlrEOEqgJgaR7f9Sk2WwGCbQI0KvDm8EXAXpafJFkOY0jUGXvUOM6iw3uIFDknJaOyhlBAikJULSkBMdsJEAC+RHACdzhQZdawG7Lv5/cL7bc97h+qfX+pX0HxMtjh4zXcUZT3C62WLkzaDnEEcv4N90xZJ3bg+MrBjZ81TiRHB431yHQOEF852eyH5hYpPeDw0PG25GRKQhQtKSAxiwkQALFEYBQWaaszoJoiQtX9q8Kk9jES1x+/bosT483vYeteGFydp0mYpva6hrH1UOupJgujgDntMQR4nUSIIHKEoBnRD38Mk1DUEaagB2hs9adpl7mIYE6E6BoqXPvsm0kUHECupclaXOijpJwKcu2q7NLXqSBx6WswqXIIZsi63LtG6arJgGKlmr2G60mARJwJIBzsNIKh6yiByai/jKGIue0FFlXGVnTJn8EKFr8sWRJJEACJSRQ1iMgSoiKJpFA6QlQtJS+i2ggCZBAtwi8+bsjmarmZNxpfBweynQbMbNCgKuHeDt4JYDlojg3xSW4Lv9MUqasN67sPMp0aTPTJCeAB7+PYZrkNYtw6bK6cilNGWnyYMl33qHIfVq4eijv3mxO+RQtzenrwlpq2l/DVPnE2XOxe2bIfLYyz52YbCt6bPKY2HfkqFhkqlCJOxn8/e/B65qlS0T/8gvbUvcsXG7MncReYwGMTExAPfU7jXCBpyTrgZUoI41wgdjKcsK37Z4HRB8HJnKeSeLbkRlKQICipQSdUGcTTBMgsz5EoniNPrMr6nLHtX1BjC5aOhI5RNg8N0tW9ImjhyfEv//Pn1hL+dt/+LqQ6dREFEnTNOT9cnwGDkQlNnGzBXVIx8e9ppcBoSvwMgTcS77rN1RTuSgOD1Wuy0prMEVLabum+oZFLVfVHwRVby2GxOQvYynUsGoE3oE3Ty8WOydetzaxf+6guHLRfHF63t+Ev8xn2ZwNPFHWbI26oN8vq9ess7ZfT2tNaLmAHXPH9CHOM1IyCdGzak2YE6JSDoXKv8N9eI/OplWrQJqmBg4PNbXn/bebosU/U5YYEIja3wKu9qwPlrJChmCRYiWpjeHwx8zy2LryScpEplc9dmBzcO+L1qKwjb4MaTnGzYmS5auismoCs8g5LdbO4gUSSEiAoiUhMCaPJ4C0dwjWAAAgAElEQVQHTNz8g/AhdGoqvrAKpohre1STkNf8Oz0qV/2vqUIQ2/hHDQPecdfdbUDSCpduU406HXzqNM8e6nb/sP7uEKBo6Q73xtcaTmw8Uk/RUqXOxVwclxB3yKBLGWnTRHnt4sqUE2irJlziPD13xjW8ZNc5PFSyDqmwORQtFe68spqOB0TVHhJlZZmnXVGnGev1bg7meXQjuHjtumEX6yQBEugOAYqW7nCvda1Yhrzlvsdj2/jh0L/GpmGCYgiYVnmhZorPYvh3o5Yi57Rw9VA3eriedVK01LNf2SoScCZQ91Ve8uwfCrD2W6LIfVo4POT8cWTCGAJuW5fGFMLLJJCGwKLdO9NkK3UePBjTbv2Ozch8bIaWBFCUYEE5V/avSlJcKdPy7KFSdguNIoFUBOhpSYWNmXwQeHf9jT6KKV0Z8hd9ktN95e6p9Aa0d6fkkWZHWpQErgzdJ8Dhoe73QV0soGipS0+yHaUioE9G3rrtkUj7JsYnIq/zYjoC5GrnVuScFg4P2fuBV5IRoGhJxqsWqRds+N/F8OCgt7ZgP4m4JZreKtMK0s8JkuJg5NQHkecaJVk542I72t8tBi72VTmNKgBtE4b19r08Fu5NW9mAAxN59lBlu4+G50iAoiVHuGUtGntujATGDRZwkmwUA8xpqesQUVS7y3Rt1+iTkRu1wdY4L1Ee7bGKwKn3g+o+LUTEyrNrfr4nD5NYZgYCHB7KAI9Z2whQtPCGyETA5GX5q+VXi5HtV8eWuzXYXO5dh/0/ILJ87xOSR5mxDWYCZwI2TwM2mhsZ+43Y+c/D1rKee+GX4TXT0FCcB85aKC9kIsDhoUz4mFkhQNHC2yEXAk4TJ7kjbi7s61YohoTUbfxX/emIiFp3Jo9RgMAxCZe68UnbniLntKS1kflIQCfAJc86kYa8Dz0NgasdvzzTBpOXBWW5LPtNuyw4ra3MV20Cac5zQh4IF9d5MNUmlNz6Ivdp4fBQ8v5hDjMBelrMXBoTK+e3pGlw2vNoit6LJE3bmKccBKSXJa01VT2AcuLsOTFx1v6DYr2HAxPTMk2Tj8NDaagxj4kARYuJSsPi0oqPKExR+41EXYsqk9eaSSCNl0UlVcUdceM+k+ubeSuw1SQgKFp4E+RGgOIkN7TeCl69Zp3oX36ht/LKWBB3xDX3SpFzWjg8ZO4DxiYnQNGSnBlzRBBIMtwU92syohpe8kQg3Ma//xuRpVV9z5PIxjX4YpFzWjg81OAbzXPTKVo8A2VxInJTN/IhgaQEsBV/1iGipHUyPQmQQDkJULSUs19oVU0J3HnVFeLo4QmxZEWfsYW4hoCJmH1zeiL/Rzof3qoyi4LWEGPvp1IJF076Nt5mhUdyeKhw5LWtkKKltl3LhpWRwIZF84VYZN947+W354hzJyZFeLbyWRH9f5DkLuwOmyHEiYIyLE2XNh6faSeObtjwxQFrq1WbOa/KikkUOaeFw0P2fuCVZAQoWpLxqkVqnLuz/rKVtWhLEY148MAruVbT7ZOI8WDHC3ua6KFbD314mkLVJsMZKVmmI3pWrdFNbb1/7mh7WmvCEl/AZzTvUOSclrzbwvKbQ4CipTl93WopBMu2v/+CteVJvszi3L6uZcWVI431WZ5rWbtfG/cyDGMDrq9ugScB3paiQ5l2j8Ww1+EzRRMoT30YGsz7wMQiW+v6+S7SJtZVTQIULdXst1JYzS+iUnRDJiOwq3G3Qpw3wTRfJ02ebrWP9c4S4PAQ7wZfBChafJFsYDk+v4h8ltXArkjV5G57M374+Wutdj/yq/0dnhYconjb39nnA6EwnvBsRdpxocg5LR2VM4IEUhKgaEkJjtlEOJHPV/BZlotNrkNDLmX5SCPPx0kyhwTDSCsizo4yeSp82Fq1MqK8MyqjRbt3infX3xg2T/5ty1sE2ygv2IKpd8Qll2friSI/A0V/vrORYe4yE6BoKXPvlNy2KntHyvQrUz0RG6LFdT7Llf2rxJUR98g/Pv9SrnNxIqou1SXT/JBwU72Ll4qH7r9HjD6zK7T3RPA6b+L11t+Lgr9++IPHwvf6Bnubcx5WeypCjMKeJSsWiOtCy6oRqvxdUQ3CzbGSoqU5fe29pT5/PTXlS833SiFZHjdfc7u9sUIqDSsIRF24uNXIVCRAAj4JULT4pNmwsnwKDZ8CqMzd8IXnD1rNu/+j/2m9pl7AsBCC+hDFQ5UhmkBawSJLrZtwKdLb2JTPd/QdyKs+CFC0+KDY0DKq/EVU5Hi+6+1x6GNLxao/HXFNXot0Ju+Fab8YtbHwLunLsynakt8ORX4GfP7ASd5S5qgTAYqWOvVmwW3x+UXksywXDEX+ynSxB2mKFiyYZDoYrMhxCZun3ndJxjQkQAIkkCsBipZc8da7cJ+eFp9lVZV6Ez0ttr7Cxmq6iOuZOz0sZsvD+PIS4Oe7vH1TNcsoWqrWYyWyt2jvSImantqUX3x+dWTeifHps4eiEsnVRSvXTi/PjUrreg2raRYHhxKqQR+CcS3LNd2BZ58Qcn6Ommd8z05jEWj3gWcnjXlQ1nTIdhaTseKaRhbpbeR3RU1voi40i6KlC9DrUqXPX09Ff6kVOZ6v9nealSu2+8VXWVKw6OXJuSV5ihfX5d0qgzR5kB/tyDIZ1zT/xtY3VYjv1megCmxoY3kJULSUt29Kb5lPoeFTALmAK/JXZpw9+knKrmcP4SE6ErGfh8sGaDbBApt1ERPXjipcxzlPIvAoJW2b3kdVaGuZbCz6812mttMWvwQoWvzybFRp/CLy191JdsKVtcLjcPjP2YdDkj7A/bW6+JIkZ3kO9Oo160T/8guthkixkqZ/rIU28ILPHzgNxMcmKwQoWng7pCbg84vIZ1mpG8SMtSQwcfacmDj7wWzbTk21t3PORfZ2H9HS2lNW7kqZvI2Vg0eDu0aAoqVr6KtfsU9Pi8+yXMhyPH+a0u8n94tdo09GIoM3osrBZZisyu1La3uRn4GiP99pmTBf+QlQtJS/j0prYZW9I2X6lYlVO3LlDiaLpp1omuZGGZs81jp7x5a/6qLF1i7GF0egyt8VxVFiTS4EKFpcKDGNkYDPX09N/lJr0pwS442UcyQ20cOhiXpYsqJP7H5tXJwc/Tf9Uuv9Tf/t3vDvo4cn2tLEHWhoLZAXSIAEMhGgaMmEr9mZfQoNnwKozL3yyK/2Byf09oUPQfyP0PY3Tg8OtvNHwFwM08NWtg/XxZ+D9DUOciWV64oqEwr1lGeslkKAZwti8T9ef0mMzpzsrOdd2Hep2LBofhj95unFQp2MWwfRUqS3sSmfb/0e4nv/BCha/DNtTIlV/iIqcjxfvSHCh92BV6aj5P94p/6tZDh8pjG3U1tD1U3n5N9ZhAsKj1reHUd52cXTQrJOq4iK/Az4/IET11e8Xm8CFC317t9cW+fzi8hnWS6NLvJXpos9TDNLwLRLrrwqr6WZ9yO9K2lZQ7iURbRgWEsN6+bNES+enva66X9HtdeWR49HmVFBT4+0uh1vRBUwc42Tph0gNTwJRUvDb4AszffpafFZVpY2MW9xBHDWkikMruwT2AROFwjwlEA4YO+U586Y84qIzfZMdVU1Dg/3w4p37kGlIba/o9pqyyPj1etZyonKy2sk4EKAosWFEtMYCRTtHTEawcjMBDB3oxvBNi/keuxaGwQ5/0S3bXzeAvHUqbf1aL4nARJoAAGKlgZ0cl5N9OkdKVoAFTmenxd/H+UObPiquGNmvoatvG6cuSPnkNhsYjwJkEAzCXSuA2wmB7Y6BQGfD36fAsilKUXX52IT05SbwOkzDZ0VXe5uoXUNI0DR0rAO99lcPvh90ixnWXV6UGPjvrQHH4JDnqddl7P3aRUJlI8ARUv5+qQyFvn0tPgsqzIAS2AoJrtGPcjr9qBGe9MIsbpxKMGtRxNIIBUBzmlJhY2ZQMCnp8VnWS69Q5E0SwkPcn2ljgvDqqZRBQiOKIg6pqAb83mqypV2k0ARBChaiqBc0zqKnjzrEyNEEoWLT6L+yvov428LgZengFVKtpVKnqpgMSRAAgURoGgpCHQdq/HpHamyAKpq32Kvj804NoCBBEiABCpCgHNaKtJRZTTTp6fCpwAqIyvaRAIkQAIkkJ0ARUt2ho0tocpCw6fgauwNwIaTAAmQQMEEKFoKBl6n6nw++H2W5cK4yoLLpX1MQwIkQAJ1JMA5LXXs1YLa5PPB77Msn81/Ydcu0TenJ3id77PYxGVxImliZMxAAiRQQwIULTXs1KKa1ITJs1gK3D83+oTbvHmPcbJs3ohZPgmQQEUIcHioIh1VRjN9ekeKHh4qur4y9h9tIgESIIGqEaBoqVqPlchenw9+nwLIBVHR9bnYxDT5E1gReM2+Mv98gf/jAtLhFRVkGpfyTOW41OHbZpMdjCOBqhDg8FBVeqqEdvLBX8JOoUlGAnjwY27S7FDf2dY8pYmz5wT2rJFpZAH6sKA6r8ilPKMhQaQqhHzU4VqezR7Gk0CVCFC0VKm3SmarzzktPssqGSaa02UCEBiDmsekXSzMChhdRMB0NQ7CxaU8IeaEQkgPEBi+6jgcHDrtWp5uB9+TQFUJULRUtedKYLdPT4vPslzQ+BzacqmPabpDwCQwdEtMIkJPg/dIB6+MLoD0tNPlnQ1ES/sV2BJXl7welw4l2wSLWivK4cozvYf4vsoEKFqq3Htdtr3K3hGIJBfh0reyT4yM/aarpPGgZEhHIE5gJC3Vd3mm+l0Ei0saWTbEksnrY6qbcSRQdgIULWXvoRLb59M7UlYBdMnlV4iJl17hl36J78OymqaLBcyp6UaA0OIZU90gzzrzINCdT1EeLWGZhRNw8VS4GuVTALnWyXT1J4A9bs6dmBQH974Y/p/1vWs5JrKr/nSkZYdPm+LahLoYSKAuBM77MAh1aQzbMUtg6H/9Qjx44BUjkjuvukJs+/svGK8h0lWMuAgNn2X5tM3VLtS57pEf0tNivVvKfeG8bf/cFQMX9l0q3l1/Y1vd3bIFRnw49K9d4eC70rjvLt/1sbzyEaCnpXx9UhmLkjz44xrls6y4unDdRXC5lMM0JEACJEACxRGgaCmOde1q8vng91lW7UCzQSRAAiRAAiEBihbeCKkJFO0dSW0oM5IACZAACdSCAEVLLbqxO43w6R0pWgAVXV93eoi1kgAJkEC9CFC01Ks/C22Nzwe/TwHkAqHo+lxsYhoSIAESIIFoAhQt0Xx4NYIAH/wRcHiJBEiABEjAOwGKFu9Im1OgT0+Lz7Ka0wNsKQmQAAk0iwBFS7P622trfXpafJbl0kiKJBdKTEMCJEAC5SJA0VKu/qiUNVV+8BctkirVsTSWBEiABEpKgKKlpB1TBbN8PvirLICq0Fe0kQRIgATqQICipQ692KU2+BQaPgVQl3CwWhIgARIggZwJULTkDLjOxVdZaPgUXHXuY7aNBEiABMpEgKKlTL1RMVt8Pvh9luWCscqCy6V9TEMCJEACdSTw0To2im0qhoDPB7/Psny2/o1XXxF9c3qC1/k+i01U1sTZczxlOhExJiYBEqgrAYqWuvZsAe2Cd6SsYsNX8yfGJ0T/3Dm+iktZztlAtKTMymwkQAIkUCMCHB6qUWcW3RSfgqXo4aGi6yu6b1gfCZAACdSRAEVLHXu1oDb5fPD7FEAuzS+6PhebmIYESIAESCCaAIeHovnwagQBPvgj4JTg0oqEw1qHz5wtxOqy2lVI41kJCZBAJgIULZnwNTuzzzktPstqdq/Mth4TiF3n44wFgqWoeTOD890nNRdpF+8bEiCB8hPg8FD5+6i0Fvr0tPgsywWYz6Etl/qYhgRIgARIIDsBipbsDBtbQpUf/K4iacGCTzS2f+vQ8IV9l9ahGWwDCZDADAEOD/FWSE3A9cHvUkFZh4euGxgQ6x75YSX2SdHnirgODaF/kBb7wZQxqO1KOu9meHCwa03C0NZTpz4I60cbBrc90jVbNk+937W6WTEJ+CRA0eKTZsPK8ik0fAqghnVDq7k//Py1mZp+Zabc+WTWbRp995R48MAr+VTGUkmABEpPgMNDpe+i8hpYZaFR5aGt8t4RtEwSUL0siIOHaGTG60JKJEAC6QlQtKRn1/icPh/8Psty6ZgqCy6X9jHNNAEMi0BA+ApFDLNA3FTNZl98WQ4JxBGgaIkjxOtWAj4f/D7LshrMC40kgHklUSIA1yBGfHlCdC+LhA5vS5zowXWXeTuuNsfV18gbgo2uNAGKlkp3X3eNL9o70t3WsvYqE5ATYvU2qAJDigqTeMHDXwoA9e+o8vRr8r2pfFxT42Ev6tHFlhQrsj1Rw04ULLYeYHyVCXAibpV7r8u2+/SO+JzU64KFgsuFUr3SuD7EQ/HiMKTkWp5O0bV85IM4sQkuWW6S8nRb+J4EqkaAoqVqPVYie30KDZ8CyAUR6qNwcSHVmeYfn3+pMzKIWX/ZSrFh0XzjNUbWh8CdV13h1Jjdr42H6XBfuASuCnOhxDQULbwHUhMoWmikNpQZMxNQhYp1zkXwkNod1ETxkhl3LQrAMRIMJOCbAEWLb6INKs+np8VnWQ3qgkKaCsFiFSqKBa00FC+F9EuZKll5+qQ4efKPoUkH974Y/r/vyNHw/2uWLgn/X71mXfg/dpken7cg/JuBBJISoBROSozpWwR8elp8luXSRRwacqEkxCO/2u8kWNTSIF7wwvAANoNjqDcBVbDIlkrBgvfq33gPcYM8DCSQhgBFSxpqzBMSqPKDv2iRVLVb5vSZM6FgiZsEGtUuCBfMU6BwiaJU/WvSw5KkJWnyJCmfaetLgKKlvn2be8t8PvirLIByB11wBRAsI2O/ySRYVJPlhMyCm8HqCiLAQ0ULAs1qQgIULbwRUhPwKTR8CqDUDWJG4VuwSKT0ttT35qLXpL59W8aWUbSUsVcqYlOVhYZPwVWR7nI2M8uQkKkSOb/FdI1x1Scw9ZlliRuRJk/iSpihlgQoWmrZrcU0yueD32dZLq2vsuByaV/Z0kC40NtStl7xZw9EiMswEdK4pPNnGUuqGwEuea5bjxbYHp8Pfp9lFYiAVSUggLktGz5/bYIcTFolAuEy5uDVEwjUa8TeNtN7Vq3hUucqdWaJbaVoKXHnlN007q1S9h6ifSRQPIElK/qECF76jrjT++MWbw9rrBcBipZ69WehrfHpHSlaABU9HFVox7AyEsiRQNLt9g8Hy94ZSMAXAYoWXyQbWI5PoeFTALl0BeqjcHEhxTQkYCawYu4c8wUl1mUn5dhCmIAEFAIULbwdUhMoWmikNpQZSYAEvBGQYuVXK+6OLPPHr/1XsX3uRYl3VI4slBcbT4CipfG3QHoAPj0tPstK3yLmJAESiCIAwRInVmT+my/77+Lm4A3Ey11//nRUsbxGAs4EuOTZGRUT6gR8elp8lqXbaXrPoSETFcaRQDQBV8GilgLxcv9H/zO6YF4lAUcC9LQ4gmKyTgJV9o5wTktnf+YZg1/oP+Ry5zwRZyr7K/PPF/0xc1Q29t6Zug7pddkx9WBkGZun3o+8zoskQE8L74HUBHx6R+j5SN0NXjPOmztX/OLzq72WycKqTyCLYFFb76uc6hNlC9ISoGhJS475vK6+8SmA2DXlIgAvy7ZrryiXUbSGBEigkgQoWirZbeUwuspCg54d+z0Eb8v/WPkZe4IUV1AmAwmAAL0tvA+yEKBoyUKv4Xl9Pvh9luXSLVUWXC7ty5pm2cVLvQwT0cuStSe6n58io/t9QAtmCVC08G5ITcDng99nWakbxIxtBLJ6XKRgoZeFNxYJkIAvAhQtvkg2sJyivSMNRNz1JsPjknSoCGIFeTCPhYKl611IA0igVgS45LlW3VlsY3x6R4pePk3B5X6vQLjciRN8lYDD8NQt2iFU1l+2Mkyx8vRJgTwMJEACJOCbAEWLb6INKs+n0PApgFy6APVRuLiQmk6zYdH8tsQrl/aKcUXIrJs3Z9aroqV1r4UpSYAESCCaAEVLNB9ejSBQtNCIMIWXCiYAT8qygutkdSRAAiRA0dLAewCufQZ3Ajyp1p0VU5IACZBAngQoWvKkW9Ky8RA+fOCVklpHs0iABMpEAFvv+1z2jAMUexaWqYW0pUoEKFqq1Fu0lQRIIJIAJgS7BnrQXEn5TdezcLnfAllaowhQtDSqu9lYEqg3gcHg4D+XMAZv4xmXlEwDAr68LfSy8H7KSoCiJStB5ieBkhAYffdUmyVYery491Nh3PGpd8K/o/5XVwPl2SSsNIqyQ7dTtevo4Qkn0xYs+IQx3cmTfzTGNz1y4uy5AMHZSAzngmEdnNacNkCwHPpYsBQ+EIwMJJCWAEVLWnLMRwIlI/CgNk/pK4HXoV95SMsHtul/eB6eOvV2IS3q7f14WI/JDj0+jV0QLFH7xFC4dHZzOM8txvP0lPi0uLkzq1MMBMtdf/60EKc+cErPRCRgI0DRYiPDeBIggUoSiBIsrWtnjleybd02etH/9y+hCfd/9D+dvS4twdJt41l/LQhwG/9adCMbQQIkQALFEYDXRAoYW60QK0gTelgYSMATAXpaPIFkMeUlEA6TJFhV4rslm6fe911kY8qbnmvRmOZWrqFxwqVyDaLBpSdA0VL6LqKBJJCOwFPB/AG8yhYo4srWI7SHBKpDgKKlOn1FS0mABBwIXHvNVZGpNnxxQPSsWhOZhhdJgATKSYBzWsrZL7SKBEiABEiABEhAI0DRwluCBEiABEiABEigEgQ4PFSJbqKRWQmom43JzctQZt5/h3ZzIm7W7mN+EiABEggJULTwRqg9gSUr+sTiYBdWGeRurHhfxN+1B8wGkgAJkEBBBDg8VBBoVtM9AnLrdwgUNahbyecV371Ws2YSIAESqB8Belrq16dskYHAxPiEwBBREf/L6qu0XTxOR+6b0/4bxrZcGvveyIB9VEynJScpz9BdmaK2bnskNj+OB2AgARKoHgGKlur1GS1OScDlrBsUnTWdWkZKUwvLJsWFbfM9VbhIsdKe9mwgds4XUrwkKS+vRl7Zvyqy6Dd/dyQ4tI/b+EdC4kUSKCkBipaSdkw3zFq0e2c3qm3V+e76G7taf9MqjxMYUpxAuNh2FZ4VMNPiBQxtAkgtr2msy9Tebn/OJQt+3st0V1THFoqW6vRV7paemHg99zqiKlgUXIz6Ikv7ZfvvQbl4dSugXWlDFI+0Zar5bAJDppHXXdPF2VSEcIEnJerQxDgbm3C925/1kDF/pDThVvPeRooW70hZYF4ESvFFm1fjDOUu7LvUEFt8VJxgSWoRyrPNl0lalim9HN4zCZfTZ86YsjCOBEigIgQoWirSUTSTBEjAnUDUJOioa+41MCUJkEA3CFC0dIM66ySBkhA4uPfF7liyrD/3eilOckfMCkigcAIULYUjZ4VpCGA+y4k0GZnHSuDk6L+J0W7NYxrKR7S4LmXGaicGEiCB6hGgaKlenzXSYkxIPa9bD9hGEq9mo/OcK1NNIrRaEti9Z0+4A7YtXDcwIHovmN+6PPXeKfHCrl3hexz3sX7t2o6s23f8pBW3aePXO64zwj8Bihb/TFkiCZAACZBAyQhsumNIRE3mP/aH9zosHty0sRV37i8ftl2HCJLXN3xxQFC0dODLJaIWomXr3d8SY5PHQkA7f/5sJKgbv3SD9frAhq9ab7z9Bw+Kh+6/x5pXXrjjrrvF1atXt6WLqlMm7F9+oRi+57HY8rudIOuKlqgvjW63jfWTAAlME6jj51z97nFpH7wuECOjz0x7W/AMUL/bsbu2DKvXrOOtUxCByosWuPC23Pd4CxfUr8mNJxPsO3LUqrZxc35n6wPi1b2/bnMTyrzy5o3qm1u+fXvH5ag6ZxMPdOQrWwQ+wBBXWcKWlEM8nNOShTrzkoA7ATzQhwbaf3i5555OObZ0SethnzRvHunxnJABxzwM3X6rUzUQI/J7/+WxQ22iRZ3E/rWbv+FUHhNlJ1B50SLHHCWK8T07I0WLikw9o2TryEgoZvC6dXBjh8dG3d8BD2+Tsj53YlJccvkVkb1iOxcF5+Iw2AlwToudDa+QAAlEE3jrt5OtBH0r+6ITK1fVIyFCkTIjdiCCpJiByFPnwjgXzoSpCFRetOwafbKt4fC6uAyzhL8mFLUNpXzhJy8Iy4rzqECwuCp11Ti9zlQ9xkwkQAIkQAKJCKg/OjGsI4d28GNRn4CrFozhIHxv48es+lx449VXWsmyeqUSNYSJRfuxrhUDoqpdeD9kwBBR0iDHL2U+1Z2YtCymJwESIAESKA8Bdf7J8NBtQr4wkfbyNZ8VUc8MVZTIdPDoy7ByLc9MK7KnKy1a1KGhR0d2tLipN1QSmJh7IgPdfUnI5Z827blD+VvGGkiABKpEAD9wMUwvf+jCi3L9dZ8Tth+qqiiR4mfbroNhk+GFiZpDWSUuVbG10qJFDg3JMUV5E8obKq4TcJPKF1YgydnlqtfGVAZUes9Hzut4Ral1lIPysZLI9DLVw7hZAnkfHEjWJEAC9SWA4XwsaX5p34FwviLe4//7tnyz1eif/fgJIwBVlGBeC54Z8llxTTDhmKFYApWd06IODckbR870xg0Vt4oIaeQcFhU5BJDqtfHdHXHzZXzXx/JIgARIgAREOFm2V9uO4qbhe1urT7GQwhbk0md8fw/MbDiHtKbVorYyGO+HQGVFizo0JG8cTKaFFwQBbrykbjvcmBAscUNDSGe6WeNWDsEu2+ohP93JUkiABEiABHQC6tCP7ftd7vWl58V77OElf3BiWwwZXL7zTeUxLj2ByooWddUQdjrUA5YwR63wgUcF+7EgYCKWnB3+qF6Q4T08OkkFEYrh6iEDTMco7tPiCIrJSIAEOgjI73hcUHe2VX/8mraxkAVhhZEM6jQCmwDqMIAR3ghUck6LOjQEEriJ5Eu9sWwTq2Sa0F0YvL43vLkF1Dau6Y04C0pFgHNaUmFjJhIggTB/l0UAACAASURBVIDA8OBgiwPmFGL6AF6q1yRqgzh9dSkKg/eFoXgClRQt6hp5ORMcwy54uUys0jHjzAh4QRAwvBQndvT8fE8CJEACJFBeAhAk8jsewzxYLYSX9JrguRHnNdE9Mar3pbwtr59llRwe+tH3H271hD4HBYJDbuuv7mAY13XwtsjDr0w74qr5MfSkbuGsXjOdPRRXN6+TAAmQAAnkRwCC5PgbrwmcygzvijrEg/mJLsP9ED7q936cyMmvNc0uuZKiJWr7ZOnGQxq8IGJcbi54W+TNHJcvnP8SvEzBNEHXlI5xyQhwTksyXkxNAiTQSQDf82lPY8ZzJO5A3s4aGeObQOVEC0SIXIFjO68HwkG68nDmhLrMTR3b1GFuf2hba3tnDEH1rl3bSoJZ4nErf2xnD0XVqdvA92YCPHvIzIWxJEACJNAkApUTLVC7UauC0Hlw9dncfVF5o/K51Gu7caLqtOVhPAmQAAmQAAmQQDuBSk7EZSeSAAmQAAmQAAk0j0DlPC3N66LytFg9m6loqzinpWjirK+pBDBnbyzj9vTd/K5oar81pd0ULU3paQ/tjJqA7KH4yCI4pyUST6qLYLooVc7smd7NXgRLyJEAjxvJES6LzkSAoiUTPmYmgeoSWDF3jhhUNt0qsiWbp94vsjrWRQIkUBMCnNNSk45kM0iABEiABEig7gQoWurewzVpH+a0MJAACZAACTSbAIeHmt3/lWk957R0r6swlPNA78e9GDB25qx46tQHXsoyFRJlJ/ZRsoWehcttlwSHsqxoeIEECidA0VI4clZIAuUgcDgQECOBKYPzz481CA/urwTp+oN5MKYwEggRlBfOk7GUl7dgMdnVt7JPzJs7N7z05X8aaW3frqfFGWY4guP0mTOtDSb1NHxPAiTQfQIULd3vA1pAAl0jAKGx2SI2dA8DPCS6aJFiRTYgqrw8PSwmgKpgMV03xUHgXNm/iuLFBIdxJFACAhQtJegEmhBPgPu0xDPKkkKKjbgydCFjS+9ani1/1vg0giVrncxPAiSQPwFOxM2fMWvwQABzWhhIgARIgASaTYCipdn9z9aTAAmQAAmQQGUIULRUpqtoKAmQAAmQAAk0mwBFS7P7vzKt5z4tlemqUhg6MT4RTqZlIIEbv3SD6PnIeeFr+46fdADZeve3Wte3Pfxox3U1vyxH/d+UB4WoadRCYUOUPR0GMKKNACfi8oaoBIFwTsvMvBYIGHWOy/0f/c+wDYc+tlSs+tORVntM788d2iueXtYfptHLQZxrWUg7NnmsVVar0pk/kpRz158/HeaS9sj/eT6PTrWY9xA7x6feKaYy1pI7gVu+fbuQZyntGn1SbNr49bY68TmWASvH8gi79+wR69euzaPoxpVJ0dK4Lq9+g/VJuXJjsFCKzJ3dJMz0fmzVGiFmNjfTy0F217KQdnLORUIEy4X1gL1KeuZP22GyQbUReVfM7HEi7THZpdfB9/EEIDyOB8kW936qtVdLXC4pWE6e/GNcUl6vCIFLLr+iZal+EOTUe6dagmZh36Xi6tWrO1qF/XsgfBCuv+5z4f/Y10fGqeV3ZJ6J+NH3H6ZoscFJGE/RkhBYk5Pjg5o16F8aWctjfhJQCWDfmFY4NRX+2XcU0kWE3jnbqdbwvvX8an+YbuLsufD/Joesn/V9R45aN/IrmmvvBfNDkSG/eyBUEIfwxquvtMy5ZukSo2lSyCCfGpJ4TlA3vS1GvIkjW6IF42xwnalh9Zp1AvsdJOkctZxHR3a0bo4oy9CZUKK40RFw8wxs+GqHG08vAzfRz378hDi498Uwr2s+vRy8x7gkyulffqEYvucxU5K2OIxzIrimR1rJRtqKvDcN3+vEKNagghLA5ixh9JksuZmXBKIJYH8YPRxWprZEebGK3vxOt7Ms7+FxyPo5R1tGJ14vS5MEnmVStOCZMXT7raFt43tmzzSTnpO8jKa3xQ/ZlmiBYNF/Bcv3UKmuAuQ7Wx9oKezVys1hMxdiYXjotrbLuNlRN2za+fNnjVkhWC5f89k2Ne+Sz1QYypI2DGzYYUrSFrf/4MEWKzyEXYQHJnttue/xVjnTtgZiaddB8ereX1dKuMQC6lKCBQs+IaRb3/a3q2m2/Gq8S1m+ynGpi2lIgATMBL528zda3/H4cSpmRAu+f2VI8uPcXIs5FiLwxMwzTffWmHMwNoqAcfUQRApegI0AAQGBEAccD3N0jgzhzRERVLGAurZueyR8qfXaZmb/dOt3W3XB1pHtO0Kbpb2mWeI2U17Ytat16bqB+CGQA88+0VaUmt9UB2yRggVtU20Fr1sHN5qyMS4hgd9P7hcQCfJgPPyP9zI+SXEuZfXNMX582qqBiNLt0O1LYhfTkgAJJCcgh4iQUx0mks+rrMNhURZhBECWDy8PQzYCxm9deFXg4Tj+xmvivi3fDGtA58YBf3nsUJs1uDmihI76sIa3AS47vFCvDLoXRsZLhQwRAFsxIxx2y6APdbUZpr2RaXFjybHOqPSqOke6uLrU62gnbIXNqsiK4hRlC6/NEvir5VeHnhZMpsX/+vskrPS8+nuU5Tr3QebVy5B2JrGLaUmABNIRwBCRDPiBrc5nwXSEPIMcerI9z/Ksu25lG0WL2kgMfcgQB3zrCM6MnZ5ZLfNEeSHU4SddLEAsQZDgpT/Q8V4q5KGB2dneJjUd12EoS9rhcuOq3iRX0SHn6qAtajvVD9Fbv52MM5XXYwjoKz709zHZ2y7refX3acrKUkaS+piWBEigkwDmZ8qAH9iYYyKDi4e9s0T3GAw9yedF3I9c91KbmTJWtKhCAIjw0DYFVUjg4S+HeGwdZCtHlo3JsPC44KULGlUhyyWqyIcJvVIg4L0udkx2Jx0aUr1JqmdHtUmvRwosdXY6bJMiD+m5EZZOje99EMDya9PrK/PPD+OxJ4zphbplGj2/D7tYBgkUTUCdsyIXb8AGVw97Vnvlj1R97mjWcpuW32nJszrz+s3fHTGuZVeHjqBaMSdgizL5SBcevh/Spgm9Lp2JicNJblzVm6S2KcnMcIgrud7fxUamIYG0BDDvpj8QJzJgjg8C9i7Bygl8Rk0BS4Nv+8FjAp93BNVLBH+qaZWOqRzGkUCZCMCDj/mFqnBQPd552qpOBs6znrqXHetpcQWgP8xXrp09lTfKC+Favi0dJjVi+TGGrnBDJplQpXuHbHXIeFN6Oecnbv6OLAOriCBY5MTjuDp5nQR8EYB7fNnFS8PXvLlznYqV6aXYccrERCRQUgLqc0maCDFRRMCPXCw0YchGwMnTolaBX2h6UB/mUrWquwQm8ULoZce9l6tycDNgEq/cPyUuH67r3qG4PGp6fJkjYHKlENNLmSHOeiO2aoawwRJpCB0MfyVZ4RRnW5Ovjxn25rDxiJs8m6QsWx2I91VOVB1FXsP9zjk5RRJnXXkQ0Hev1ecZmurEM0Uf0sF7nB+EIJ89prx6HL0tOpHk751ES9zSZfVhDo+Lnl56IdThFP3mSWK6+isRN13afU5071CcDeoclIfuv0c8FGRQ59DA3R631v+5F37ZSsOHQBxxt+s+NwXzURaGTtQNzdxakW8qeFlcvSv5WsLSSaB7BOQcTSlC1IUcRVil119EnXWrw0m0qKtfTA9lVaSEm+gYxsl1L4Q+x0UHC3Ur69VFyUV/PXu+DCa32sqyxaMudRWQy6oh1ZuE/LryRhy8PqbddCGswAX/m/jpbed7EiABEiCBfAhgAcUtM9v3u/x4Vs8eMllkKwM/UBH0HwtJ6zfV2eS4WNGCORim5cUSmrpkGA9l/fwG+XA3eSEw/2R6yGR6PxcpMlAmBIt80OviQ32vrxaS9cXNbVE3iHNZ7qZ6k0xly3pN50uACYQc2oO2SftVsUcx0+SPIdvui8ADvR/3VVSrnM1T73svkwV2jwC+f6OG8XXLTIco6mlM723f6UnrN5Xd5DijaJGbvqneBAgSkxdBXTL8veHNHecFLb7ksvBhbfJCqEeGY8fd4cHBsC8wDBMllMI0wRwWTL5FOnhl4C1Rl1fHeU/kBnGuy93UoSH9aAEIlShxZmonBIurwGryDcq2k0AWAuqw2Jf/afYHmF4mvgfwixoBKxsnxif0JHxPAiRQAgJG0aIPfeADre5JotqtCgWTxwJjhnJZpe6FgBJVxYe+eR3qNQkl1I8JTVLcSG+NtAv5sOusLcAOKYpcDslSh4ZMXhZVUZvEGa7LpXaoV20nxKCNrc1+xudHoK6/1PEQbtq8lrTthTsfeSlc8vucsWQSSEugJVp0zwRO+cTGbS6nPONBjvT6MA6MuuqGb4gNk8es9mHFDwQIzhIaU9JBTNjcaygMdWHjOf10apfTodWdEKPqkEZjt1opVmwiB+cJSQGnDgHJMiC+sNJIFXlVPOXZ2pE1vKDuoInmbbpjqCV21eZCkKpLKY9PvVPKlTZ4CGPpslz5lqTL9CM6kuTtRtq0gqUbtrJOEiABdwIt0QLPRJR3wlakPlSip8N44NWWk5plWggQm0dFL09/n9ZuKbT08kzvXdrgYodLGlP9jCueQJKHHsT2VTfM7nsyL1gejK0ByvhLHSvW5Ko1/CiR+wyZCFdNqJjawDgSIIF6ETAOD9WriZ2tiRNanTkYAwLTw3DNYKHP+K9qq7GEO3oZ96ftTeMEVDubGl8J5yAaVoDWuMlsWoUIeNsRt0JtpqkkQAIkQAIkQAIVJEDRUsFOo8kkQALRBDCvyPf5ZtE18ioJkEARBChaiqDMOkiABAolgHk7EC5pAsRO2rxp6mMeEiABdwKNnNPijocpSSA5AT70kjPLI4d+TAa2XxgLNno0Bazkkyda47qe15SHcSRAAsUToGgpnjlrrAABPMDSLA2WgoUPve508kgw8bgtnJqafTvnIiEuDV6GMIm4I0paQxpGkQAJdJ8ARUv3+4AWlJCASXSER1QYfqmX+Vf6irlzRN+czlHgJSv6xO7XxsXJ0X+z0r/pv90rjh7u3Bk2ejWStbhCLuCwSgYSIIH6EqBoqW/fsmUpCIypD70zx9tK6Fm1Jnw/cfZcmxDYjvdH29PKjEjbzQDB0h8IFwRsLIeAPWSwpHvx2besS1uxU/OGRfPFm6cXh3lUEYc2URyEWBhIgAQKJkDRUjBwVlduAq5ehMNn2tuhvy9bKyFYpFhJYps6RGbyPiUpi2lJgARIICuBTr9x1hKZnwRIoHQE0ggWtRFp5veUDgINIgESqDwBipbKdyEbQAIkQAIkQALNIMDhoWb0M1tJAiRAAo0ksHvPntY5YFf2rxI4S04N6vWoA4KRTh62i8n3OADX5bw+5Bvfs7N1IPDqNevCQ4JNBww3soMSNpqiJSEwJq8PAaysSRvkRNRFu3eKd9ffGBZj+9tHPWntZD4SaDoBHFw6PHRbiGHrtkc6RAuECM5VQ3juhV924Jp675S4fM1n2054H30GyR4X39n6gHh176+tAmTbw4+26pYFoy7YM7J9h5Po6TCo4REULQ2/AZrafAiJwfnnRzb/3Ilw9w5j2Lb7YPgldiK4et7M4XK2vzdt+aaxDETipOWoMBas/nGdHBxVDnZ4xenTDCTQNALwrshwcO+LQtx+axuCfUeOtt5fcvkVHXhUwbLhiwMCnhKUA/GB74BbBzcK0yG823f8pE2w4ER1nAgvBdLgpo3iuoEBq+DpMIQRIQHOaeGNQAIGAlGCxZA8dVRR9WDlj7rjaxKDsWEez/FJQoxpy0QAw0FYwo8AwQDPiQz7D07/+MB7CBJ9yAZDOxAm8jrEyVAgevA/0iOgTJSjB3hhEFD3sT+8J4bveSzMp3pzfrr1u3o2vo8hQE9LDCDbZfXG1290Wx49HmWkzauXVcR7fEgxlpslbLnv8SzZC8lblJCQjUF9cR4XHw2XS5aTrgSCe52hOQTwkMWRB1mC6lHIUo6vvGjPlhnx8carr4jetWvDol8eO9SqYmDDVzuqk3NYcOHRkR1t12/59u0trwnKUefKqGIHm1Kq3/Prg7rBGGJo266DgZjpqJYREQQoWiLg2C5BbFz4yQtal8/95UNb0o545P3Zj58I3YsIJrdiRyZGFEagaMEiG1akcJHiBUIJY/y2oH6h29IwngSqQGDl2mDe2cwPJkyKhXBAkN/D+BtDNXpQh470H5goAx4UU1CFvkkMYR4MQzoCFC0puL2wa3rSlswKVS0/BKbiIFSQZ9foky1ljnTSvWjKw7jiCXRLsMiW5iFcMB/Gx5yY4nuDNZKAPwLq97Pq3ZDzS+D50EWJWrscXtItisoj02KPJD245NPz8P00Ac5pSXEnQHyoIc59jolamHQlPyApqmSWnAl0W7DI5pXFjpxxs3gSKJyA/JGIYRn8kMSPTRmyDocV3pgGV0jRkrDzcbOr6hzZt46MOJWCD41pSZ1TZibKjUDZhELZ7MkNPAsmgQIJqMM08HyrPzbD4SOGShDg8FDCblKHhr43vDn0oEC5Rw0RYcIWJnHRJZgQdoOTJxkqeqD3406kRoKhIh506ISKiWpIQJ2z8vvJ/a3N3jD0EzW8nxUFthtg8EeAnpaELOXQEG509UMQNUSEDwQFS0LQBSYvYuVO0uaU0aakbWB6EigTAXwHyyEirGKUHnOs7rEFeU0OKanpsMz5xi/dEL6wJ4sasLOuDKaDRmU+/M+QjABFSzJebTe6+iFQZ6EnLJLJSaCNQFrBgi9K/YXTnRlIgASmCWBjOD3AE24Lanqs+lTDQ/ffEz4P8NIn26qb1OnPBjnFgHMcbdSj4ylaovm0XVUnbskbXd7UuAHVvVsSFMukJSAAoZBWLPgyP4sNECvz5s7teOHLlMLFVw+xnKoTwJk/eogaGlLTY+t9bMuP5wD+V+c26mXgB63cTgDp4FFBPnhksMOuDKbl0Lp9fN9OgHNaEtwR6kZDyKaKGLyHEsduiQwkUDQBCBZTCOPlkstTU6YkjCOBxhCAmJAbu6HRcdtOIP1L+w6Ia6+5KmQkzzBSgdn2XIHgwSINDC1Jj4yaD9v6uxy42JjOcWwoRYsjKCRT3XnXX/e5jpymcy06EjGi1ASkt6XoFTxZvDzq+LkJLoTLcdMFxpFAAwkMDw62NpWLGhqSaLDTLTaRw9YV2GwOIkTuGnzT8L3W+YoQPMffeC30rmBLf5kP82RQr+6daWBXpGoyRYsjNt2rYsomh4g46dZEh3E2AlkECw5+tHlZbPUxngSaTCD0hif0iOM7Pe3u5fCm0KPi746jaHFkqQ4NwV140V/Pns6LYSHpNuQQkSPQkieDkCjC25JFsAAhljBjQmBcCM+MmnNRXDJeJwESIIFSE6BoceweddKVejAWsmPsUooWDhE5Ai1BsrHggR8ZPrY04vLB1smxEYnCS4eiyomxYeLsubji24Yt7YmDc1UupWix8+EVEiCBKhCgaHHoJXVoyLSmXy59lpOtqnZ6swOC2iWBh+LwmQzNWu++gybP/snAmVlJgARIQCFA0eJwO2DCVNxJzknGO+PKcjCJSUiABEiABEigcQQoWhrX5dkaPDZ5LFsBzE0CJFBqAljlMhaxS6yL8Vhlw0ACeRCgaMmDak3LVJd817SJbBYJkEBAgJ913gZlJUDRUtaeoV0k4EgAe0YwkAAJkEATCFC0NKGX2cbaEsA+LT/8wWOx7Xvzd0fE5BHuiBsLiglIgARKTYBnD5W6e2gcCcQTOH0myzKo+PKZggRIgATKQoCipSw9QTtIIAUBLN2eGJ9IkZNZSIAESKB6BChaqtdntJgEEhHA0NDJk39MlIeJSYAESKCMBChaytgrtIkEEhJ4eeyQMQcFixELI0mABCpKgBNxK9pxNJsEdAI24aKn43sSIAESqCoBelqq2nO0mwRIgARIgAQaRoCeloZ1OJtbPwIjpz5wahQm7TKQAAmQQJUJULRUufdoOwkEBChGeBuQAAk0hQCHh5rS02wnCZAACZAACVScAEVLxTuQ5pMACZAACZBAUwhweKgpPc12kgAJkAAJiKn3Tom3fjspsJP0JZdfIXovmE8qFSJA0VKhzuq2qTiY75qMR9bz9Nhu9yLrJ4F4Ahu+OBCfyJJi35Gj4ZUTE69bUnQnGmLlp1u/K7bc93ibAWjroyM7jOJl28OPiuGh28L0W7c9IoZuv7WV98Yv3dA6DfvcXz7saFTPR87riENdAxu+KjZt/HrHNUa4EaBocePUkQo3rAw7f/5sx3U9Qn5gtu06GF7Cw3/1mnXiazd/w/hh0fOX4T1s7l9+YSZTRp/JlJ2ZSYAEciaAHydZPufIOzZ5TIyWTLRcvuazRiGFH1L7gmuv7v115HcxxEvW72vUhdd3tj4QW1/O3VzZ4jmnJUXX7T94MLzx5AuCJCps3/ETceEnLwgVPn594IW8+BDggxSXP6psXiMBEiABEogmgO9g6fmBt+PYH94T8I7ct+WbYUZcgxcmLvzsx0/EJem4jvpe2ndAPPfCL4X0YKG+Wwc3dqRlRDwBipZ4Rh0pDjzbfuNG3cgQJIObZm9OfEhGtu8Q+DWDgJs3Kn9H5YwgARIgARJIRACeDRnUoaDhex5rfRdLL7ha8LkTk231HNz7YqJ6ZeKrV68W69euFfDKS+GCH6679+xJVV6TM3F4KEXv6zd3eCMrY51qkaoggViRY5nXDQyE3heErSMjbWOlKUxiFhIggYDAirlzvHPgPjjekRZaIH44ql4WfeIthoVsoWfh8rZLUmhAgKQNt3z79tZcmB99/+FQzDC4E6BocWcVpsTQkPoBUIeI9A+DLFoqawgVGZAW3hZZVkIzmJwESMBAYHD++W2xCxZ8ovX+95P7DTlmo/5q+dWtN+qp2Ju5k3Akt7JffOPVV1ommubq2L63kUn1tOB7HN/3WYWGKlLkpOWyMyyTfRQtCXtDHRqCm3F0xlvywq5dxhnh4WxzgxdGVf9ZV+QkbAKTk0AjCECwLLt4aautGCKw/UjAA+mOG6bTYiksgipcGgGsAY1UPSemuYS6gFHTSw8JhIspbxJ8/MGahFZ7Ws5pSchODg3hS056S1DErtEnE5WkTsK64667E+VlYhIggXgCi3s/FZ/IkGLe3LkibV5DcYwqIQGIDgzP6684U+XEXc5DjCOV33WKlgRs1aEhrLVHGBpYHf6fRH1j7T/SI+BDgElaDCRAAv4I9K3sExAfDCSgEtAn1ials3LtjWEWrPzMMrRj8/gltaeJ6SlaEvT6y2OHWqnl/BR5E+OCOnZqK1bdrAjeGsxeZyABEiABEsiHAHa9lQH7xyDAS44lz3jJOYcutWM+irps2SWPngY/fmXg1ACdTvx7ipZ4Rq0UWOUjA4Z3sMHcpjuGWnGYoBUVVMGCMU3MiWEgARIgARLIj4A6T0V6uLPUhrktWcJD99/Tyi499lnKa1peihbHHlcnziKLXDWkuvmiPhDY3EhuBw3BErf7oqNZTEYCJEACJBBDAFvwy4AfjzLgez3pME/aJcqoa+vd32pNDcBzgNv5x3Sc4TJFiwGKKUqdeAX3ID4E8qW6F02bBSFObjBHwWKiyzgS8EtgYnwiPBCPgQRAANvvyw098eMR5wItvuSycCKu/OEpr7sQU0VQXHr8mEV9cld0pJfPgbi8vN5JgEueO5kYY9ShIf2sod3BpD/pZRnfs7NtsyCo6+uv+1yrTIxhmrZvhssxrYI3GsxIEiCBVAQgdiB6GOpDAENE8G7ju1d+V6tecvzwTDJcDxEkPedJKWHxxU3D90aec5S0zCalp2hx6G11aMg0aUsVGzhfSJ1ci/1b1GAbQuLYpkNHMAkJJCCgCg+sJooLFCtxhKp9HcIFPzgxERZ9fXzqnXBpOybq6vuzyJZCnOClB6TH+UVRwXTdVk9UObzWToCixeGOeOu3k+FQEILtyw+HYckvSYgceXNic6soVyKW4GEDI3UTLAeTmIQESMBAYPPU+4bYIGoqWLGxPliuipchPB3EPf387KoOQxJG1YRAki0mokRG1DWgirteE5yFN4OixQE5bvK4Gx3eFtPwjkteBxOYxJHAV7Rt3B2zRSZ76tQHHddxxk3fHP9TwibOnhM866YDNyNIgARIICRA0cIbwZkAhrb2HZk+ndo5U8EJ+5UD83SvGOYb6YddwjzMM9KXMapDCybRAsGi1oUt4+UuqsirzoHSEWx/aFsrSp87MXG2UyDp+fmeBPIkgLkes3doupq4eVo6bswVT4CiJZ4RUygEqvJlJA/KU3dFxcZSJvv3Be27Q9s9FYJHFxS2G0EKFlkXhvxM9cj8qk1J6rHVz/hqEMjDO5eXZy7q/q0GbVpZVwIULXXt2Ya3C16PLNu4u+bVBUtS7KiHwiUpteqmV71zaIXqDcTmlLY9Q3BcCHbfxuTR9oMczwbDidXlQctJICkBipakxJieBBQCWcURioJwgfjhqcLNurXQ56o4hmCxeTjGgiHMq24IzlKaOQSS90qz7hW2dpYARQvvBhIgARIomAAES5oVg6HIoXApuLdYXZkI+F/+UKbW0RYSyJkA3PVZd15Ffv5yzrmjSlZ8GsEimwDhIid9l6xZNIcEcidAT0vuiFlBFQm4ChEpNuYF+/GkDRA+ZQiYKOoS5JJs1/Qok8u4XcgyDQmQQBwBipY4QrxeSQIQAmmFRJqdUZHHdfKuCtRVHOXdCRAgg4573OCsc4gQfdm3zcaxIC0ni9roMJ4ESCAJAYqWJLSYtjIEpAdEdaP3L7/QuM8M9mlRxYPrUmcJozW0MzPXAPFRh69lqauIDpDLxfW6ooaw0uTRy+d7EiABEogjQNESR4jXK0UAv+pb4cxxIY4GLxk+tlT87T+Yh3FGxn6TuJ3WuiLqQSVp6kpsXMoMcRNETcIFy3ZNXqaWOEM/MLQRSOuZk4WUZUiR3UoCRROgaCmaOOvLlYBp99o8Kiyqnjxst5UZJ1gwedQkWmzltVa6qMLRlrhh8fDmDNvMmAAAIABJREFUyT1aTILPhEOKwM69WkypGUcC9SRA0VLPfmWrSKAQAjYvSyGVV7wSOQypHzdhaxbFio0M45tEgKKlSb3NtpJAwQTgRbh+yWLx1Km3C665fNVh8vJmdfhSmogTqBHiTqEeJ8Py9SotKpoARUvRxFlfrgTuvOqKTOU/eOCV1PmxAmf9ZStT59/92jiXBqemx4wkQAJNIEDR0oReZhtJwIHA7yf3i8FNGyNT3rflm0LMuaiVZtMdQ9at52WicCUVvAgMJNBgAlPvnQpb33vB/AZTyN50ipbsDBtTwoYvDggsG84Sttz3eJbszEsClSVg2wvnyv5VYZu+/E/fsgpAfPbuuOtu8ebvjrRNhsYKNt+TwiEycUBjloAT1Uef2ZWlCK95b/zSDcbDKLHdweo168TXbv6GUUzs3rNHQJjHhe0PbRPr167tSAah8tOt3xX69x7689GRHZnqfHXvr1v5Uc/laz7bUb8t4ukfPCauXp2tj21l5x1P0ZI3YZbfNQIrT59s1Y1VL+dOTMbacn+WTwRWW/+/b8XWgQR/tfzqVrrxeQuc8jBRvQi4TsBVWy23/0+yiqte1NK3xnQY5ejE66G42joyIlQRoNZiyqdbYVqCLoWEKT/q3BeIDFOdKMuUR69Tf58kT1k2tdTb4PI+y1e0S/m1TQPljgDPw/A9j8W2Ezfwz378hDi498VW2oENXxXXDQwY1XZsgUyQmEDPwuWJ8zADCeRBIMuqKwqXbD0ysn1Hq4Bdo0+GogUP/FsHN4qdP3/WWji8I/jONgV8j+sB5UkhgWHVm4bvFW/9dlIcePaJ0POStU69PrVduKYO9erXLrk829w/ve4i31O0pKANASJdn6PPiPBmjBqntClulAFXrEltpzCLWUiABCpCwHVvFltzsNMzvS02OtHxmzZ+vZUAf+MHKL6L8cJ3te27HMNIat7oWkTrGQGxI3/Y9gZDMhiWkcNncXVCJLnUCZv1dN/Z+kAojPCM0a/F2V7m6zzlOUXvwGOihhd2RY/dYqxRKm7cwFu3PSLwP4JU2ynMYBYSIAESIIGSEpBHeUhhopqJ+UnPvfDL8GUTSSVtVtfNoqclRRdg/FMNcDHalOz+gwfbBEvL/Xj7rc4KP4WJzEICiQlg+AyCOjac+qCVZHhwMDZ5HpNFYytlAhLwTABz4uQKIL1ok/DAZ2N46LYwKX64fm94c+s54ToJFt40U52m+nSb6vqeoiVhz+IGUr0mcW5F3JzH/vBewlqYnASKJxC3jT8sennsUJthLnMzFgQrXri5XPH9yRrNBLAiSIYfff/htmGcKDGAeSj6KiCUg/kiph+tWJGEH7h4XuCFOSZ4wct+y7dvN6420i2G6JHCR70GD41ptZKev47vOTyUsFfVoSHceDK88ap9UzJ8EORLpof42XfkaPgWbsSoD0tCE5mcBEpDAKsUOPeiszuwdDltAFPTapW05TUt3/XXfU7Il5ybKJcg+2SB7/Tjb7wWihr11HfUifq33v0tn9U1piyKloRdLYeGcJOrSheKPS5gqAiTvvC68JMXtDw2WOPPQAJlJ2B60OLhGbd8su007LI3siD7IORMPOOql4KFQjCOlPt1CAoM28f9cMQKIHjN9Zdp5ZBaO7wwEC/wjuC5IQUMvDbbHn400lAM1+r14X2VV/9ENtjhIoeHHCDJJOrQEGaSI+AmlENELkVJZS/T4qZsqpvPhRfTFEdAfRDKZbWydn1TMxnfyhOsZtFXxNAjEN13uvDARmcCL0PA1gpS5Oj5DMkZFUHg3F8+DK/KVUMYusGQUdz3MOZ8xQkbWa0+DwX5UD5euIYfrQgY+hkK5jfaAoZsXeu0lVG3eIqWBD2qDg3JXSyxJE0Kkbgb/6K/np3oiP1akA83Lf6O2h8ggYlMSgKZCNgeiLZ4VCavHTfUHJXPkLzWUTgwcWyO5tw+M0utZ9WasP0TZ8+Jvpl08u9wJtHRTsK4zpCOAIb35Xc3POVxoiVJLVhRKvdJ0ee8QITIH7soM2qZdZI6m5KWoiVBT6sbwz10/z3iIS3v+J6dkTc+btaWqtZWD2HoyHVGeQKTmZQEUhFIKjaSpk9lVA0yuW65f/jMbGPVv2uAoDRNgEhRPeVxPzqTGK4OGWG/FHUTUXU+I8qkJyUJWSEoWhx54UZTh3b0YR4UgzFKfXdc5JOTdDEOqd6gqpcGrl+KFsfOYDLvBIxegJhapn/l4+wCBhKoJoEk3hZ4xfXtLmSr9bOH8D2POTBy51sMB8m9udRnR3gAaUSAtwaixxSauikpRYvpbjDEqRvIyZtPJsMqILkMWlfrqpsQ81fU8UucqisDdrhkIIFuEnD1AkgbIXToBehmj7HurASSelvk97xer2k1l/wBu23X9F5d+g9dCBb9R65eLt7b6jSlbUIcRYtjL2MDORn00zkhVLCEDUEfIlLdhFDq2KAIh+XBnS7X/GM2uc/xVMcmMRkJkAAJNIIAdqBVt6hQG43v81tmtqzQV+XgPVb9xAU9n0wPUXLT8LS3fWJ8IozG5NqoM+dwzaXOuGEluSpVnyAf15ayX6doceghdWgIXhb9ZlEFB1T18D2zhSItJmLJSVnTQuXxtlpxTDgDCZAACZBAPgSiht7xHd0bzG8xhahrpvSmOFmG6w9TH3XCDtf6TDaXOY6ixaF3cDKnHBKyqXUM/ciJuvpscKzTh3r+6dbvhgdlYTgJyxuxjDHusEUH85iEBEiABEiABBpBgKLFoZuh0q+OOLIcRYRzVSLW20M9u4xfOpjDJCRAAiSQG4FwDsXA6kzly92+MxXCzCRgIEDRYoDCKDMBTCQbfcZ8jbEkQAL1IWA6Y6c+rWNLqkyA2/hXufdoOwmQAAmQAAk0iAA9LQ3q7KY3FSu3ShMWXF0aU2gICZAACVSFAEVLVXqKdiYmMD5vwWwe/P2ZZbFlPHjAflp3XOYVc+eI9ZetjEsWXu/ckN0pGxORAAmQQKMJcHio0d3PxpMACZAACZBAdQhQtFSnr2gpCZAACZAACTSaAIeHGt399Wv87tfGu9qoLPVjW3wGEiABEiABOwGKFjsbXqkggW4++LtZdwW7iiaTAAmQQGICHB5KjIwZSIAESIAESIAEukGAoqUb1FknCZAACZAACZBAYgIULYmRMQMJkAAJkAAJkEA3CFC0dIM66yQBEiABEiABEkhMgKIlMTJmIAESIAESIAES6AYBrh7qBvWK1rmw79LMlocnyDKQAAmUmkDWz3oVPudT750Sb7z6ili/dm2ivkC+F3btCvMs7v1U4vyJKitxYpWDi5nXDQyI3gvmh0l379kjjk+9E/697OKl4urV7aeKR12naHGhzTQhgWuWLhH9yy/MRGMLRUsmfsxMAnkTgGAZGmh/iCStcyz4rsCp8GUMeCCO79kp5EnW5/7yYSIzbx3c2Grbhi8ONFa0QLgNbtrozO7YH95rSyvz4n47/sZrrWsQQ9df97nWez0fRYsz8vaEACuDVI9JisqaP0ldTEsCJEACTSaA79uf/fgJMTx0WyYM23f8pLRiLFPDUmSGlwmiTQ2qUNWvqeng3cJ1pIdXDlw3bfx6mAT9JMN9W77Z8s7IOIoWlaTj3/gAXPjJC8LUukp0KULNj/RJlb5LHUxDAiRAAiQwTQBegayCBd/b39n6AJHOEIDw0IfWej5yXngVgmTnz5+NZPXoyA4xOvMcBVeIFjDeOjIS5sOz9abhezvKoGjpQBIfIcczkRIqEe5GvfOiSrl8zWejLvMaCSQmgBOmGdoJcIdi3hEqATnshQehOsTjSgl58H2Pcro1ZwfPmh99/2Fxy7dvT/TMcW1jkekwQrF12yOhmJTP0YnxiRbb7w1v7vCywD6KlhS9tGv0ybZcAO0qWrY9/GjXbvgUTWWWihAYnH9+RSwtzszNPMupONglrwmTQOXwQxpT9x882BoW2v7QtrY5F2nKS5JHDm0d3Ptiy4aBDV9NUkRp037t5m+0PGCb7hhq2QlhaOsvLnlO0Z36BDPpzoorCjdfVhdlXB28TgIkQAIk0E4gzbxDtYQv/9O3wreYY3HJ5VcUghdCaevd3wqnIuC5oT53MJ+kDkF6W9AWeFukBwteFlugp8VGxhIP95wMqmsLgiTugwH3IoKcoKSLH0uVjE5I4CuB16HfYbhkLPgl/tSpD9pKf6D34061jQT5OPzghIqJSKDSBKR3HL/+h+95LJx3kWdA+abhKwimlWtvjPXqY1KrPhqg2lu2oaWh229t+zGP56PNy4J2ULQkvPswnoiAG1h1bWHGM+Dbgpx1jnyYgCQFjC0940nARuC8bf/ceSkYG2ZoJ2DkpEHC5/Hd9TcSHQkYCaje8Vf3/tqYxnck5kzKH7S4PzEc5Tr9ALZAsET9IF69Zl2i8ny3Ty8Pz0Y1wHZ4mfS9W2QaihadYMx7eTNgzxJ4VuSyLYw3CotoUWedDw8OxnpkYkzgZUcCfSv7xLy5cztSnz5zRmAeUly4sn9VR5I3f3dEnDz5x474IiIW7d7J+VBFgGYdJDBDQC6agHiQS3HPnZhs8dl35KiAJwY/YOM87a5Q1aEfDJdgrgeeN64ekrj5LvheLFOQK7LUCc4P3X+PuNqy+oiiJUHvqUNDuIEQoFohZPCyDRGps86jvDEJTGHSGAI2wYJsEDK4Pjb2G2spJsGCxNi9MQynpqx587hAwZIHVZZJAnYC+D6Xcyzwv2k+oozH90lvwp11bTXDq4IN1fDcgChCHaN4Bc8YPNghYOCtt4kkDK1EDa/Y6u1GvLowBRsayk0J0VbbqlyKlgQ9JYeGkAUPPtzUCxZ8olWCaYgIaaR3Bm4+03iojLPdhAlMZFIPBMr2S8RFsJi+UD2gYBEk0FgC0pNuAqAOv8DbbvLomvK5xqFuuc8Jhk/gjZATVSFgBoIhpKoIE1ub8dzT92S5KUgs926Bh0ndKVeWQ9FiI2qIV2/Ua6+5qiOFaYhInbuibk2sZsbscJfNeDoqZEQuBOK+gOBt6Tt6PJiIm0v1bYW6CJb8rWANJNBMAqYN0sIfojObohXxvS09J5jngWET9TlU5V6RIxBoA7ws8ke7ulMuPDH66ARFi2Ovq0NDtixRQ0S2PIwnAZ0ANorrmzOzG8E/fF2s+tP0OTBjk8dq84Wlt7mo9/hCVM/POvSxmeG+wAB9JVlRNrEeEnAhgImpmOdh8ta75C9TGnUEAkNe6s636k658CDr84UoWhx7Uh0aeu6FX7at1VfPtNCHiExKHVXe+KUbWg8gbuPv2AkJkqG/MB5sCxgX7lm1xnhZ7slgvDgTmeeKEwiWtiXbc5dP1xqIFobsBHoWzvAMiuqfKQ7L3xmaQ2BauLafm5Ok9XLbCsxpLDqUeRqB5BJ3sC6ekypDtU34G8u78SMNASdxq/OFKFoc7zj5AIQq1JefqUufTUNEjlUwmUcCcgKbrch9wYW/7VwcJLAyQE6+s+VF/KLgladwiaqb10iABLIRwH4raYM63yRtGXXNZ/uRrrc3HPKxrLZF2qj+4Y64Ok3DewwNyQcZfqHrATcxxAyCHCLS0/A9CZAACZAACZBANgL0tDjww7bNWIIWFZJuPIRxu0ejCuQ1EiABEqgogaih2Yo2iWaXhABFi0NHuIwhuqRRq0qa3sHM3JPwiyh3xKyABLpOAF5l7JfBQAJlJEDRUsZeKalNcpOjkppHs0iABDwRqMuyWk84WEyJCFC0lKgzaIo/AnJ3RVuJmN1+yHARK0vkrHbD5VbU5KXXine54iQKEa+RAAmQgHcCFC3ekbLAMhDAaahX3dB57pC0DecPHbJs43/HXXfHNuGRX+0vZHO5WEOYgARIgAQaRICrhxrU2WyqHwIQPAwkQAIkQALFE6BoKZ45ayw5gThRcnzqHTFx9lzJW0HzSIAESKB+BCha6tenbFFAAMIC4sMmQHDdFibGJ6z5bOXZymI8CZAACZCAPwKc0+KPJUsqEYGTJ/8o8ApP4e79VJtlECy4FhUgXEynPbvkjSqX10iABEiABNIToGhJz445K0BAipc0pkK4MJAACZAACZSHAIeHytMXtIQESIAESIAESCCCAD0tEXB4qZoEnjr1gcArTdg89X6abMxDAiRAAiRQAAF6WgqAzCpIgARIgARIgASyE6Boyc6QJZAACZAACZAACRRAgKKlAMisggRIgARIoPoEpt47JfBi6B4BipbusWfNJEACJEACXSAA4bHt4UfF4ksui61dpu35yHniwk9eEL7w941fuqHxAmb7jp+ELPQXuIIPrpsC2Ms8SKcH5JfX9TI4EVenxfdWAjhIEAcNZglb7ns8S3anvF+Zf77onzsnNu1YcOChPmH3gd6Px+ZDgpFgou9hHpjoxIqJqkVgYd+lAgeOZgnbdh0UOBW+TAHi42c/fkIc3PuiSHKK9eVrPmtsC8oYDQTMsT+8J3ovmF+mpnbdFvT9KF4BI2w7MXT7rW02fe3mb4jhodvCOKRB30iGECny3sG9uGnj19vy0tPS9e6lAXkTwAZz2Cgu3GguRTBtMpeiGGYhgcYQuGbpklK1dfeePaGHBA/KJIJFfYDiRxsECl73bflmq30/3frdUrW1W8aAyXMv/DJ8bd32iIDgQABz8FcDBArSyHDr4MbW39/Z+kDr7+0PbWvLhzcULR1IGFEXAlKsLLt4qZg3d65YHOyM6ypekE6+kFf+nVb41IUp20ECVSSgHtuBh6t8oLq0BWIFr0dHdoTeALyG73mslRVepbIEXRwUaddfLb9arF+7NnzBs6IKjvE9OztMQRpwRZDeFl0koiw9ULToRBzfR43H6UXA9aWP+anvXcZV9TL5PpoAxAVECgSHDPhbipco8QGBItPK/Gre6Jp5lQRIoGwE8F0ADwC8JBAcrp4gDE3s/Pmz4cs2BORaVhFMNt0xFM7TKcN8m0suv6LV5LHJY8bm3/Lt21vx8FjtGn2y9R4i0RQoWkxUYuJUNSsVYlSWt347GXWZ13IgoAsWtQopXGzVqkJHT4NrUYJHT8/3JEAC3ScgPQA24ZHEQvwI3Xr3t1pZBjZ8NUn23NOG80mCeSIYDouaDJu3IS/s2tWqYvWadcbq0C/S24L5jnLoDt4wW19xIq4RZXTkj77/cFsCTO7SJxqpCdSTgdEZcKOpAQ9YhuoQCIeZjh4PJuJWx2ZaSgIkkI0AVrzIyaOyJMzL0CeKZqtlNnfc0mrTQx1DMng+7TtyNJzMGk4WDl6YJwKPkBzi8mWjWg4m3Mof9Di3TWWFibe2AJswoVkGDN3dNHyvLbmgaLGisV/ADaEGzEYX2uxo9bo6norOMN1s9tp4JQ0BjKHaXJIoL1wF9bGlxqIfuv8eY7waOXnptbFpmIAESKDeBPDdPxU8kH1/p0OwwFMSFc795cOOy9KjhAsQEG0CJhAx+4KVUMffeK0jn48IXdDJMke2T88FiqoDQsV1tRlFSxRJwzXcCBIuvCbSpaUu2dKzQYHKgJtbKmjfN7peb5Pfxy253HfkUvG3/9ApWs6dmHRaXbAQwnX9jU1GzLaTQKMIwFuAF4b7Dzz7ROu7vz+Yi6FOzC0LFDmJtT/4AbelS8vPMY/INJlWZYSVQ6pgwd9Roxec05LwDpNDQ7oLC5BtIfTEzASMMcoNijBhSt84x1YG40mABEiABLpHAD8y8bp69epQpKhzMXxbhXrk8mrb/7Y68cMac26w2OP66z4XiisEPLOGBwdt2TLHw6MC7w+Eigz6VAq9EvyAl/NYwFNdJm0bHqNo0SnGvJdDQxgfxI0lb1xVmEQVoe4RAEU5uGljuDMjAwmQAAmQQLkI4LsZPzRNu7bmbakUSbb/TfXjh7AqVJAGzygICQwLRc29NJWXJk6dXIvnXdQybHV/FqwkUpdJ2/a/oWhJ0Cvq0JBcqiVnRUetIkJa3DgYToJq1tUoxgJtqjKBeUxKAiRAAiTgkYAcLsb3u/rjEt/X8gdskj1fPJoWW5R83mC5dtwQTWxhCROoS5lt3haMMqheFjkfR/VgmQQPRUuCzlDhyzXo6m6ptiEidAZuHLgU5TwWxKm7KnJZdIKOYFISIAESKICAuooFPy7hcYE3A0P8ch7G94Y3F2CJWxUYAYBXBT+M1eeNW25/qVy8LerOt6rIiRM8FC0J+kldNSQPzYIrTgbXISKZXl36/ObvjiSwhElJgARIgATyJoAfmS/tO9CaawHPgDppNM8lz2na1g2vis3OKPEBr5XkCM+K6gmKEzxcPWQjrsWrQ0O2LHKISHpTkA5uRDluh02I1DX96qoi7tVio5ouHr849kVkjdrFMs7diw/bu1w5FEGXl0ig3ATuuOtuoT5Uo6zFxFvMB8EzAPuPIMDDDm+7+l0fVUZdr103MD1fBu1Td8DFe4gPdVKuyuDK/lWta3o+pMPeLbe8+kqYRb9O0aKSjPhbHRrCLGlVZGBPEDlDG7sA6psNyXE7eGrQybjRIWa2joy0atQ7JsIUXnIggC+kO5Qt/PUs2PBvZOw3erToWbhcPP0D+0ZIyCDz6idEdxTGCBIggVISgBBJGuSci6T56pw+nCRsOB9Itln1oKgc4vhHlcvhIcc7Sp10BVEib2D8r457qmcnoGjAl6dZ4hc6jjmXy56leyxqy2JH85isQALYLHDi7LkCa2RVJEACJEACIEDR4nAfqENDpmEFCBM5pGBaRYRlZnLSLYSK9LygaoznlXFjIgcsTEICJEACJEAChRLg8JADbgzdyLE52zDO0z94LBw2QDCNc0KYwCPzRjBOh3FRHLonh4ocTChFEoit0WdKYUqsEWAsT2vWE6Of5Ni0fg3vXx47JDDmykACTSSAH1bd2kG1ibzZ5mQEKFoceEWNr8nscWN0SCfLsY3zOZjCJAkImIQLVmmpE6BtxZmEi2teW5mMJwESIAESyEaAoiUbP+YuOYEoj0qc6RAuDCRAAiRAAuUhwDkt5ekLWkICJEACJEACJBBBgJ6WCDi8VE0CWNkzcfaDWOMPnznbkWbkVHw+ZDLl7SiMESRAAiRAAl4JULR4xcnCykAgi6DIkrcMbacNJEACJFBnAhweqnPvsm0kQAIkQAIkUCMCFC016kw2hQRIgARIgATqTICipc69y7aRAAmQAAmQQI0IULTUqDPZFBIgARIgARKoMwGKljr3LttGAiRAAiRAAjUiQNFSo85kU0iABEiABEigzgQoWurcu2wbCZAACZAACdSIAPdpqVFnsikkQAIkQALuBKbeO2U84NZUwu49e8TxqXfCS4t7PyWKOEMO9r2wa1erThzYazqQV7cX+XA4L+yFrXH5ZHqUE5dWr6vo9xQtRROveH0L+y7N1AKcIMtAAiRQbgJ1/pzjAf2zHz8hDu59MTi1fpc495cPIztj/8GD4qH77wnTqgGMXt37aycREVmB4SJsvHVwY0edSLrhiwPi0ZEd1nq3PfyoGB66raPUqHw/3fpdseW+x8M8z73wS9G7dm1H/rJEULSUpScqYAdu+v7lF2aylEfeZ8LHzCSQOwE8jIcGVmeqZ2zpEuMDN1OhGTPDU/Kj7z+cyC6Ihy//07eE/LEFNvJv/H/5ms/mIlxQrvoDD9+9UjSF/weCZufPn+0gsn3HT9oEi2pvVL6ehcs7yiprBOe0lLVnaBcJkAAJkIAXAniYX3/d5xIJFlQMb4cUDyPbd4jjb7wWembu2/LN0C5ck8M3XgwNCoGtsk7Ug/ogUPA/xAsCBAhEmB6+s/WBMApi5dgf3uuw15ZPL6fM7ylaytw7tI0ESIAESMAbATz0IT5ch7+kdwPpN238esuOm4bvbf198uQfvdmHgtTyrrrhG21l3/Lt21vvJ8Yn2q5BxEixMzw42DZ8pNoLb1OVA4eHqtx7tJ0ESIAESCCWwHUDA6HnQU5i3TX6pBh1mF+H+R0I8+bObasDk1yLCAeefUJcvXp2qA6Tf21zcMb37GyZ1Leyr808tBtiDQETc6sc6GlJ2XuLL7lM4HXjl25IVALU8Na7vxXm7fnIeUYXX6ICmZgESIAESCCSAB7aLqtu9EIgEvBShQPSqN6Kr93c7g3Ry0j6HuVJTxAmx+JZgSEjzK+JCmOTx1qXsQJID/AU4VXEqie9bp/vKVpS0JRuuP+/vbMP0au69/2uPYQSTi5arU1z9Q9JC40hqSci6ZhIvEy1OTKWa5pzpWhsGKStIDHecRqV+8eBC2l1nGMaBNuDDGljKZ7GeNHBWm3AkOg0FL3WECO0wUI8abS1CcdLKHIa7/Pdk/VkzZ79+uy99utnwcPMs/d6/az97P3dv/Vba8kUJ/Nh0sVkipBY0biqLkTbyWqAKpAEAhCAAAQqIKDZOWbYSD4ng4ihuGorP81KMsJFz4rRzZu8yy65yH9J1mymLgdEywC9HxwT1PS5pCDBYqaUKa4udpnrwhRxUl6chwAEIACB8gnY04klKsa3P+6kEhIucvoN+t9ILF239lpP9ehqQLQM0PMHjx2fk0rz/eOCTHtGsMgRTGOruthlqitapcfVg3MQgAAEIDAYAXs6sQSLrCGug54REi96ZpgZSypT67CktfC7rmPZ+SNaMhK3PbTt6WdxF5CcvhR0oZtFgeLiZ6wS0SEAAQhAwCEBDcloiEbBCBZXL5wSR/rYU5pVll50JyZ/0G9l0MJvr6EV5igs64w+yrvJAdGSsffsoSEJEBOCF5A5LnFixj/X9hZcUjw54Gp8Ug5WXTbzZURPdAhAAAKlE5Bg0ZCMgmvBojK01ooEkvwfg+HLq68JHup/XzG8sf9/cDq02iDrjD5/OvpKZB5NOMGU54y9ZIaGZGWR+tVFLEcpf4ho65Z5udmKV+LFCBhFVDqz3PJYSNp5mXEAAhCAAARKI2BWxDUF7np00v83aCkv0uqiNVbMc0G+kFpjRfmrTG0nYEJwWrNmBZnnkdLrvI5JsGhVXxNscdM/aP0TFDzZ6X77AAAgAElEQVR2nDrMPEK0hPVaxDF7aGhkw61+LC13raXpzSyipItX8/7lfKtVFI25UReYprklpY2oFochAAEIQMABAXtFXGUfZv3Q8ai1Uwapkp4FE1NT/kutfCHtCRwmP4mTMAEhUWXqGFZX+cWEpbPrGbZvkc6rTPnXVB0YHsrQA/biPVqsSMFWrUnLOWs8UheMxIkcrOzxybAxyAxVIyoEIAABCLSAgJ4PEgcSGBIKwaDjUU7Aer4cOPhqaDo9b1zNdgrW0eV3LC0Z6E5On58frw2tgkEOt/ZSz8HzF1/86TmH7O9my/NgGr5DAAIQgECxBMI2GwwrIW28sLR5j0lgjPdGg+yhqDTWeC2EJ9GjdHoZlmU/KZ3cE5riooBoSXllaVzQXhAubHG4sCEiex2WWQeo8/tX2HtMNH1p5ZQYiQYBCEAAAhkIJAmOqKyUbknP8tK2wPBQyh7VHhAmmIXhtPCPPmbqs84Hh3l04RgTn8YmbdWscUsTWGQuZUcQDQIQgAAEOksAS0vKrreHhoLjgl/4/NL+rCBNiQ46OtnOURpW0tRnBWOtMTORUlalsmjBRfUqqwgFQwACzgjovnTo3D1q0EK4VwxKjnRJBBAtSYR65+2hIduqYpLam2nZU5rNeYkYWWfMnkP27qLKz17vJUV1Kouim1manVErqyAFQwAChRAIu48VkjGZQCAnAURLSoBmW29ZVcKCpjIbZ1oNAQXHIWWd0Xx7LS6nNV20eqFmHgWtMmF5cwwCEIAABCAAAc9DtKS4CmRJCW5NHkyWRnxIyPge2iwkF8THdwhAAAIQgEAiARxxExERAQIQgAAEIACBOhBAtNShF6gDBCAAAQhAAAKJBBAtiYiIAAEIQAACEIBAHQggWurQC9QBAhCAAAQgAIFEAoiWREREgAAEIAABCECgDgSYPVSHXqAOELAI/Pz0Xz19FD77wp4520cAKh8BrT9ir0Gi1arfW78xX6akhgAESiOApaU01BQEAQhAAAIQgEAeAlha8tAjLQRqQkDbzp99/6h3waXL+HuOw/jYPTXpHaoBAQgURQBLS1EkyQcCFROQYFHg7yyHiruD4iEAAQcEEC0OoJIlBCAAAQhAAALFE2B4qHim5AiBwgj4TqK9jxxy9X/U38IKbFFGH4/9b781cczea1F7aQoEukAA0dKFXi6ojWE7XGfNmt1jsxKbjW9muET9HSzXbqSCWbZ+1oyqtUsvz5YoEPvgsePMestF8HxibcD75uuveStXXT1vI96CimhUNoiWRnVX9ZXV7tR5wt5n86QmLQQgUAaBvL9z1XHvkd+WUdWBynhh3z7vyOEjnpy1z/7t49R5SED87Mc/8Wb2v+SNbLjV27zp9tRps0ac3LHTr58dJCi/P35faLlq0003fmVeMXrZzFJXO5+Htn3HG9/++Lw8qzyAaKmSPmVDoCACU+fWdSkoO7KBQOsI2IIjq8VXD/InHtsxZ40fCQFXYeMtN88py5Tzfk8Ijm7e5H3wwV+8sa1bUhVv1ib609FXUgkQtdOEbQ/9MFWaVBUpKBKipSCQZAOBKgm8deajKounbAjUmkCUFSJNpS/45CfSRCssjupqRJWsJDundvvDQq/MzHhf//Zd/rCbLDDLVyz31g8Ph5ardHfevdU7eeKP3v0Tj/hpJEAUkiwnGtqzg+oTVU5o4Y4PMnvIMWA7eyl9mfzMRxcDAQIQgAAE3BLQw9sEDXlomCVrkBAowq8vqVwNW5lw73cf7PuxrBka8nY9Otk/Z8cL5jm07gZfaGj46vX9L/fbK+Gi51BU0DNJAscOceVE5ePyOKLFJV0r7127n/Quu+QiXyGbj8YfJx68q6QaUAwEIACBbhJYvORz3vMv/sr3X5GlIYujsRZufPfPp7w9zzzn+4aUGX596DdzipMQUV30+cY370hVFVlpxkdH+3HlkxMVzNCQRJ3EncLE1FRU9EqOI1pKwC5lq3FIE6TWjdKX8pXlhQABCEAAAm4I6GE/6BCHfEf04C8r2GJEL7jyb7Gt8qqL+aStk52nnIijghkakqj7zLI1fjRZXuo0KoBoieq9Ao9vGT0vWIxiP/nmG33hEvQQL7BosoIABCAAgQYRkCCZ2rW7X2P5t8gqv3jlVb6AiRveydNMe2hIFqUbR0b62dVpiAjRkqeXU6Y16lXWFVuxj40M9XOQkxUBAhCAAAQgIF8UveDaPjSyeEjArFp3ve+UW3Q4vG9PP0sJFj2rTPlx1pmi65GUH6IliVAB541jU3Ac9dDRd/u5f3jmTAElkQUEIAABCLSBgESD/GgkXuSPYwSEnieaRZTF4vLO20cTkUxOzwoh47qg/M16PRJLWcpLLCxHBERLDniDJlXnR83DHzRP0kEAAhCAQPMJaJhGH2NNkXiRP44EjHGOlXCJc6gNUrBfijWzKBhUlnm51l9NGtHHTJNW/CzlBfMv8juipUiaKfLSxSjznpRrGdPnUlSJKBCAAAQgUBMC8l/RR9aUYLj25nQzhoLpNt871j/05dXXBE97rz4XPaPIRK7LEBGiZV73uTtgHKpUgkx+ZU+fc9cycoYABCAAgSII2MNAwZml9hToiy/+dGJxsuprWQ1jRVHeWu8lGOyhIQ1F2R9Tn7oMESFagr3n+LvMe1rsp8wpdI6bRPYQgAAEIFAQAa2Aa/xKNLNUK/LKnUB/zUxTnbdn9wSLNunsIR6lUd7BYA8Nye/STA83f+3hpDoMESFagj3o4Lu5APVXCxsZwaL9IwgQgAAEIAABQ0DPB73Y2u4DZll/xdHxrC++cS/L9tBQmPU/7RovZfUgew+VQFrqVTueykQnc50RLfYYobYdJ0AAAhCAgHsCWh5fe/NkDbJuaOhEweU928wc0vPizddf8/cQUjBTkcPqrfqYupnzOpZk1ZefzPPDGyPbpPTBfMPKL+sYoqUE0jKvGaX804kHPF0k8uY2x6Scky6sEqpJERCAAAQ6QSDMryNNw3WfXhKxSWGa9FnjZCkvS1y7HmlYDLqacNb2pomPaElDKWccLQOt/RtkafGnkJ3bbdNkGzbOmLNIJ8klsvY+6yRrMoUABGpCwL9P9T4ECNSRAD4tJfVKcIxSxcrCcuDgq1hZSuoDioEABCAAgWYTwNJSUv+ZMUoVZ/u1lFQ8xUAAAhCAAAQaTwBLSwVdiP9KBdApEgIQgAAEGk8A0dL4LqQBEIAABCAAgW4QQLR0o59pJQQgAAEIQKDxBBAtje9CGgABCEAAAhDoBgFESzf6mVZCAAIQgAAEGk8A0dL4LqQBEIAABCAAgW4QQLR0o59pJQQgAAEIQKDxBBAtje9CGgABCEAAAhDoBgEWl+tGP9NKCGQicOXCBZnip4n81pmP0kQjDgQgAIFIAoiWSDScgEB3CYxe+Kk5jb/44k/73/909JVIKBdcuswz8T744C/z4t2HaJnHhAMQgEA2AoiWbLyIDYFOETAi5AufX+q3+/6JR/yNP8OC9tK697sP+juYmxAmXsLScgwCEIBAGgKIljSUiAOBjhIwYiVL8xctXOgt6okciRdESxZyxIUABJIIIFqSCHG+T0Bv0quXXZaLyLaHfpgrPYkhAAG3BC5d/iVvbGQoVyGHjr7r7X12OlceJIZAGAFESxgVjkEAArkJyOKyfMVy78jhI7nzIgMIFE3gxKnT3s9+/BNvbOuWVFlP7tjpzex/qR/3zru3euuHh1OlzRLphX375vxmTP1emZnxfn3oN/2svvHNO7zg5rvBtMFy9XuMq7NhYrdzZMOt3uZNtwezmvM9mE4vtyuGN8aWFZthzElESwwcl6d0Acp8HncBuSyfvCGQRODLq69JisJ5CDSKgB6ub77+mvfEYzv6lqAk0aI0q9ZdP8+XS5akickfpBY9aUHZdVMaI04efXj7HOuVjgeDXhDGx+4JHu5/l7U86pkjURaWVu2UL9vr+1+eJ5KUcRifvc/2TvSs6g9t+443vv3xyPoMcoJ1WgahNmAada4ujI233Oxdt/Za/4dDgEBdCdhvdXWtI/WCQBoCuvdOPHiXd9klF3k33fiVTENXW0Y39QWLHvoSKhpCU9BDXtYNl0EiS+HgseOJxciSojrqYwdzTFaTsLBr95NzBIvEhtpp8pHzvTiEBVvQKb7SGj5yB9Azr8iApaVImhF56aIOqueIqByGQGsIyJLI0FBrurPRDXlxetob1J/O+Obogbznmed8DrJySAAp6N4eZb0oAtrhfXs8DbVGzdqzy1A9TF0Wr7zKTyMBYeodVZ/pvU/1T73751PnLSq9oTO9ZIuBPhohWDN03t9JzzZTL5vPbePnrVMSdmFDWVF1STqOpSWJUAHnESwFQCQLCEAAAjkIGCuJHspBS0RUtnpImzC07ob+//IlMdaENBaQqPzTHJ+cPu/LYspMk66oOPLdMZYaezkD5W+PFmi5AxPEZ3x0tP9dorGogKWlKJIx+czOuBnxjOPWBZ/8RExsTkGgPgTMEFEW/xYsLPXpP2oyS0COpEnOpGGsgg9pE8cWM2ksIGF5Jx2TQFm79HLfwjExNeVH16yubRHrJCXlF3degsxYlDQMtHNqd9/aYltv4vKwLTCKp6EqE2YXpYx35o3L2z6HaElLKke8oh2RclSFpBAYiMDvfn/MT+dPhY2YDqsVcRWPtVkGQkyihhCIclh1UX0jJswwz2eWrekVU/yyERq+kTBSOf5QUG/oS9YV+cDcODIS6oCr9sZZmVauurqPRFPgiwqIlqJIkg8EWkRg6vRf57bm9InZ7wuuiG6l0ph4gVjsOxSNjTPNIHD2/aN9/w490PXAdmVlMURsa4WsLq6ChnM0O0hWFmNxMX4ssvhoqCdplpWrugXzRbQEifAdAhDwEBlcBBCYS8A48pppzr6DqoOhGrtU28FX7gUnT/zRWbdIuMhhVzOtfjrxgCdfGokyfcxU6CzC5Z23jzqpK464TrCSKQQgAAEItImALA4HDr5ausXBOA27nKFk95PvRNtbW+Xkm294z7/4qznTuyVo7BBn/bH9gfKupG6XiWhp06+KtkAAAhCAQGEENNXYBA2RBJ1Ndc71jB5ZP87+7ePC2hTMSEJEViN9gmuqSCilnQUUFDS2VWjWFydY8mDfES2DcSMVBCAAAQi0nMAVX1zWb6G9tL0e0Mb3I87a0AQ8sqwY/xUzSymq3ouXfG7OKQ1ZmaAtEeygVXRNkDNvUQGflqJIkg8EIAABCLSKgB7oGp7pP9R7q+pqTx17fZKoVWarAGHvPWSchPXXWFCi9h6Sn478VhRXi9LJumL2DbOX9rdnBKl9+i5Lk/F7kbATDy1WZ8oXv+AeSXnYIFry0CMtBCAAAQi0moDWLDl4bu8h3xnX2qleD+RB1n9xBSxq7yEjPFTfMN8YOdhqdpTaZzve2vWc2nV+7RZzXGLk6R897n3923edny5t7e4tQSN+RQZES5E0yQsCEGg8gSsXLkjVBnuGVdo0ypiZWanwOo1kr26bVJA9HdisS6IhIeWRZTZNUjnmvLHchDmvanjGOOaG5Wf2Hgo7p2NxViE53xorkr3+itZmum38e5HWEvn5mOnSZfBBtET1rsPj5qILuygdFltI1kUuElRIhcgEAgUSkPgYvfBTqXLUGqVGgCxfcIG3OqXYue/MR6nyryqS3rQP5VwTJG7RsaraZZfriw19UgYzHThl9FzR4lbvTVqdNul8UsUGTV8mH0RLUi86OJ+0eZWDIgvJ0jieFZJZgZlkectNWyxvw2lJtTvexRd/ek4D0672O2i6utCs62+9LnyoR3UEEC3VsafkggjYb8b2w2J2v4voQuxpeMGHUd3fhqNbxZmiCOha+sLnl87LLnitBCPIRG9PlTXrVSSlC+bDdwhAYD4BRMt8JhxpMAGN+ZoHhqbcGQ/2YJM0RHfvzbMPJD1UeKAECXX7e5RgMSIm6npROluwiKL/vXddRqXpNmlaD4FsBFinJRsvYteYQPANN21V9VCx9/hIm4547SQQJVhMa8OsLzqnayjqHNdYO68VWlU+AURL+cwpEQIQgAAEIACBAQggWgaARpL6Efjy6mvmmeWz1JI34Sy0iAsBCECgGgL4tFTDnVIhAIGaEpAD9+jmTbG1e2jbdzxvwRVz4my+dyzSh0oRtdCWvY9LbAGchAAEQgkgWkKxcLBpBH596De+T0HQCbJp7ah7fR9Z8l+cVPG+E//hJF8yhQAE2kUA0dKu/qQ1AxLQDCItgU3IRkBOq2YTtcP79vjLgIcFWRl2PTrZPwXrMEocgwAEkgjg05JEiPONIaAHoVkTozGVbnBFzWwZWbf0SVot2cTDf6jBnU7VIVAxASwtFXcAxRdL4OSJP3one1kGt1APK0UCR/EJ2QmErUeSJRcjXLC4ZKFGXAhAANHCNdB4AlOn/3q+DadPzP5/7IT33vqN3md73/RX4bMv7On//3Tv+9EDrzW+7VU1II0oTKob/kdJhDgPAQgECSBagkT43jgCcfsEGcGiRtn/63tcusZBoMIQgAAEOkAA0dKBTqaJECiagD+sZm2ZMEj+v/v9sUGSOU9zwaXLPH9Kc0xQHM+28PXiajrz2fePxqTiFAQgkJcAoiUvwQ6l1349eQO7x+YlWI/02kcn7xBRXffi8ZfxX31HLGhNsQ+G2Sn31wQP9783aYZa3t/6wWPHY9esiYTECQgkEEC0JADi9FwCq5ddlgvJ3mdzJSdxjQjksbbU1cpSI7yVVUXT0/P+zlX5vUd+W1kbKLi9BBAt7e3bzrTsny78VOFt/XnA9F94AS3I0FhKNFtLYfZBF22Ns4VKXa0saoepW9Tmh1GCK07EMVOtBRc8TagFAURLLbqBSuQhsHrhgn5ymfZNmN77VGS2esB+Ztma/vngQxTREo7u0JmP5p44YyRL7/DfL/UuuGZpeMLe0eePW3EjY9XjRNzwV/BaMTXuH+/5+gSDBE1UumBcvrsjcOLUae9nP/6JN7P/JW9o3Q2e9ixbMzTkrsBezqZM4+8kf6hvfPMOb8lFFyaW+8K+fZ4WbdQaSKpvXDqV8+L0tJ+nhm7XDw/PyV95mSUeJMhdtzuxcQNGQLQMCG6QZMELUGPgwQtrkHxJM0vA90Xo/RhNiB9XH/HuvXk2rlmQjodK8pXUJTE3yBoyuoa4jpKvoypiTO7Y6Y2P3dMv2vjXTUz+wBvbusVJlYJlmkJUj7hyJUBWrbt+jl+Q6qt0chIf3/54aH3NnlnySbKfLbt2P9nfT0vDf6/vfzk0fRMOIlpK6CVdgFtGN3m2E6r5P+4CLKFqrSpiUMdQf72Q3psJD5tWXQ4DNUbT4A8tyL5Q+JGPzvbKC1ihBqoBiVwQ0EPbFix6qJuXGnO8aOESVqbalqZcW7AYp2iTTltlyFqTtr56/tw/8Ugfq7bTSGPlcdEPReSJaCmCYkIeSReghik2b7o9IRdOxxHIu0Kr8lYeCJc4yt04N4g1SWLnrTPd4NPEVtoP7Xf/fMp/aNvWDAmXtCIgbftNmcayYYSCyr3skov8bMLKldh5/5wTs/1SG6xv3FCRXUe9MNv5Nd26n/2VIm2PEc8nELwA9zzznKePbZ6L870AYzoCUU6T6VJ7/t45g1pq0pZBPAhAoHwCetibh7asFkY86K/W1jHhlZmZQitnylSmtmVD/2toSHXRR/Wzg/08sIeBlG5s5Lz/zTtvJ68JpOEpY9VXWVHDSoU23HFmiBbHgO0L8Nqbz6/9oAtQClxBZj9CPgJslJiPH6kh0EUCtuN+1KywQbmYYR2JF4kHO8iqY15gbUGjOLbICJZ92/j3PFmK9Lnii70FDmOCRJgZ+tKzZufU7pjYzTmFaHHcV7owz/7tY/8T9NY2Snzt0ssd16L92bPDc/v7mBZCoEkE7rx7a7+6Eg+LV17li5egZcVuU9w5xZPAsT9xPL7+7bv6p5/+0eON9mOx29lJ0aILQzN5qgy28h7ZcGuVVaHsHoEmrVZKh0EAAukJ6CFvrB6yYph7r54Dtq9L+hzTxZTvyPMv/qpvUddLqsSL/Fk23nJzrHhJV0J0LLXTHp5qkyW6U6JFF6kuFl00N934FV/5yufEDhMP3uXp4zJIMNlmO5xwi6GNtaUYjuQCgbYRCFo9LvjkJ/zngP1gd+HTJuFy8s03vKldu/vCSWwlKlR+0X40Uf22+d4xpyIpqlwXxzslWn468cCcace6YDWvXUJGF48UuKaTTU4X65Bld5zKkWBSaPp8eRcXZN48JVy0L0zaNwvFU/xB1uTIW1fSQwAC5RCQeJBwMH6EplRjgdF3f+kDR0EvpnIVkC+KvRnnow9vn1Ni0L8lT3VUjilLzzo9/9oQOjXl2YgRmex0EZuFf6R67TVUbA/tIjtZlp7r1l7rZxmcBldkOV3L674T/zG/ySd6wnP9xtnP/LPe071jTz9T7RBhSLU4BAEIOCIg4aCPsW7Ix1AvrAq6Hwd9DvNUQ2UYQSIrj5lmLFGiGTxa4dY8d/RcsMWK6iKRETZBQ1b6Jx7b4VdNjrVRIsfMFFLeehFX0F9NBimynXkYDZq2U5aW74/f5081MxeQPLgPHHx1jvpWZ8tDu+igi0frtZigKc9RF1zRZZMfBCAAAQjMEtBDWx97OrA99bkITrLgGlGS1YprJmZIuAR9LyVYgi/ZcfXVM0bPPBOClp24tHU91ylLS5jviC5ejTkar20XQsIIFjN+KqHkopy6XmTUCwIQgEAdCMiHUQtIau8hY12XZaPoheX0YmwsJvJf1L5DK4Y3+kNQGo62yw4+C2SZMefli6IVbBW0B5E5rpfrYLoovmqbaa/SS6wV3d6osl0c75RoiQOY9gKIyyPsXFCwaIxR6wEE1wS4cST9RRhWDscgAAEIQCCegNmbx8TSw9/V+iWyppvV0P0hmnPDNHYNNRU5GCR49JxQGr3oGh9IE2+QNVdsISQRlXY13WDd6vAd0eK4F7Trpu2hPju+ODvGaBctJ7EwS5Dj6mXKXir94LHZBfEyJSQyBCDQGAK6X82+2w9eZfueN3guxac0jrgagrF9TYovaXZNFQkX7So9MTXVfw74lp3eyrZyQ4h6WZbfi7Z30eKkcyxCCelM+7SLvR2MEDJ+nXLKberquIgWF1erlaem0ZkLKa4oF9Pt4sob9Fxdb0aDtod0EIDAfAJt/Z3LFaDMIFGioZhBhmOM43Da+qqsuPZJpIzPnayUNutaxUO0OO4OM0/fcTFkn5PAlQsXeOuvWpEzF5JD4DyB428d8QbZfBGGEIBANAFESzQbznSMwA2LFnSsxTTXJYGXrlzuea++5rII8oZA5wh0aspz53qXBkMAAhCAAARaRADR0qLOpCkQgAAEIACBNhNAtLS5d2kbBCAAAQhAoEUEEC0t6kyaAgEIQAACEGgzAURLm3uXtkEAAhCAAARaRADR0qLOpCkQgAAEIACBNhNAtLS5d2kbBCAAAQhAoEUEEC0t6kyaAgEIQAACEGgzAURLm3uXtkEAAhCAAARaRADR0qLOpCkQgAAEIACBNhNAtLS5d2kbBCAAAQhAoEUE2HuoRZ3puikbvjbiBbc8z1rmtod+mDUJ8SEAgRIJaFf6sZGhXCUeOvqut/fZ6Vx5kBgCYQSwtIRR4RgEIAABCEAAArUjgGipXZdQIQhAAAIQgAAEwggwPBRGxeGxE6dO93NfctGFDksiawhAAAIQCCNg7sNNuAfnqWuetGHc6nAMS0tJvfDCvn3exltu9i675KL+Z/HKq7xdu58sqQYUAwEIQKC7BPQA1z34gk9+opR7sO7v5jO5Y2cfvOpgjuv/qKA0wbpOPHiXZ7/4hqV9ZWYmtJ0qKyqtjtv1Dfs/Km1YHVwew9Liku65vHXxjY/dM6+k94/81hvdvMn74IO/eGNbt8w7zwEIQAACEMhPQA/cVeuu93TPtYPLe7Bd1sz+lzyvd49XPeY4KC+9PLRxYc8M5bet95mcnvFe3/+yF2Yl0svxTTd+ZV6eSru39znYYxCVNshmXiY1OYClxXFH6CI1gkVe+c+/+Cvv3T+f8qZ27e6XHCZoHFeL7CEAAQh0hsDPfvyTvmB5aNt3/Huw7sUm6B7s0pIgoaL8X5xOnlEl4RF8Zhw4+Kqn2ZsKEhdqT1jYfO9Y/7CeMWqn0qrNSWnFQ5+JyR/081A6czxMJIXVwfUxRItjwu+8fdS/2PT5/vh93vrhYV8hb950e/8iVBVc/mAcN5HsIQABCNSagG/pOBduG/+efw/Wvdg8zHVK92qX4c3XX/Om9z6VWMQTj+3ox5FVRPVcMzTk7ZyKf9HVM8RYS/S80TNG7VTa8e2P9/OcmJqaVwfDQ2VdfPGn++c/s2yNX74+dQmIFsc9oQtmzzPP+R9dRAQIQAACEOgOAWMhObxvT39oyBwLo2CGj2SZt60b+t8WWfJdyRJkcZHV5OkfnRcwWdLXJS6ipaKekAnQXJy6gOtieqsIB8VCAAIQcEbgzru39vP+6cQDnh74ugfLP0RBAkEvmC7C0Lob/GzNwppxgsUuf22Iv8sFly7rR/nd74/Nqa6eISZvPVvkTKs2mqD2GavNnIQN+9I50WJm8ciTWjN3gsMyupiDx4rqU5Utb3B9jLOULjLb7FdUWeQDAQhAAAKzBOyhIImH69Ze69+DNZwiwaJhGJdBZZgwsuHWgYuyh27CMtGzxJSltqmNet7EzRwKy6fOxzolWoxntVSoPpq5I49yI1L0VxezpiWXFQ4eO15WUZQDAQhAAAIhBFz7s9jbItw4MutQG1KN3IdkbZEA0zCSLZT0vNNzzZ56nbuwijLolGgxDk6ybshDWp0qNarOlBKVgFFIa77L2mdS+/LmtmcPqXxbOGXNk/gQgAAEIBBPQA9rMzxjzx4yzwC9rLqysKtmK4Y3+hUswxVAwkWOtyfffMP3YbGfZ5qVZA8ZxVOr59lOiRbTBXKK1booUjcp9D8AABcQSURBVKT2GKDxvL73uw866y1dUPrIKddMLVO58iwnQAACEIBA8QTMjBmJFD3QdQ/WS+SuRyf7hUVNIy6iNipLzxrjW5PGwh4WR2t6mbB4yefmVE2iy3zMCZWr551elE2wZycV0bay8+iUaFHnnf3bx33GunB1TGpU6lsfeVgX6ZBlVieUJSeocO3xyZMn/lh231MeBCAAgU4QMC+kYc6tZQHQsybN1GHzIq06B60/9tTtlauunlN1iS6z4nrwWaNnnRkumrO4XVmNL7AcVsTtwdSFlOZiGoT7h2fOzFkB0S7HnrMfVM2DlEUaCEAAAhCYT8AMA5lF3vQQV7CtDklOrvNzdXNEs42MsNBMJ7PGiiaOxM04Xb5ieb9Capf9rJH4McLN9nVx0wK3uSJa3PL1Lxz7B6NpaFL7ttqVsnYlmopu3qGj7xadJflBAAI1IqCH26GQ6bZZqhg2tJElfdFxx0dH+6vMyhqhe67qaD/IXTrIZmnPN755h6fhLNVNfjhmWrapq/IKm3GqZ4jaZSaamGeN3U6l1SKnwSBRY3w67XI0WeX+iUf86FHL/wfzcv0d0eKa8LnO3jK6yb+YdEFoDwgTdJGFXYAlVCtzEU03K2ZuMAkg0FECbfuty4fx7PtH+864dvv0UqkF14z1peouVz0kEMxeSbaISKqrhqC0qaLETvBZo3bJjzJqkVO7HJtB1PGqOCFaSiBvfGfk3/LrQ7/xS5Qp8gufX1qo/0wJTaEICEAAAo0koGEWLeGvSQ9HDh/x26AhFVdWbrO3UdD3ROUaB+BFCxeGstQzQ7N/5Jti11V5JYmrsHbqeSNLUlxaey+msErFpQ2L7+oYosUV2ZB85eBbpJNvSBEcggAEIACBCAJ68C5x6MNoFxsnhuLOBfNIG9dOl7WdJn4Etlod7tTsoVqRpzIQgAAEIAABCGQigGjJhIvIEIAABCAAAQhURQDRUhV5yoUABCAAAQhAIBMBREsmXESGAAQgAAEIQKAqAoiWqshTLgQgAAEIQAACmQggWjLhIjIEIAABCEAAAlURQLRURZ5yIQABCEAAAhDIRADRkgkXkSEAAQhAAAIQqIoAoqUq8pQLAQhAAAIQgEAmAoiWTLiIDAEIQAACEIBAVQQQLVWRp1wIQAACEIAABDIRQLRkwkVkCEAAAhCAAASqIsCGiVWRb2C52hY9b6jbNud520N6CLSRQN7fOr/zNl4V9WgToqUe/dCIWqxderm3etllueq67chvc6UnMQQg4JaABMvYyFCuQg717hV7n53OlQeJIRBGgOGhMCocgwAEIAABCECgdgQQLbXrEioEAQhAAAIQgEAYAYaHwqhwDAIQgAAEWkHglZkZ79GHtye2ZWjdDd7Y1i2J8YhQLQFESwX8T5w67W0Z3dQvec8zz1VQC4qEAAQg0H4Cv/v9sVT+NXn99dpPsh4tRLRU0A8SLDipVQCeIiEAgc4RuHFkxJvatTu03dN7n+rfi1cMbwyNw8F6EUC0lNwfMlUiWEqGTnEQgEBnCSy56EJv86bbQ9sv0aKgGVPrh4dD43CwXgRwxC25P77+7btKLpHiIAABCEAgSOCFffv6L5DfH78veJrvNSWAaCmxYyZ37PS06JJU/YavjZRYMkVBAAIQgIBN4InHdvhfdT+OssRArH4EEC0l9Ymcb8fH7vFL2/XoZEmlUgwEIAABCAQJ6H5shunzLqQXzJvvbgl0TrTIp2Tiwbv8z67dT86jq4vZRVi17no/W1lYGDt1QZg8IQABCKQjYM/evG38e+kSEasWBDrliCtBct3aay3wP/Tun3jEe33/y56ctRQuu+Qi/+/Zv31cWAdJHJlhoZ1T4V7shRVGRhCAAAQgEEnAtrLoJdLc+yMTcKJWBDolWoy61him9tE5eOy4LyZkBZGJ8NDRd/3OybtZmN3D+oFIGCnI2YsfSK2ufyoDAQh0jIBtZbn3uw92rPXNb26nRItEioKxrEhQSLBIuNgb+RXpSa4fiNnxVOLFCBh7F9TFK6/yRdP49sebf0XRAghAAAI1JaB7vnkOyMqyZijfxpA1bWarq9Up0XLyzTc8XbTG2qG/OqbhGzNf/867tzrzOYnarl3HtSsqAQIQgAAE3BF4cXq6/xI5suFWdwWRszMCnRItohg2PKPpbq6mvEkEhf04ZHExIkarNS5e8jlnnUzGEIAABCDg9S3dTHNu7tXQOdFSdldFzRTyl4/uWVgUXAmmotsqs6oxrRadN/lBAAL1IKCXqbyLMkRZlatsoZkQoToU6QJQZZu6WDaipYu9PmCb63gjGrApJIMABGIItPG3Lmu22YNI+xERmkkA0VJRv0UNG1VUHYqFAAQg0GoCUVbvVje6hY1DtFTUqfyAKgJPsRCAAAQg0FgCnVsRt7E9RcUhAAEIQAACHSeAaOn4BUDzIQABCEAAAk0hgGhpSk9RTwhAAAIQgEDHCSBaOn4B0HwIQAACEIBAUwggWprSU9QTAhCAAAQg0HECiJaOXwA0HwIQgAAEINAUAoiWpvQU9YQABCAAAQh0nACipeMXAM2HAAQgAAEINIUAoqUpPUU9IQABCEAAAh0ngGjp+AVA8yEAAQhAAAJNIYBoaUpPUU8IQAACEIBAxwmw91DHL4Aszd/wtRFv9bLLsiSZF3fbQz+cd4wDEKgjgZMn/uhNHDvRr9rkdVfXsZqF1+nS5V/yxkaGcuU7OT3jtXGn6FxQSFwIASwthWAkEwhAoG0EFi/5nPfWmY/6n7EDr3kSMoRkAmuXXp4ciRgQGIAAomUAaCSBAATaTyAoUCRgCBCAQLUEEC3V8qd0CECgpgRkaSFAAAL1IoBoqVd/UBsIQKAmBIKWlppUi2pAoNMEEC2d7n4aDwEIRBHA0hJFptnHT5w67e3a/aS38Zab/Y/+JzSHALOHSuor/TiigmbkjG9/POo0xyEAgQoIhFlanj9+0htl2KiC3iimyBf27fM23zs2Z2bT0LobismcXEohgGgpAfMrMzPe3menI0s6eOxLPdESeZoTEIBABQR8S8vhP8wp+een/+rd1JtBhBWmgg7JWaQEy003fqWfi1nCYfmK5TlzJnmZBBAtZdLulaUfSjDkXfskmB/fIQCB/ATCLC35cyWHKghoSEgWFgWtQ7Pr0Ulv/fBwFVWhzJwEEC05AaZJ/rvfH+tH2zm121ty0YVpkhEHAhCokECYpaXC6lB0DgIvTk/3h4S+P34fgiUHy6qT4ohbQg988MFf+qUgWEoAThEQKIAAlpYCINYki+m9T/k1kZVFYlQ+hotXXuV/JnfsrEktqUYaAlha0lDKGefs+0f7OegHMrP/Jf+7hoVuG/8elpecfEkOARcEsLS4oFpNnsanUFsL2H4tqs342D3+PXnPM89VUzlKzUSgc6JFY5s/+/FPfEhywCpjXPPQ0Xf7naIfiAl7n/U87cVz4OCr3pqhfHt9ZOp1IkMAAokEsLQkImpkBPkV3nn3Vn9LhvsnHvGHjSRq5KhbxvOgkdBqVOlOiRYJllXrrp8z3U0XsO1nInOhwsk33yismzSl7uCx435+46Ojvlh64rEd/RlFX//2XYWWV1jFyQgCHSaApaV9na/hIduioj42lpfD+/YgWhrQ5Z0SLVtGN/UFi8SK1LU+B3tCRmJCwzhS3bqwiwxjW7d4+thBil7jqipfZWpaNNaWIqmTFwTyEQiztFy5cEG+TEldKYHgRo4rV53fudu2iFdaSQqPJdApR1xj7Xj3z6d8ta2/EigSDRq20VCNgrzLywgjG27tF2PPMCqjbMqAAATiCYStxTK+dAlrtMRjq/VZ8wyodSWpXCyBTllanv7R7KqzZgaP/r6+/2VPFhh7+GbzpttjoWU5qSEpTbdT+MLnl86xptizisJukFnKIS4EIFAsgTBLS7ElkFtZBIxlXS+ouiebZ4Dxb1Q97JfIsupFOdkJdEq0hA2/6OJ17TU+unmT3zP64ayxPNTNLCKdW7RwYfbeKznF7HBayYVSHAQqIhD0afnFV7vhLK8H+7bep01BjrdmBpH8Go07gLGuy+J+48j8hT/bxKAtbenU8FAVnSZRZFbB1Y9Gfiya9mz8WVQnX8wwe6iK7qFMCEQSwNISiaZxJ+RDODH5A7/eQXcAHZMVnjW0mtGtnbK0VNUlmp0kZ18ztc4oftVHCl/nCRCAQL0IBC0t9aodtclKQJMhvvHNO7yfTjzgGadb1srKSrH6+IiWEvpACl5TqLUFulmZUcVqKrR+RCj8EjqBIiCQkQCWlozAGhBd99rx7bO+jQ2oLlUMIYBoCYHi6pAcfIt08nVVT/KFAAS82VlCgV2e4QIBCFRLAJ+WavlTOgQgUFMCWFpq2jFUq9MEEC2d7n4aDwEIRBFgGYIoMhyHQHUEGB6qjn3tSi56JeCsDXxv/casSYgPAWcE2mpp0e/ss86opc/4vfRRiQmBPgFECxdDnwCigYsBAucJtHn2EL91rvSmEmB4qKk9R70hAAGnBNpqaXEKjcwh4JgAosUxYLKHAASaSQCflmb2G7VuNwFES7v7l9ZBAAIDEsDSMiA4kkHAIQFEi0O4ZA0BCDSXAJaW5vYdNW8vAURLe/uWlkEAAjkIYGnJAY+kEHBEANHiCCzZQgACzSaApaXZ/Uft20kA0dLOfqVVEIBATgJYWnICJDkEHBBAtDiASpYQgEDzCWBpaX4f0oL2EUC0tK9PaREEIFAAASwtBUAkCwgUTADRUjBQsoMABNpBAEtLO/qRVrSLAKKlXf1JayAAgYIIYGkpCCTZQKBAAoiWAmGSFQQg0B4CWFra05e0pD0EEC3t6UtaAgEIFEgAS0uBMMkKAgURQLQUBJJsIACBdhHA0tKu/qQ17SDwd+1oBq2AAAQgUCyBoKVl7MBrmQp468xHmeITGQIQSCaAaElmRAwIQKCDBHxLy+E/9FuOCOngRUCTa0eA4aHadQkVggAE6kAgaGmpQ52oAwS6TgDR0vUrgPZDAAKhBPBpCcXCQQhUSgDRUil+CocABOpKAEtLXXuGenWZAD4tXe79Adv+P6+92rth0YLY1C99+JH3L69mc1yMzZCTECiZQNCnpeTia1fcL746lFinqUP/1/v56b8mxiMCBAYlgGgZlFwH0xmxsnLV1d6Siy6MJbDy1Glf2CBeYjFxsuYEdM0PGo6/daQVD3CJlUULF3prhpJFi+KNnjnD737Qi4Z0iQQQLYmIiCACunmPrRtKFCuGlkTNkuFhT+JFAasL11ETCSRZFOPa9NKVyz2vwdbGKxcu8NZftcJb3/sdpw1G2CyamfGOX/ipVoi2tG0nXjkEEC3lcG50KVkFi91YiZfJ//6P/iGES6MvAyrfIQISLJPXXZ1JsNh4jHi5/D1eWjp02ZTSVBxxS8Hc3ELyCBa71RIueUztzSVIzSHQLAKDWFjCWijhot99HmtVWL4c6zYBREu3+z+29UUJFlMIwiUWNychUDkBI1iMdbSICsnP5Z96Q0UECBRBgOGhIii2NI8sPixpETBUlJYU8SBQPgH5sBQpWNQCM1R05JcHPFYVLr9P21Yilpa29WhB7XH5ZqSbot7oCBCAQDcISLj861ev60ZjaaVTAlhanOJtbub/9uB9TiuvN7q3GjyzIg5OcFGyw4su9lZ8+IEX/BuXhzmXNU0wvvmeVNag6ZRvMK3LsgYpL8hS31ntdn4vaTi4aCuLXcoVX1zWe1nB2jKfPEeyEEC0ZKFF3MII6ObYlnUsbCgSLH86+socTv/yn//13Pc/zPn78N/9eyTPXQuuOGdKn5tGFqrNH70TmS6qLFnOrvl/x0LT/ebvl/amps4tx/Nmv5dZx7iyVPHZemrhsrl1TUoXZKmH8+JQEhx0SUAzCWVtWfvMPpfFkHfLCTA81PIOHqR5DN0MQs3zwgTLYDl1M5VECQECEIBAHAEsLXF0OnruyD9/t6MtH7zZRw4f8c6+f3TwDEgZaQkqGo3WC9LCZ6Or/6HorBubn+uhocaCoeK1I4ClpXZdQoWaRkAWFgRL/l7D0pKfITlAoO0EEC1t72HaB4GGEIjyuXFRfW3qp839CBCAQLMIIFqa1V/UtmYE9OB7/vjJmtWqmdUp29KCcGnmdUKtu00A0dLt/qf1EKgNgTItLbVpdE0qIj+fsf/zi5rUhmpAIJoAoiWaTWfPLP/nhzvbdhpeHYGyLS1qKdaW6vqbkiEwCAFEyyDUWp6mjKW29VanB0YbwpGPzrahGZW3AUtL5V3gtAInTp32vtVbyp8AgTwEEC156LU47f/Y/oinm4yr8MIbh11lXXq+yxfwMyoCehWWFtVbohOnXM/Tb9LlENE7bx/NtfeQ2cC1iGuNPJpLgLttc/vOac1dWkF0YyzDmuMUEJkXTiDO0iJB48qipWtReb/04UeFt6lJGbr8Tb4yM+PtfS/fS9ANixZ4WlWX0G0CiJZu939s6yf3zxRubZFgkdMfAQJBAlpuPy5EPVTj0p1fwj8uZ88X0dpWouvBlbXlwzNn+N13/eIqqP2IloJA1i2bDZ+90Mu7U7PERdHCpY2CRVapqKGNpAdq2HWjvKIe0Do+SFlxVoo4q1pU/V3UMarNYYzsY3Hp4s4F88XaMive9Bt9YV9x+wPJysLwW/Bq4/ugBFjGf1ByNU+nreB9c2xOq4YRGWPrhnKbZl2Ol1fdHb4oCOydo2NxD02d27XwCi/oExMnItROnT8Sku6tGMfmqLL8ev9n9LBIVLqkOirfIz3Lid22JB5qm0RSkIeOx4kunY8Scl4ME6Wzg99XPb+OG667Oniqc9/HDsxaQ9cPD+dquxkWSrpekgqRP8vKVfRLEqcunEe0dKGXc7Yxj3CRM6+sNQpttLIYtHrgvXUmO+gy05VdlmhkZTJoHfM+FO2ek2+L/Ce6HNQPEi5ioR3ZswYjVorayR1/lqw90N74iJb29q1/431h4YLYt/20zTeCQ3nqjSfJIU5i5c3XZ296TRErgzhiJlkA0vIlXj0IGGuLd9WK3BVquo+MLyB7llr95hctXOjJepsUJFbkv6LfUlN+90lt4ny9CHzi416oV5WoTZEEXDi+ylRrv4maG5oRKqo/N60ie5G8IFA9gV98da5oMS8vRqiohvJdKdLqpTzlm3fPf1uTSjRVT4kauCaAaHFNuOL85VAnM6//Buko6KYyuvofECqO+JItBOpIwLy8uLy/qAxNKkhj5akjI+pUPAFES/FMa5ejC2tL7RpJhSAAgdYROHjLMIKldb2ar0FMec7HrxGpNZRzZc+3hQABCECgKQR0z7rii8uaUl3qWRIBREtJoKssRtMW1xfgWFhlGygbAhDoFoF//ep1iQ7/3SJCa0UA0dKR60DTFmVqJUAAAhCoOwEsw3Xvoerqh09LdewrKVmOuf/4y9l1UyqpAIVCAAIQSCDw7w/cjZUlgVFXT2Np6VjPa6goOHWxYwhoLgQgUGMCCJYad04NqoZoqUEnUAUIQAACEPA8BAtXQRIBhoeSCLX4vBaFWvtMcRujtRgVTYMABBwT+Pjh/+W4BLJvAwEsLW3oxQHboAWbGCoaEB7JIACBwgjIwkKAQBoCWFrSUGp5HCwuLe9gmgeBGhLQDKGX7vmWX7OkvcxqWH2qVBEBREtF4OtUrPYMeufto36VGC6qU89QFwi0lwD+K+3tW5ctQ7S4pNvAvGV1UUC8NLDzqDIEak5A1hUtGqeVbrGu1Lyzalo9REtNO6bqahnx8q1fHnC62WLV7aR8CEDAPQGzUzNixT3rtpeAaGl7D+dsn73tvMvdXHNWk+QQgECNCJgdoE2VFi1cyMaHNeqfJlcF0dLk3iu57raAKbloioMABBpEYOWqqxn+aVB/NamqiJYm9RZ1hQAEIAABCHSYwP8HjR7ZFyhS0hYAAAAASUVORK5CYII=;" vertex="1" parent="1">
          <mxGeometry x="135" y="30" width="557" height="786" as="geometry" />
        </mxCell>
        <mxCell id="DniHUGlrfKImg_ZBEnJM-3" value="" style="shape=image;verticalLabelPosition=bottom;labelBackgroundColor=default;verticalAlign=top;aspect=fixed;imageAspect=0;image=data:image/png,iVBORw0KGgoAAAANSUhEUgAAAWoAAAFpCAYAAAC1TGJNAAAABHNCSVQICAgIfAhkiAAAIABJREFUeF7svdmPHUmW5uexMxgMMrhvySQzK7eqysqq6a4ZtVpQawBhJL3MfzAv+gv0pld1C9KLBC2PAgRoAGEwQA80kqYw6oIwrZ6qrq6tKytrma7KfSGT+xZk7Hvo+33Hzr0el0Eml2DEvZdupIf7dbf1mJ3Pjh07ZjZQNa6hQEOBhgK7TIHNzc16ivv147yuP9R1VNdf6/rVwMDALueqe5Mb7t6sNTlrKNBQoB8o0AHKFOmwrtd1/X1d/76uP9AFUAPYX+i6q+tXuhpXKNAAddMUGgo0FNhRCnQA85AiP6HrG7r+qFzv6H5a18g2CQPiL+var3gWGqk6KNQA9TYtpXnVUKChwONToAOYxxTyJV3f1oW0/O/pekvXMV2Po8s4IH8A9RFdC7oaJwo0QN00g4YCDQUemwLbqDEmFfgVXd/VBTBzf1XXwceOdKtHJHCA+oyuy08ZR98Fa4C676q0KVBDgZ2jQAcwIxEz2femLiRlgPk7upCg9+1cqo4PsP7bHYyzp6NqgLqnq6/JfEOBnaVABzCjQz6l61u6Ur/8TT2f1IXk+7wcaQLUo7pWnlcivRRvA9S9VFtNXhsK7DAFtjGTAyD/ni6k5X+gC+sM9MW76Q4pMfIxpfzdbCYUGx31bja+Jq2GAntKgW30y1PK0Gu66mZyF/R7Yk8zGtYgmOshWd/c47x0RfKNRN0V1dBkoqHAzlOgA5gHlUKayaFfRpWBmRyTdqgYus2dU4a4ftttGduL/DRAvRdUb9JsKPAcKLCNmRwgXDeT+7p+YyYHaHe7w84aqRpd+Hq3Z/Z5568B6udN4Sb+hgLPgQLbqDGwP8ZMjmXYaSb3NT2j7+1FlwtfDqqs0y+6nroB6l5swk2eXzgKbAPMaSbHhF+ayTEBt5NmcntJ53ElTnlQ10zvZUa6Ie0GqLuhFpo8NBTooEAHMMOnTKy9rSvN5HjGTK6feRigxqb6ww7yvHA/+7mSX7jKbArcuxToAGakSSbS6mZyb+g3UvSL5NCxA9YstNmy3d6LRATK2gD1i1bjTXn3nALbqDHQI6NPTjM59MwXdKF3fpEdE58A9YRoNvci66kboH6R2aAp+65QoAOYsbg4rgsLjFyGjZncWV3daCa3KzR6SCK5QROAPfcQPy/E6waoX4hqbgq5mxToAGbAN83k0C8Dzmz5CVj3gpncbpKuMy1UHpjoQb8vOj++SL8boH6Rarsp63OhQAcws6oPMzk2w8caA3XGa7p61UzuudDsCSLNDZp+8gRh+s5rA9R9V6VNgZ4nBbbRL7MPBhN9aSbHBCB6VSYEG/fsFMA8D6kas8OlZ4+uN2NogLo3663J9S5RoAOYWSWHmRw7yKWZHDvL8a7hpedTJ+x3Tcd3RHVx9UWdUGwa1/NpXE2sPUqBDmBGisNMjj2Xczc59mJmcqtxu0MBMAqgpjO8ujtJdl8qDVB3X500OdolCmyjxuBUEszk8rQSzOQ4reRFN5PbpRp5aDJ0loD1ew/10ecfGqDu8wpuitemQAcwY1GA5QXn+aWZHBsYYSbHuX+N6x4KIE2jp+Ygg9Xuydbu5aQB6t2jdZPSLlOgA5hhcsy8sFlO/TJmckxWNWZyu1w3T5gc+2YjVR9Snd5+EfXUDVA/YYtpvHcvBTqAGTM5pDDM5P5YF+oMTiuB6RvXWxRghENdsrfJ7d7K+s7ktgHqnaFjE8suU2Ab/TLbYmImVz+tBL3m/l3OWpPc86EAEjU21b97PtF3d6wNUHd3/TS5KxToAGbM5JCuMJNL/XKayaHiaFz/UQC1FVI1aqqN/iveo0vUAPWj6dN83SMKbGMmhzTFZB9qDBaXMAnIbnJMCjau/ylAXTNCmlTbuP+i6akboO7/Bt71JdxGjcEiB8zi0CsDzGkmx/vGvZgUQIUFUGOpc/9FI0ED1C9ajXdBeTuAGYmYBSRIyPXTSpCgGzO5LqivLsoCQI355CddlKddyUoD1LtC5hc7kQ5gRofMwaXolNNMDl0zZnLonhvXUOBhFACkAesXzjVA/cJV+fMvcAcwM2RlEojNilBjYJWBmRxWGo1rKPAkFEDtQVvarza28CLpqRugfpJm0vh9gALb6JcB4Nd0AcgAMwB9QVdjJvcA9ZoXT0iB3KCJicWFJwzb094boO7p6tv9zHcAM6oKVBas8KubyWFK1ZjJ7X719HuKmOah+qB9fdnvha2XrwHqF6m2n6KsHcDM5B56wvpuchwpxWRgYyb3FPRtgjwxBfIggZ8/ccgeDtAAdQ9X3k5nfRs1BkNNTivBPC6XYWM2xy5zjWsosBcUYKETUjVCw/JeZGAv0myAei+o3iVpbmMmh+6P/ZbrZnIs3WVf5sY1FOgGCnCkGUA9pfZ740WZUGyAuhua3i7loQOYqXvM5N7Wxab46Jh5RmJpzOR2qU6aZJ6YAsx9YPnB1qc3njh0jwZogLpHK+5xst0BzJzhhyRSN5NjEyPO/GtcQ4FeogCjPK7f9FKmnyWvDVA/C/W6KOw2+mW283xNVy7DZrvPC7rY/rNxDQV6mQKMBJGqwa+1Xi7I4+a9AerHpVSX+esAZsyWMJPDAiPN5NggHzOm0S7LepOdhgLPSgFs9XODpukXQU/dAPWzNpldCt8BzIAvZnLsJpf65TSTa04r2aU6aZLZMwowuQ1QM58yvWe52MWEG6DeRWI/SVIdwMzhqpjJ1U8r4RBWZsAb11DgRaQAQI1N9QcvQuEboO6CWt5Gv4yZHBN9mMlhv8wCEyZPmBBsXEOBhgKh1gOsWWi12e8EaYB6D2p4GzM5TI0wjcvd5NJMrqmfPaifJsmeoACrYQHqA+Kn2X7XUzdAsAttchszOaRjzOTQLyM1Iz0jRTeuoUBDgcejANZLADWAPft4QXrXVwPUO1x326gx0COjT66fVnJBv9E7N66hQEOBp6MAKg9M9LBs+vzpouidUA1QP2NdbWMmx565WGDkMmwsM7DQaMzknpHWTfCGAh0UyIMEftzvlGmA+glreBszOXp0bJbTTI4tPwHrxkzuCWnbeG8o8IQUYO0AUjWT7ItPGLanvDdA/YjqOnHiRHXjxpbtBNCLXdCVZnJsjo9ag1WAjWso0FBgdynALo7oqQ9LgFrs5wnFBqhrDWsb/TL7YDDRVz+thIbRmMntLkM2qTUU2I4CbB4GP7Kk/Op2Hvrl3QsN1B3ATKWz0qnTTI5G8ELTqV8ae1OOvqQAFlSA9S/7snSlUC8UAHUAM8tQqeT6aSXsxYyZXHNaST+3+qZs/UQB1iCgp2b709V+Kli9LH0L1NuoMdBnoU/O00q4syybU0wa11CgoUBvUoD5IQSuQ+L52/2qp+4boO4AZiRiLC/e0sVucqz4Q3LGnIcjfBrXUKChQH9QALPXPEjgdn8U6cFS9CxQdwAzwx7M5L6lK83kvqlnwLo5reTBem/eNBToJwogUbNB09/1U6HqZekZoO4AZszk6EUxkwOYscp4XVdjJtevLbUpV0OBh1MAIQ08QChbf7i33v3SlUC9jX6ZjcIB4lztxz4ZVMz+3iV9k/OGAg0FdogCmNHmBk33+1FP3RVAvY2ZHCuOUF3kbnKoNDCTQ8XRuIYCDQUaCtQpgMAGUIMb9/uRNHsC1B3AzOQe+qW6mRyTgOyK1ZjJ9WOra8rUUGDnKQBQYyzw8c5HvfcxPneg3kaNgTncq7rYTQ79Mnd+N2Zye98emhw0FOhVCuQGTX15kMCOA/U2ZnJIxiwkyUNX2U0OCZoFJ41rKNBQoKHATlAACy/PWwmD5vtNT/3MQL2NmRy6ZHTKqV9mNzmWZjdmcjvRHJs4Ggo0FNiOAuzvjvqDlcXz23no5XdPDNQdwJxK/LqZHJsYYaXRuIYCDQUaCuwWBdhWGKDGVO/SbiW6W+k8Eqi30S9jp4yZHHbL6JcBaIYb2DU3rqFAQ4GGAntJAVSqgPXP9jITzyPtLUDdAcz0UJi7oLpINQYb5NNjNWZyz6M2mjgbCjQUeBYKoGIFqLEkW36WiLot7HANnCkcM6dM9uUybMzkUNI3ZnLdVnNNfhoKNBTopED9IIHr/TShiESNadx/rusf62I3OQrbuIYCDQUaCvQaBRjp5wZN13st84/KL+oNVBn/oS4k6QakH0Wt5ltDgYYC3U4BNmji6isHUF/W9Zmuzb4qWVOYhgINBV5ECuRBAo80lOg1wgDU7OGKOUvf2R72WmU0+W0o0FDgmSmAaTATige3sVp75sj3KgKAGoAGqPt20+29Im6TbkOBhgK7TgFWPAPUWID0jQOoUXlc1HWlb0rVFKShQEOBF5kCADU21X3jAGoceuov+6ZUTUEaCjQUeJEpgIEEYJ341vO0yILcVEmQqpd6vkRNARoK7CAF0HPWrx2Muonq+VGA/T4A6ol+0VMPFqPwWRUKPfXd50e7JuaGArtHgQTXJ02RcBsFnAnrPTP1e3193ffQFG4F734BgyelVRf7Z0sLgJrFen3h0oRlTaUBqK/pYtjQuIYCPUOBLUBZW0MbYL1RDQwM6ooPCbbxe6Da2FivVtdWqo31DZV3oBoYHDQoLy8vV8tLi9Xa2qpeD1SbG5vV0tJSNTwyXJ06eaIaGR2tBgeGt8SdBCONfloV1zMNoZ1RKpuFL2AZpsc97+q2huiouf6w50vVFOC5UKBbAEjyrARbeBFwReLVH/0UlhpwBwY2q2EBLuecrq6uCnRXq5WVVfnTN4VdXV2r5hcWqrm52Wphfl7hIp6F+YXqzt271ezsrCXpwaGBalHgfFfvbt26pXAr1blzL1evv/569d3vfrc6fvxkNb5vwqCc13MhfBPp01AgDxJ4mrBdF6YO1Cy5RKqWCNFsurR9TcXQ18DQsf1JW4IK1MBPEeK2j6qL3z5qKL/3YB1qB9QT65KEkXqRfjckBUscrtbW16q52ZlqduZ+df/+fQHyvEF6eWlZ72aqmzdvVHfv3KlGJBmPjIxKel6r7uv90vJiNTg4UA0Pj1ZDugB1g7vqaXh4SN8Ut6Tr3/3u76qPPvqweu+996o/+ZN/WH39rbeq4yeOC7DZ8Te2XCeexu05BdhQ7ryucV2Le56bZ8yAgRqQEQNO6xGg5nBITmVpnNg0pLc2QFtyEmUMFJLeYGiDl98hmW0aAAYGhvRUJK0eomSoC2LoTtlQAwwIeIYGH1zotbGB9Bqg9LCh/s4De6Q3M3Ov+s2vfll9/NEH1ZjUEEjOSL03rl+v5udmqvH9+6vRsbFqTe8B7EUBOmqNYfkdHRmzymN5KdQaI2PD1dDQkOuNDnZ5ZdnlBpxHR8fc4cbvoWq/4uU9Uvb3vvd/VR988Eb19ttvV2++8Y3qxIlT8h9xtBf6RhvooSbQL1nlaD/01EfUBq88rH32SmHr3LeiTF/UdUPXCwrUIa3lkBqp2SNsufX1zWpFktvioiQ0SV9Ly0uWuJCy5ufmqmkxLuBx5uxL1YULX6uOHjtejYztk4wlwCYOS9glsoiyq/6mFM0dAL53754kxw8EdsPV5KTa/OZQNTGxvzp4cFJAxd43mwaloaFBd1CDAvKhwTzEBzq2i5dxb1/+pDn+Hw/UNgWy9+7ern7+s59Wv//9v6vmBMSA7Cj0Hh1xvhal3lhe23BZBgXMB0b3GWDpeN3ZbgyqfkIf7XqWJRd1TKeEP+fGAkzouB1WhQLQ0XnzG7D/4IP3qytXrlQfffhJ9c1vvl299dab1dThwwHwjqN+sFESpXvbQbvWev4JwgPUnDjV82tEOsUkJGpsqr/Z89X0FAWwNIneU/y0urJeLSwtSBq7KxC+Xd2fvlstSp8JQC+vLlXz83OW1JYkqQFKmxp5Y7b58SefVJ98/En1+htvVq+88ooA+4QmoAA2Mbf+bQ9WT5HZZwxSl3TrIM3z4uJi9fOf/7z6i7/415I6pcNdX61OnjpTHT16rBqTlEondPrUaUmX49XQyFA1eWBSIH7AADaiso6P7/czhMT/0NCwQQ6VQL6vAzlFqefnYUVLP9yRnuek1piVXnlMaoeJiYlq37597hQNxAbbAUvCXABsgitpA+CoNLjCokMjI/mnsxkeHvY7/ISLzsugXwCbslFW0lqQvvvDj96vrl25KMD+XfXOt79dvfrKqwLso+5AqPsYXbkreljxmvc7TwE2ZwKs3935qHc3xk6gxuoDqRrYecHOOETSAqBXqpvXr1WfffqJJKUvBcbTmnBasLS1trZerWhCaV2oDINa9aH7yPCIJ6gg27qkrM8//6S6dvVy9enHL1Xf/Na3qvNi2oOTU9XAMMNopDeQHdDa3comtQRldxgglm8b1aVLl9T5zFZHjhyuLl++pmH9v6r+8i//TTV16EB18sRRg9GVyxcNugcEzFNTh6pjx4/7AgSxitiv9wDzqkYaI5Jsp6YOC8wFoJJ09wtIRw1aIZXus05XECbwxq9BWJ1kSKxWxdWI0yaU3yvvc6oT2ZZWp06dMvjxPCTQtSMuASqWGUwuosogTIIkcQCyG8qzQd1X0CY6AzrUaA8hUStulREAxwHYm6q/AHjXpixHVjWimqk+fP/96urlL6uvvfa16s23vlFdeOWV6tChwx5dAdhRkj2oeOf8hXMsIz+vi4aHxqBnXSdQ31FJkKrndB3q2VI9YcZTD70qhv7884+rn/34R9WnkoyXBNqrK2sGp0EkMg1jB4fFbGJYJK+NTSwJBgQEawa7QakBBnkvrl8ScH/+xcXqxo0b1Wtvvl698cZb1UsvnRdgTQoE5M8mYzHEfsLsPqP3sAm+rs4I4Jw4MCHAWat++e4vqr/8//6NpNLR6s6d6erDDz9SOpvV7dvT1cz9WUnTU9XJ0yeqY0ePqqxr1b3paYMpqp/DGuqPS5pdWlzQxB6TckM2ebt//55pNz4+LiAP+iD10jusyhLjwIED1cFDBw10qBEOTh4qOt4N64IBc9KA1uibCcdv/O4bU+e4slRNKG7PDQj7AGvSYeIQ4B0bVT1J4pcNiPIpfbuAGXCOziAlaST9GOlABzpfwrpDVVr8rqtCUsoOSZ1v0UFQl1idrCr96ZnZ6re//bvqy0uXq5fPn6ve+vo3dL9QHTmq+S2piNxJJmT7uXHPiQIcHYhUfUh1eSvo/pxSes7RtoC6NMwFpQdQ36JwzzntrogeZrTCQ0x6/caV6kc//Mvq3Z/9rLo3u1ANDI2I2XVJGvIQVsw4JEkMW1qkaDiaoTNWB9wBlGRq60L1e17g9at3362+vPh59eprb1Svfe3N6sxL56qJ/RyaHHpPCPE8G5HLaNBZE5jIykEqmx/99Q+q93//fvX2O98S0E5Vv/rVe9Wf//N/Xp04fcoAiZ736LEjKttKNTczV127cUsANFOdOD5dnT1zxqoPJvBuXLsm1dC0JtJOVAcmDxqUB0fQ7Q84DtyKOkDKh74e0zdATgKrdf23bt9Q3jR8UyeHymVZ0vjkpNQoos3y4pI6tv3VAXduA1a1TB3RyERxTt+5Ud27c1v0Vj1IkAYwRwFmge7QoGyelW8mEukohpH4TWQ6yJCeiS/BGOmaelteDp02oEtc6RKcoWE6HhPgidyjCmjMBzoElfGGOrk796arTz/9uHrrzW/IrO9Nj64mDhx0mwKsO+udODrftRJtHp6UAjTA87rY+hRM61m3pTsvDfFPVJr/Wtd/1LOleoKMU+YNqTLmZ+9rqP/96sc//EF188bNam5RJl/6NoL0LCYcHRvX8HXU+mYAKHWvJEUcIaXJrrEwfeo419fWYlgum9zR0SHpLY9Vrwuw3377HUmpJywpwphIoTvtEqCJFyuFDz98X9YQo5oonK7+2f/+z6of/+hHUl2cMEiuSuKcm1usZkQHpGHKMTk5Ue0fn1DehvVtziC7KVodEHieOHas+vrX3xIdRgTs45Y8kY4PHZqyWmRU76AVnRcTdNu5BEuQGggkv4AfNAu7501L5dOa2CSGTamekOSVXX5p1PNZ2EhLhz6qfGA7vaZ8eJJTz6ipMMNDZTE2vg9YVBrqXDW5OGg1CQtewmqnrb+OSVLysqZ8hOQbHV0dQKNDDvUHQnGCfvAQqhJJzsoj1TqqtEb0cFSqoOOnT1ff+s4fVC+dPVcdPoIOWyMFInCR2qqYeNH83QEK/EJx/Fe6vt/LHeB2QP21UrB/ovv2HLYD1OuWKGyCtrEm6fI31f/7F9+rPv3oC9nehlUHK9EYVruCJWWhZxzfL32rJsuQHD1JpoKgG0VqiwmqAHYY1pKjwnlkLilvEDFS/xm2nzp5SjrMtyVlv1YdO3bS4ALzK1jLPW3DKh2ugY8EycdHH31c/c//0/8o4LulvFbV737/gVQcs5b80OUePHhIk3KYnFYG5HlNnK6vr3iSjm8A96qAa0ETeFYtCOAOHNhXnT5zunr11VdVnpOWsAFK1BvHLWFP+pkRCHTI8iSocXeZlaaBuABV3vnAN+jK3AFqqJn7M7auWVZaMwJxrFNWpGZaVJ3RmVAeVFCALCqSqlpz3JjZAd4Q+IAsVw5NHRGAj1ZrxK24cEjl5AdgJ290Pqh2WpJzyWP6Ide0kcRZ3pNugLhSVscC3UZ1URB1QR6hMdn6CqOr116vLoh2R45oktZmgOQ0deahennaNuACNQ4KYPHx3+j6X0VLT/n3ouvUUVMGhggXdWEkHjM+vViyJ8jzkqw7bt+8Wd3W8B6uGxG4aFrQIAETrxiANBehb5sbehZorAsc0MuKKyUBSj9pSZtJMYb6K74DkClhM9loiVGMyPCbicqrMutCyn3n29+pXnn1NUmkkkSRsAqzEkeCwBMUx14Bt0WpXbBSIY7f/OZXXqxx8+b1avLgAYHnPulMRwXKAO9SdfvOXZvfYb1x8GCoMKALC0ZuijaoHdApT01NeYJudnZO6qH5auajT7Wab7o6J3XIeelhMeVDasX65eTxY45rUuWiEzAAApvCywQgdybQ1Z1KuBY46T3Q5Yk8dNbjTFiOV6fOnjQgopahnIDl3JwscjQK4hlLnCV1JgtSpdy9czOWfkuiRdc+O3e/GpVUflKTo3SQA4qbyrL9s+kWeuwR6bajoyUHQc96/sgvHQG0Jb+E4x0qsPAfk5GxRF2eAGp1BJui3YrS/sUvf1G9L9O+s2fPVt96+1vVO+98W53HYXXoWMgozu3okRlo7k9CgSPyjOXHpOrnXq92fFuAmkKoMEwkoqdmYvGFAOo16UVv3r4pU2HpNwW2I2KmjU0kMGlVJQ1Wyxq+CxgAh/VVDYkl2a0uaVWcpE3rqwXSY1KLYMY2JL020jcuG0XqOFM9sgZTC4I2FN/nn34qMLlVffTxB9XXv/HN6mVNOB4+giUFUp0iAT2+Eq1DdRD7VYR39OZ/9Vd/ZVvoV199pfrR3/x1dfPWDQGvgEzfDmgScWxsv6S5I+5YAPV5WVIsohcWKB6Q2uOQVBgArVf4YZoo8EPC5sI6BGl5VqqSGzcxX5yWtcjl6sKFV6vTL52VimfKJnSoKg4KgI5KVTIhCxDohJ4f2pg+Ll+AdErSKZHGR8qT9GzrglE9cQGQdCDH1SmsS31Dp0o4pFksVTCjXFSZp+/KLlxmk/fUwdyfWagWZr+QND5THVLHMqnOZ0iTxLYFF3CjerF+2+/IZ4x0ojMJICcN6jVXIVIU1Ff8RhIfHmb+IswSVQLxFW2KzptFRGGbzTL2Dz/8QGZ9l6pbN69V3/jG25ojeEkdtqxEVP/Zhkwi/2rcU1CAYSJAzQZN954ifFcEeUAx+qd/+qe0Cwr1XV19tfl2J8VDKtqUZLYgq4e/re5qGC3WE1NJmhZXIfniMPVC8kIagkFhOpYqMyxekx40rA1CxQBAMPzH2SIAic1ohElYMJ/1toX5mTRDRw6QfP7pJ9X9e3cNOFhjMIQPsC/56ADslEKBafJ088b16jor8wQAX355qfr+979f/dN/+r9V//aH/7b64vPPDGxMggIUiwLdlSKRjo+PhRmdgBfJn0k9LkS70FVPCnRG3FEB2AsCPp6RstFPD+kbk4AzAsEbkr7va/n2oqTxo7IQoZx0GvehrWhmQRGQ9qiBZ5PqAUfZEriN5wpXL37ShXekkdYXsTR82JOBqKcmNcE5deio8nLcnQQmgyxCWVRHOyPrjPv37it/S5aekX5tvaNIAVnqbqsJH4AbWY3JQyYfeREdCfmN+qbu41120usCdRx+AHTSc5nkb1H0oRO9rDpjZeWa6oC6QgjI9pMLr2KM8QC5mhePpgCrrd/T9cWf/dmfPdpnl37dDqjJKuPvv6errxe+BLNvimGnq08++VimaHcK8wSQYJLnUYYuWw9oWBtmdUzso9uUhI0UJ8BbEWjzjD2t9amSyAzwBpm2CRjEhYlhVBwgC+jD7gsaul++fEVqkUveq4KJOnSrsWjC3re4lPAAO1ZH/lATof/Df//fVVdlifH7939f/fSnPzFwLsxrUY5wgmXgY5oUBcBQsbBZESCFpEw+Gf6jusgFHylF0/kgZRs8CmCHekG7yYkmLNcmHDTC791p6Y6lP75185bT2bdvzGohwBr997LokyqgHHVQsATnfO4oresiXUsi14u2VBtSen7LjhKwQzpmdHBMi3WwUOGZQs+Ibkjd92QvP61FTejf6ZBtR42qQvETPkwvY0EPeQggjo7Y8dORyzPvKUcAcUjd5AfAznzx3aMzdw7uuXSXTezcQnVddXfx4hcajWiEp0oj35hMRtEBf3omcsCYrE0P3jTuoRSA2X6t67f9BtR0/+/oYie97fTYD6VIz30QB9y5fbv6RBvtYGEQXBDDXYB2kCGo/GC4EJOFYYaXjIikDfAgMTHZBmdjywsLxVAXywHBsX6sC8RsT4weU/4AeyxL2KUNdmVSTJwuG+OV6o6k46sCbCbJSHxc0msOrQEEHOZ2d6Q2+eLzz73I5i/+n38tS44fVj/5yd9U7/5SAoT8YQYIQwcoy2RjIdINAAAgAElEQVRNHQmggiSMREx52RUOUKZzATBQJXgSUKCMWoRvSNiEQ8JGl+3JRflHXUKHBQjRAZBPws3PL1mPfUubIHEHnA7JKgQLE3atY8l9uASe8rN2I4w7St2jU3rQTx28+Zq/60COagUpeQQpW+VCR3/06BFbqVC/a6saBamThTaLGo1wMSrBvNKqD+Ejk5Tb5QUwjbwxEdmWuMNipIC86hTaZfjIZ5Sl/t4duNoJO/bdUP1/9tmnphOdKXXChDVt0ooulad7gTo6nwdra8/eIJD+Xte70his9iJYPyBRUwgVBnR5Q9ff14XBb187dlX7teyIAR0A14sjxIAwBQwKIyJdw1RImzwDluhaGZIiRQPi6EeZmAOwGY6buUW50FsKDJCy9Y/40CcD3nhoWXzwW/9Z3bimsEyMff75Z9W161e1fH3BUi1S3rAmugjH0P1f/sv/w9cHWhH3m9/8VuqHeYUF2MLqAHAHlJGGcaghAN1VgROgCbgi8QIi+Y07QAxYcwEgoccmHFYQAwbrfVKZqHS2BEEfzDek6n1SMaDHTtC5Kz01gIOum/gOaMISs0R02AsswS8qpYAemBzpOq/2pleWH/ODH6OcbbB00Adc1gHloFMc0oWKBKkaHf0RgbZq0xIufolvSbr6GUnYqLbWNfeAGn1YZfPcAqMhi7iRPnVvixd1xDyHpBwSNGlm58H7OjDznhFJqEcot/TbdOb6R91QD6hCLl26WF25etWqm2G9z/ZSB+rODusBIuzai6BJJrd9vqKsu5al2A30c6XHUvL7fQHUEE9AjUSNkThAzb0vnQFTjDUvCe83v35PqocFS7hmQA9Jw+rD4FwYbkjP9oNEA+Pr4rtkLoNsTnwB3uu+ZCbGEBdgVjgY1Wig8Ayng8kxJdM3xWPwUZ4iDX2X1zta2HHt2mXrsGeUVyR/gASJ68///F9U/+p7/2f1voAaYEzbZeKD0WPjqLUW8KKCIE2+0REglZP/AGwWYRBupQW8lA9wBXjJGyoPJDyAKcKxghA7ajoWpO8Fq3IIB5innTjqBeyhWalJhwZQHpJkSwcEiJOXTZlJWl5ETxMkUl7Lqk9ohg5ZeU+LiA16yQLWBmOkb4ePuiOO+nPEqXqTP3e6Al46v0My12PRTyxqckRUpUc8C9qEiz1eaA/498ZT5I+61p+sb9LJNhIdSNR1jrxS1UEe2pYh0Sb4lldscOUuSTTVd92ZT7ijrVnZXnVeqiMSHy9WNLQj/ESTinAOvMsu6byF3u7MaOpx97fyTI53MbckhXHEL3Vd7ieghr4cZ/MHupCs+9JlA7qliZxPAUEBoJkN5q8xfEpB20kHfIsLaQ0pWhIV+kfFwaQQoAUoWtoSFS2Ba+INqZuGCyPjiCNMw2KSCYZlqEtr9uSkJHR0yR9+8IGl508//az6wQ9+UP36179WeizaYaWfJHv5DSuUfZLA9hmUkYZtE65n0sGOFwkbIAB4w5wwNlBKXXQA75Klb8IhxcWy7n0uC2COhQjfAGx01LFNqMANO3TFSxyA+LgWmwD25JHrmvSw9yStegQj+pDGVUmMmAFO373jfaNntaf0fQH4iiYl1wXsiwuykRZoozu2BG0badHNtukh5bdAvqWOkIcC3gUyTHOCFOgw0DMKwAoGyRope3R03KOSjQ06Y4AdtVcZHRFQhQC4oSUgySiMTpvfltp14RK480774YJm+WyPgJbql3RK0Fa7iPchxVNPV698qT1XvpS6LnTY2MCHCSiqleiYAgujhBH/Tv6F/tCDTiYunqlHVGisQvUKWNGH9gXdcg4BWjmTLvEuQ3Xs9YGe+ne9CNSP0j9fU6Eu6kIN8ih/JnzvuZC8aDc0MIbDloQKcFonrUKxSCIB2oxZwNXAowaKJGR1QIsJg0FtJqY4DNhI1GKyFflfVSNmAQTqEwAcSRWgSwYmThg79hBZ9jNSHHEgpQ8XW+1bYlRsfV966ayZAj0w6gdAEhC1vlgXQ3veh/mdbKYlDfM+NlaaEmOhS571hkLoogEqbKkJB4Cmfpq8AmbotfkGLbBdRtrHH3ESjn0/8AMIMzlG50I4yomdNZ0HJmnTsrYA6Onc6BQpIysJWcUHDcZEo0Oy2EC9hASLdH767Nlq3GoVtludEt20GlF9GZNt43rnUYuIjt7ZS8m1oGVYk7GoO9xDypEaSOPFMPI/qPceJenL4OCkJ0aPaMLxmFaNXrt+xZN6i9qsan1VKiN1dmwgNa680g5WhPjD2j6VumMCeUM0idFVmxui7Tw4mZygGpAVO/xRHqRldyalPfHbceiyWk60uOJl+3c8r3L+la9pGwDZ4b/yqjrLQ+50ChbuEEvGqBP9fah3YoRj+3DVF20N+3UseqKDCuGDTcyg65jqhglx9gyHtsPaimEYs0cU/85omSDVU/LZDmW8Mxo2aHpZF/o67dLVWy5a7zZ5VmNhHPxf6PovdaHE60MXQ89PZfHxvf/7X4gpJcGp8QEUMBCr1uqtHgZCSjYTeeIoztFDikDCQnpO0EZqRqIAXIkngByrgZiMRPock24YKRXmRioC/LKxEg/x5zcGirFKMiQ3KgPGYCLv4hdfVl9oA6gZWYoAyoAjYYnPOmFNRCH9eNJQ+uTcaApQRj/NtzDJQ0LW6jmBKaCLFA0tkMZDB71iUGRHPJaKo/8GqAFsOizUGYAyoI09edoxI2GRD0CcuNFNs+oRaREpEdeSMgFS6GupLZ5HBOaANdL0Qdl3jwocAfYDE9Kv75d+XXXBitEJdRC2YxcGj4nO2G7vY2JU4H5Mz5gRznD6izoJ1FLkc4C9QpQe5WE/6006ZsW9pEMFZnUAweUvr1hPfEcWQUuLWmIwoBWZog0dCZOTdAYap3hOg/qABu5olXfq0h2RisG77IR5317xyPc2MAcAxmpI/FP/XNA379ALkqhFOM5DBw9rL+x3qj/64z/WUWHnPYpJlYyJ+1VO6fMPR14YCVk6Rj2m/Vg8Wa72yDtGU9Tnijou6+rlP/YiZzI1RgXkibojLsQdvkf71pwItMNMVO2fdsRyfjoXBJeShRYPfFW2n/A7Auf/ouu/1XX9OXcKT5i1r/b+KEl5ScEv6rqpq0+BOgACQEJagdkMhmo0qBtoZqgxADwclUuDTqYzIwokYE4DjZgnhr/RaNEPEye61VBroK+OSvEOcyvjNu3DUgIwTTUIknguXqGxBwPEkDrBHMYlTe5vvPG69os+4X2wAUGka9IGKFlWjTR86NCkJV0A06v4BObTmuSDaZBQ98s6BNM9QDnN8vhGR5L6a84X5KQUJjEXJUWF1I4aZZ+BnklFlnTzDBN6i1OlhxoDJr8t65rMc5bDvOyhf3ZSvJAUx18RlPKvSLVDRwV635qeFUhphz7RnjrjH/ux8JvJ2mHVxz6bETJ3oIk3mThOCYSPaG/oKS3SmZbpIJ2LMuIwbCS+T6og9g0/rA2fWCk4ru1aWU15/Bi7AmolpPZDwXTvyjWpZ6Rjn9OoZX5gXtL9mOoOe/ey6dOmwNh9Cn+AKHWWekdnSn1nO6I+6VAC0MKahKzE75iMpG3xO4UB6pDwQS9AEBUbajJZ/ty+W138/DOpk+5U/+g/+c+qN7Vb36OAOgA0gJSOAbqFmaZ2P1S7sKpO9cWkNsIGAsiG06JWRDf1EkjEOdp0eZCerU7TVsAC9gF1aOFUr3ANK3pFk9n76gBVNkv+CscGYGy6tW/8gNsTcbkXckFDVVQietYbWHdeFwcJcOxgT7lHATUFuaTrsq63eqpUj5nZ7PWREGwVAbMorHXU5YqokJ6DaSwt6RtMFAAKKBc9dRkS08BhNGbukbzgWprdiifvYOR1Ddm1T8SmGEKMkIshLHUofiabmLjywggzC+geek3SxbljUBrkhU2UMH176+tvyvRsUjrMqwZrGBvQBHxvyqaZzgDgRZ+M1JWqDRgr1CEH7Ac1BaqQmIxEitb+JhlOzBTSd8QbQD/hOAm3IF0y6bHxE6oN4qMzS4BOnWuszqsP6GDKoDGghYNXXQ96DtM3yqtOU7pj/ZfjD5svoQelMx2ullWXy/PsP406ReZuCn/52v1q/5g0eXo3r8lBBPVRJFV3wIAIfj+yud64RhhnpU46f0ErRDUCmBSITGgUMXbyqKTyqeqGVkDeEWhf1X7jaUs+ijWG1RZY5Mgv+4oo7gHVIWWgzNGBtyePsTKJ/j/a0ooOqqAdUte0SyRXOhLqhosRVtY9tAt/sYSdzapos3/zox+4/sn7/on25pdBR7UbPViXrPhQhS1ohEBnvuIFP5iWItkH3c0bUAdiyQ3xgVGkfxOXftszk56YNyZAtzsY+MPAK39b9NTEoPQ2ZV01L9XbjAQGNvHCdPKgOlWkboSn6Gzaqkdn5NncOQXn+tWzRbP7ob8KqK8qS4A16CCK95ejIdCOltVYWAVmoQ0gBgTVAtFTD4qhQwKJBslzSoMwjxmmDHu9iEOBYJpBMa8UEFqWju2rIxYBY3kxw/pQk2goCeNIKgYUkXgnJd1K2VmtD2ioq8bqzkOoxLA3wA4mjU6Cd3QGDKMxIeP5lCRr1A9M2LHghHc0esAV8AY8Q588YRANCXvWk0DT04ByW7dNnmIlIuoUhUONIkAmXMQpJi/hAugBbPYJ2e/3rGDEJC8kQ0A4eJtCxdATkDIcBEPrKd8HuARIRKcpQpi+tEEBjjuqiA+/xGMp1GkQPzQOyZyQ85poJdzmQHScq6LpaiTi+iaNhVVNJsvXlzo44cMPPzZoUJeHDx/UiOV0dfLkaVuI0CkuqUOaW8AGm5GLJk6HGFlr0YpGGzjA5jArMw3I0bnnKIj8IQ2r2pRuHEYBjXhHW+A59O3kK0A5R1u02dhvG12+OnAVjlEfZUTN9t6771b/8T/6T6szY3E6+praBUC8iAmldO2Lsr5hXmJDtIFI1ukXQN1Uw/SqXNDXtEVyBlTVvrC+KZfVFCrXgGjJfABR4djyKGjfloShK/Hgxd/0D7Lj6FwtcOjr8tKM8nhfcxd3qgnp2llBimqO0dqmRiXOUIkjQj/VXyzYzusC96LCniqa3Q/0VUCtMaKBel4Xh0X2nQtmj0UfNAWaBO3IDUsN2NKNrjSlgwABPKHLg/kCIFB9KLQbHm7AkhWTgKxsdAegFsoFQ25oz5ANMQYMs47UJJ0fw89lSTrjSGTqOEZ0R0LDxI2hImFJjwZOmvyGychPSJSYfoWe+Pz5l9XQJ7WPiFYI3rqjBq+OQ2oWgBd1CMCdEjb7TnOKDe/yGxI0jIKUDwjPyixwzqqPkJJjglCHBWioHFYesQwbHTbSZdKIzgxnyUoOJoXm4QJQKQf+cVmuOsMn3bKs1A710o6T2gqw9TeBzYAkPktk8ocKwk43+zSot9/ZckSZWmNsLlBADXP15kx15QZnMcqS4+JlqVc+qF7SxlPuHCmKymO1ltJgogyLFCInT9BZRNEGUmx+FQuDSNNgbIk5Oi2k0/ydIE4HlFIs5aAD9ulBituSa5G4+Z00tqCg/C8u6Cg47e3y+WcfOw7UTQsLs+oQpE+2zk3lVpwbdOxI6IoLSRY9PqMNV4zK7wMW9G19nc2uZqRauaWOCZWT0lD9k1f09ByEsG+/RmdSmxn72hXreswr6jeqAC8xqtIdMgLi2llSooh+BW1mUZ+prc3O6CQhjWpi4pitpVsNJyJ78r+HFeRlXRwkcIf89Yp7KFAXhgGgAWoAu++AmmqCMZjJZzg4KMAYUsOBAQEUGIC7pWRVagIDDbXutgCG27s4maG3mBqG5sQX0oFpkZDcWAdljbAq/aVMy7CZhpG9jeiipAtJo96W01YhHCYLyIeqg2fAgvyghx4ZaQOWpRO9B1zTDxIz+4bcvnXblhgAcOqu0SeH5Qk6au23rU4B0AWw4zzIJas0UG8cOXzEIB5qjdgfA9021iNIPei9Y/JQdtSmT9CrzrAJtLEwJNQVYUqo47sERgzH6yoCGDyZiTtAVX+X4E5d8N5AZOZrd4z8ph5Dco9aC+CnnvArsCSon1Rdln5jAGmVjV4CXGsCuk++uBR6bdVv7lXuxUdy+zSxCJ0MvqoHdkKcF03QEFjni3pC6RF1lAOgDVNMyswIhU4P+jJiwqHy4KAH0wtdsYUCwtPhx0SjPcpB2xU1u5s3rlW/+3fvVdr6XPnRyTrytyqgXtF+NmtcC/e0IVWsdvRBvqrzEU3Ojmnf8aHh/WqDm5JopS+WCgiAvq3dFtF9L0kix577ng6RoFMYGZGdvNrS6TPnqwuvf1M6/ZisJS9Z5zxHvfit+Sh5xd90GajRZqnI0ZeXOlS5Z7TvDSOApSPz1fGTZ5Qm9g3P5LD4AKh11I7tqnvGPRSoSwmg5UVdqEBe6ZlSPW5GYZzgbzcgGN+TeHpPI0Z6yYaV0gsND8ZKSTomeEJNwrCO/7AZUjT60VTloQ+NsxUx5QNsQ7omHYauLJ4KHSV6yjDpQ09tKUwSEKoZgJ7JLSRvQNWnyihe8pSSGfnNqz4RyL4hmMstLmiDJKkjkAItIQuUUVNwR8cMYLNJ06xAGQsXJhwBe67Qbe8zIAM+qcfGXA+2Q3o2GBn4onx1+kEcpHz8c4oLapZYgCO1g1QJbEsK0N3QwQ1MPCaTE0cyf8aX37hneUmXCzDjHlI3PwIwIm+dkjgDb7Ib+Q2QjjiiDNGYMJck/wjdOOJiyf8K4KkYlhYpt0BM9UknuS7VCgDPPzpu6pGl6uQLIM6ONzqtsG8HpHM7XNIIQE8JnPyF0EA+SD/slAPYADn2BWHi9ca169XmO9pqd01nS85Oyx79plQLkogxh6GuJR0vLczol9QZypv6AZ3es6i7EHOIAzIwp9NIQtI3iUJfTErhB+ZU2H0RFcm81GibQxPVyXMr2iGRYUbkqw3OQSvTC8agHoowUchY5hr0nXbrUVDhC3hQAdZWFtX5XNEIc8zb0sZcQDvep3gCqNFTv/8UYfcsyFcBNRm7rAup+j/Ys1w+x4RtfSEGGtbBs8HosBZtKsDB0q6kEjTMNNgEbBglddUAbKyWEwMa5AWgRmganUy2kID1D7AeUuQrTNyY0SRlrUvKAFn0nfiWlwnDTHtIQrHxEyZz2tiIWXVxFUBAXpFGQzqMYTXPoWqIXe9ykhMAJu6D0h/zDsn46lUtOpGZ2n1txJ9WHkhwmOth6nZEFhDos9t7PC85D6hLjutAW8KENcdqkb7DJDABlTuOO+HYSe/cuZd9GO34uCaKBGie1BI4QZvl5QPWq5MmJ8R49aUkuBwl0DGmtE05iTfoEGWnbhIg8JfSNnd/U15Mb4Wr+yWPhEv/AFDkPVpBgo+BUcAb5YtOgHoCIAN0ABnUBpLCV1V/kjw5DoxyejVjST/ANdQ01GF2sEmvbGOZH8gYz9H+sr55zxVlUr4GtZ82nbra3dVrV0RPTRZq7+3bNy5Xa0tzaoOsWlXZxfE+6EJtaFDWKfhfkF8WGa1t6iAFqTuI+ORJ7SWuvb85NQeM9ahkIcxTV1S+QVmtjE+eql668JYmMNVRK0wdoOlwLbET2K7UkzOun7rzPcPwOpzEHKWFJgb9v7ec1e8Zjf4OKp0dAOozSgewpmeJoUsm3cX3xwHq+kECcQRIFxfocbPWbiBqLGbAkAgIT5tJyYp2SrdPw/GiDKQKNZ6U7GAw3rO3NI0R5hNLx/BfEQHOSNB8jxWGMIwkLgFxMjC2uwE+WAfEKSHYrq7K1phhNBIMaSLForNGUsYhCQPWVpMonXBhe400iX6TcMQNY3LhhoY14SfJ+Q5n+unAAFQgLHoJHbVM97wJkMz5pJvmAFzAP/XQ5IG0iJcL00TANTqI6HygAIBH3lia/ZLOiHzppZd86IBtj2XxYh2x/KysDmi3uIve/Y+OgwnIjC8BNMAx4gaYsqyp/67XpctXRhk8p7RNHOmPe9ZfAmL63QrwxhNdhA1AT0BN/xEn5cHaAb/RBsIeWhs7AUhtFHIeQg0T8E48Wc4sV73cfIeemf82gId1BV+p10mpt6wq0e/7At0r6ojVymRpNC9EUieneQNUcWqN1YiAdmMs5lIQQZbVdMf2Sfe8jPQuvwJ98oLpIfp4LI8QZgZlM76pb5Oa6Dtz5pzPgDypk4o4Zb4FyQJVE03FQ7jJTtN0ouwCZ+YP2jApeolw8Js7LSbKHV6Citp3TNhrde2kRltI+M/ujioKgPqA8jRTr5tnj/r5xfBIoC6NY0bJI1Gz3dnZ55eVvYkZ+RnzKhqEJ+RgNE53UUMxWGMbCzgIbNXsEC2cURoeF42Li8YluHdjZKIGsPfMvhpeMDHDW0nWYgAgdUDqjUGB3IAkeW/CZKBvMzUMiXlZprOkRjsgRhwawsKDSUX003EoK5NGOpHR8WccDMHTBA4GhmHw73j1fOQIpnocDnDQ5yneli0uezMnYPPMLneoKphMBAzYaJ98YquNo1wM3eHBkFIByUFbfpw7d9aLTDjGa78kdDolOjA6xQVJyjPqGKKD0Eb+UsWwB8iCdtwjrlAHBH2z/AlepMtzJ4OlP76Tl/yefvNdvocGPKd03RlfAHyAe0zERZyZTvCGqcAf5ylc+3c9z+XjlhvfM/0E6ZT6M07qEBVXPd98y06XODzhqTJDe+p9enquevcXv6pOHJX1xKRUVhNSzWpORGMF5VNlltprGDtn/R/SxOmE2vgxqTyGZjWZrbY7IkDeN6HOXNYXA0jS8jesNrcxPFW9dfiCDjc449PoOZIuTBwDm33UHPSgcyp5Mb0sTZfJzCiYgZwyWZhQ+6Xi6cBMRb2PxTTiQXUyWEZhtZISeGddbSHqV/9AygGoj+kC23rCPRKoSwmgMEDNkvK+AWo67ZjEY8UXO6ex5FsNhEYF0xl49Y9WKsdEnxcYIAwQGL8MNZECdKdhulHiHwaksTK0U1jeeQm47iMDWkmnd6Rn5pIfzu6zzayYBGbbkHkejEiDpANx/FKRWNcphmEbTo7JQuIlffTHFlA1sciiFDoe67DVEQCQwcyx8jH2YgjGYUHIlIAadQfbod6ZuGNVSJ7ogi4cMEX9gdROWrgEpTrQAODEc0ZnKF6QHe/Zs2cs+VN2FsLc1nas67L3BkjYQpRTzdm3OjeNwlKCFZMBbjFMznQov2lbu6Bd5gU65YVf8gLwpR9+J1BnmPyNP2idQJnASVp0iLiI24928S1UJPW081udPq472hJtSq6ejwSc9p3vdB505Vw5sZl5aJcz46EpRqfDUvp9HrFsarXltVv3NAexVB2bOlC9ckGnxmheAMsf1HQbCCWjLL5Sm2YjrA3Zfg9MVCcmsaygjencS634PDB11Pb8Xj1IGx2KK2yclSe1bjiGPHiERD3QDgFdLDis4g4esUpJ/lU8t2fXZeEv1hXExKp8DAiSCI+QxAhWnTqqusFhDeYtUUNHOOipHYHP6wLLPnvqWHY54OMANVn6slyc+tIXzgDqkoRpHno7zKFoRAB1WHpEo2XDfWxI2afDNqQFQBOkiQU+VFBfBmnGjPxG2lYaAOYqjVYe0PtZhU0Ll4MxhvWd1cyegCQP0h/G95CCeUa68kEFK0jFmihaRw+qFYICyJX9AlPrrNWpKFrAab+Yb0iTQoA/SbWkf6XPd5gFnR+A7yXZGj4ziYg0zSEKTCSy6x17WTP0NbUom646aALISNAvv3xWK/wECAJ1dPbLAmgk9CVNErKakf1JmDDkgIRZWUTQMVEe07yMVJKJnZhcPZ18l/f0S34SlDMM39IlnYkr81+PO5+518uXvzMPtJj8noCeEnCm0dkhdL7P8PmefGanTB2FVAxAZ+7bOzdmmtyjTuOO+ilHCEwoMum8wSk2aic3dIDxyvplRbzP9TN16LjKoI21ZAmyuq45ACVzSOC4Kf+e6ENhwejLi3iUIeUjRpqqd9qxkBgp22oIrtIWXH1uYyGoGHg9UsRYPOZTvFkZ8zO80H/aeoteMITcoNK0oISZpP7xyJ14GWntkAOkz+v60Q7F99yjeVygZsklUjVGsawY6AtH04BhkOqGNTkSDTUB1F+jTQls8ZfbkKZkCXPAaAl6LeZT44rTrdUoYcQi3Q0w0YSqBOrJD2HXpRcMxqMzUMMVqCIRkzTgBYBn/GHFAOhacW4QQ+1BZFZvyC/7hwCUTOCxNzYgSVyWukECuU6GF/dZgoHJ2UTnkOynmTTMoTT66dSrtkHLUbkMpEWebkolcunyF9bJ75NKh938ON4MkLae3aMPhVG+vaDDDC9CyGXe6s8PA+l6HhJ86++Ii9/kbTtgJI0EtvRbr9MM44zJpR+eM7/5jXC8g6YJOtxxec/nerz1bynV8x2Ao5qiTTAqsKLM8fEeP/inbngfvyNtwjA6RMXFBLY7AP2bvj9f/eCvf1q98fr56vWvfU0rL7U5lnY0HJXFRizTp53Lp6V5nkOitcRMmm5uAbzIyk5T/jh+bY1REuAdRfYEYHSSSNsIHdSDgtMpi1ZW2Un1YmGEEqiTGWQRUokghJQyeV/oyoTnxAGdyKNRBrHCO6Upmy5P4Thq8GVdzLlxiHfXu68E6tJIOfoEoOZOIXveMaFhiFAjQ3LABM6N0npp/UdtoTugY1tPgKwmidYZNofNRAezBHgXawPFGSqWImmYCdTcABGYUImSzipqFYVH2mYTIjdYLDzkZ0V+VsUobC7EcBzQZKjpFYl67wkX4tHFJOTo6LImlw54snFMAE0Hw/ARxkX6JY/10QAF9uG8StOdlpiYvUMOan+Qu5psvCE1BWcxYj6WLgEKUADIr1y5qji1Z0RZ9WZ9Y2E0mMs6xwI4KlxhtASgAFZXh+nRBu8Et/o7/HX+bmWsPGQ8dbCm/Fy8Izz1loDZyqve88xFHDj8bJdehsFfWypuh6nHnfHwDv/1O89c0Y4oe6SNZFso5DABzuSHfLdHERmfAV/AR8dJvXgvDqKTgDA6dqD67CFDLfwAACAASURBVIsbOprtjk6H/7x66623qtPSNe+XnT7hbapHymqmVmeUjpRfgDIrHFFNsQhmVDpxSMOhzPANOm0NIZ3voFvyTFohKc/kTXbdyOyWlF3PQDUKkJDk0Z/TTsyZqEMYbTF5rTde8aq2HPFDzaAMT0/hWBMCUB9VfJeznp8inl0L8pVAXXKC2HZR1w1dfQHUrmfagwAFnRugllUPTjBEsy4awJZXmJvJxK1MjMkdjB8qE0vYhcn9jCihxsdiCX575aIbohhD6bKDnBlc7wN8Y5EDNE8VCdI4ED4qG9e0EhlgglONfGFBDZmhpv0rDTGprUVk3wt4YglA3h2udDwh1UYYJHUu8oBDKqZ8qIDQXx/Uxv7sJc3Octg9f/nl5bA8kf88gIDwpIdEjxtkcyXZIDLBVVdnJG2hCbRIlUFIXw5qV2ea/JbvEizr/rI+eBdMHCml33p9kSaASHnTbwIm4ROQ8xvpJgg6c3L1vFAO16tBFKCK7xkmgTpBGD+ZrwyT6bfDREdl1RuX42yDe7uuopyZH+KOthTvPUJQ5Y9IwnaZ1cZRxyEBX7pys7p29aYscU5Vr7/xWnVYuuiJSYEoHShTjrr7/E/VKwIDgL+8MqtFPeO2xFiUGhDgXpaFDnGvaX6BdgYYu92iy5Y6hbzRPiypu+xxqhCyNOCMtE0nbnNW9H4IT3Sg+Fc7YiHVIYWbkFne2XMXHAcsmWU2wZ/OUVkANRs0SS/U/e5xgZqSIFFTqLe7v1iPl0M3aTUOJBSM/DWApbXpnaARABRYAdoG3xIlDSkZEICGoTYl5YYkHkAHaIbJX+jbiJ/GFWGjsWkqh8QN5vFNPwEGT+aIQZBoxATs30CHwbJynPekBmj0PKoJIU8w6hfStY+Kkr2slxwrnhktcGGVIwttMMdj74qwS40ykHZ0EFJVuPxtPbY3zYcr9JK9LVgafvTYUZnR6TxBL5SJJedhkRASOp4hWy7scIblkrESpPI9d2iZgFwHyHzOO37rzxlHhq8zL89c9bizzgiXnQV0TKDNeuWez5lm/XfWY6aBn0ybNLgSNOu/4zm7q7hnntqATxndDIjVEjSg5YrRHX+EybSTbrxDks4JbMKGmkxtQRUC0KplUnDpgKXicxsTQ1+9Vd26O10dld06G05NyjqHuRh6BwB0UxPYzN14E66le9WRqWNqY8StLXiVpWGBK3McjluZBoBNHwSUQdp35NVbAwPUurMtwpDUYmwpOyzgtwmg4gh1nY6MkyVJWBlJzy6+AvjZ1hZ1icsNaXbGnVM0gPUvdia65xvLkwB1HiTAGDbEh+ebt12JncpHz8uKP/TKLPdmIybJgyB0SypkCMmwjDPrkBDWAcPSagBKOAzZ2/I3rVguGTHUBEyIpP6xDH3lxxs4wVhIG2XG24xPwwfElRbqDxzJoYbBGIG4UGnAAHxYXQ0JHvBh4mVTQAvDLC1JNaINg6wikXQDE6CvZngcG94A8rLRlkRMWPIcQAb4BuOp5N4uVPvIedEMds43dWhtLJTBhjp3+COXAB03OrfoiFJNkiDnwmzjEvD4lM+AZP5OgOoMyvsEsKR5+u0E3owrgDOANePLjqAznfxdf5/PmW6Cf4Iuo7S04IjqDP1xPlNpmR6dXeiiozNKtYaBlzYF7tHuMNMDuHnH6Md34mFCMkARE03qkQv1Rz3vTk+hmXwcHlXZNcFIW2XC8fbd+9rF7rak5DmZbE5p861D+s6BCtpxkL1htJLx6OGb1ZlTx2QppJPq9W1wKNR1bDxGeyNu72njB+WLkYBAGBXaIfbskP31PgEzwIulk5euC7C9pw1t2WXTpTxBp2jxWTs7fucggfO6MHWJ4eCOJ7FzET4WUEdj2MSOGqlau6dX7T0Udy4vexITTIHeFyAzuCANuEGjnuAZwNVNz0gGTIrh3OCRJhR+VA1/RS8KnXyn4aE7BgRzyA2jwJREG35jlpxOwfM1kopbwEQaipvfLDLhDrOiD7SuUtegzPh4b9Bm2Kl7pCmAhbGVj0wfyRorC1QUvGPVn825xMw40mcWPlQ36Kpjkox4cQAR6iH0lCz9RofNHilsrH/58uXSCSHJ0pmE5JdA7QiKy/LV74AdecIl8KV/yrCdM+gYpNq7GSYo1f13Ajff0l+GT9B2x6g4XQaDRoyQMg+ZtwzfCfYhSaMOCdVQuywxgmlLxKHqihFZHDbQBiXURjVJn87Sda+6Vp6ct1K3md/6CCEBOkcLlMMqKOjkhhxgzT7Wnu/QJ9Rhc6rbuRWdFLS4Xt2auykJd9qjL1ZXMlpjFeno0KXqtVdfrv7BH3xHK81ptSqr9t8YEdgyEo1OQnuYHzhUHTl+WsB8RIKBgFlCAZK5V+gyKgDk0bMLyHHtNl/qevsq364ZPMs7MAypekrp33xYO3uWBHYy7GMBdUlwQXeAmoME+gKoqRxAExthQIg9dxmw0XBBaBjEO6RpCLiuSTYWnUxrqDij7ULZ54L9Mo5oM/r9B/Z7LwKA3ZM4aoxc2QCzwqIxwGxFUgcYzUTSh4s5vfEOunE3eiQT+VVbHpCfyKskfuVnRBYqSFvJqAA5oJALYMz0EmtsKqVyxCY+pLXufToARSRrHLP07qyckDbbEVPhAHXSxC9l4ZlOhjJtlDMKmbA8ffq0JxmZbORbXKxui/jIV4JqJ9Clf96TRpaH3zjSTD9+IZdxJWPl7/Sfd96ny/jyN2Hz6gTbCJ8dBvlodwbpFz/QLIA56tvtxQCPvjWk55QSA3fQ04Y5XQAU0nx8AcRUsCiv4rE6iTqkGgFlpQcIIt1aHVLaVgJ0lo9vCA+kT4cLwDoFSKHfrKqlM2c0yJamkJnJY6w3ltUBc7rRkp5XdDjExkyci0nH7zpQG+TUnJm5lWpKIHz4yDFbJzHJx7ak+2WVgRTuE1ys3sDipF5fCA5BT7JUd1mXne+f828kaSRqtj4F07raPQlQUxCA+oqu17u6VE+QORohejYaMA4GCfbRDxqo2IN9jZk8YTXdrHagu37ztk+Fjg2cPq2OaTP5CS255viqozoglV3lYKIEmQQc3jkNA1BMBBowADOlikoDtQvozOIYg4HeJWN6ElEMA5iz4jElNJtj6UoVA4zLieCYA/LszfZVqJj0jA3e8YvukSE69tcwt1Uhzk+oacgjQE05kj5t6Z0RBiePL1qNwn4iSOt1vx6CC2AMRHJhlheSetIi8hcS53YAXWfipKMjk6v753d+zzAJ/KZxuchfPVy+b3US0sFCd/5Fh1m3Y96qJw7zxfhe0NBlBYiZbPVJKKIrtE01Bb+dP3WkniQUdiFBM2JT1gzE7nwIV0Yzmd8twIwfwFBx8d7/aKc88070WGL0hEWQrIeoN5/jKcf+1Clp08kiNdP8GVWi3osFKCxUUVwIEu6EAP7B6sz516o33v7D6tz5V6TGkD5ZoyvstqM7IXb5NwMFDd1d8ooytzmLt93gkKhf0vXbbsjMo/LwpEANSAPW0L+FZ49KoNu/0YBokCOSiN3ga2BKYx7XxMeSdLI+xFONmkUg97TkGZ0uXmEuNpofHWHPZ20HqhVgJ7ShDVYS/MZlvNx5x34KARgioTgVSQkzJ7/zkvX47t9m1pDqxF0GO+vH5fiOg6FhRMqSQLBvn0z1dO7fhgCBiSYGBp6YVJkIl1YaSEyLAIloAGjvVyfDLHyoTMIqhLjrkjXMa2BjUgpJS5IVu+4RJ37JAx0HkpWlSuWRtGM/FGe5MG4851/yn2Wq+8n3wewRNoGVd/m+Myxp1+POeBL4+MZz/o6Oj/iCpkixYQoHuOI79kxJ/xG2PcEHbZ2mQA11GKAd+YNOIQiEJI7VCUCmdFigQh2TD7UF4jRQI0lT39AZ4FV4Z0G/GbnhJ9tVdNwclyVLDXWc1NWo1FoLaq8c9QZAo7YjDJ0CBwdQLgSN6FxphkEr/MTWCSRGijEq49fc7H1ZirxcnTx9Tqqvs9H58MFK6RhRRBjn1M6lbP9sve+SB6w+zuuCyaKCuiRjndl4UqDODZpQg0x0RtaLv5FqACsmOGhs4g25aFkwLk8wD9IGk2g0ehaSRIN288SHGjwmamEWd0MTbUePHI0tPY8e9lAWRzwwESoVpBYYMZa/FClLfmLPETIReeEEbXSFsRBCW02aYWPPaeKEWc3YBbBSyvb8yBhqihhykjdGBeQV5nOZilRt/XARhOiEoIXfwWMCHWgU0hUb5iAdwrzKA8uKFQ9SYII1v1ElkZ8Ae5VQEp2B2uZfD3JtAijlSdCtg2+Wje91kOR3unxfp0U9XII476BR0olwdIa2jHBZAN4A62wHlD/fuU2UDoX3AebxPSRs4lM+RZPUE9fDRP4CjElvRJ2BKlBXLDiCOrE/DDSXHlnqCG8/gAqCuRQ9+1K9JwBTpcQLnVlJSl15JazA2e1DcUaeoVYAcaqmSJo6JV3TyG0z2lPQNjpPwiNgkDajBfzZfBVnY+2s1wfrNzx15V/2531Z16TKfi/bXDfm9LGBujROJhKRqNl0u+eBOpiGDW44OCBOarFKAkBRI0yGYDEKz639gt0oYba2tEFDDVVB7DS2uHBdk253tFjkuk7COOKFJrHaL8AfpkKQgo08qWSAcC/htGD6YA7sWWPIOsRZR/ASoWAU+U9g4p7SV0qSdBDo3pHeiI+9OIjby3rlAFImFW0zrrjGNKpAfcMxSOiyAW2G00NaEITuE79rnoQK6UwbRMSsvaRndN4Rd3Qq8LwnNpWeJT/DRYBBdi5+UVyWgzInw/DO4FEc7+uAnM98zjABqAGc1Em+rwMz77aCNXVHLEnT6IgyrgTqCBN1xDMu1SOeKPMn2g5tihWCSNVMDAabZf1QJmhPe+FkH1rTslRVtIO1NR/gJrqOx3yCwBYhAcmYMOyBDZ0Zyfh4LOpWaZF/8NIbWunHKtsh6O6W6nbV7nzCYkSlVRwAOt+zrZFHHB2q68Q/AnwPHTmuNnGvNVLsUXB2+Ypjogag5iABFvN1rXtsoC4loBYBag4SoIA97mKiLRa8cJoGlg8CWkkkBkGG9obFnGAMcItJkZA62kDSlkKiXYe1BqdrsK8FO9Vx9h7bfqL+YOIS9QCjRpgMCYk0E3whLO+QujHP81l6stPimKgctsKwCdDB+AE0OSQGCAAJS1iSzOmQNjexRgnJHqYGcGB6GPOQAPrCKxe858f16zc8gsAEj0NnUWOsb2iPYwF4oAISc0jbSNN0DuQn9dRrZQ+PLAf5TAmsDr6EqwNyPtcBOwE6JdP6KIL4E2gA1qBhqoACoHgXut/AnADXWICxqTx7slX/0LXiLzrhoCVhQzJGDRL665SUyWvbwiPs40NFIaCV1Gnds/wsM5ooAEhdUFdYUWAWympOPi0uANTMh9CxCu6zg7OOOPTQcUpMkN80pO3ojzePAlSRjN349Ey+IU46vSdMJ13zc6tOCI8/xeGMxH8TLuYxorPPDrCeRI8+g2PoqT/q5vw/KVBTlsu6AOs/6uaCPX7eaLysTmRiBnAUk8AbMIuZK6QtVhLi6kCSaWQj72y8Zjj299DmOPe1smtRJ2CzGx0Tb1M6qmlKoB22riF9Ek8LrJURgA9zJlQfXpXlvKjj4H1O+JVMZL7S8iMkpCgI5arnLb4VlYk6I0CYA2m5ZrUvBxNb7Hi3qB365nVnv2HiTdO+oI303OxzrHwxFA4AaKtInM+UzpQBw0cNKPI5wZdipP+kM3Hm95Rg+cZz0imBhzsASllx3PGDSyCnPqjYVt6gt/3Kszq0pBH+sy5SnYGEzEWnhFmiYyK81R+RDu9y4o6tOwE7RhRsHepdAnnmMAH8aVTCKj86Y9pc2r3HnstRz06DWid/SivyHwX0u/Ief/ymI+Edk8j4yvInrT1RjGfH26Z3653T0Bf5c8vRcyz2ci5k6XRfE+fHrVLpI8cGTYA1ZAgm78LCPQ1Qs4wcoMagOGbLurBgj5slGjgz45z/BlAk4/MMUNLY/SygXhST8RwMsxX83MDl8p5MH/kIwFzRBkzrspRg32UmKJGsONXbOr/iUkdtSwGvUGQIq8lOS3Mh/Tod5Yck+cakEMPfVHlkHiyhAfIxJjfA8M2XvlG2MA0j34wdtKCHpd96RpKGMbHsYEiN/+VyQEDQKaRV/DEiAcBQfyCFkyZSeosWhS7b0SZpnmBaB+4AnwDNuuTN+wTurC/CB1ADcnSw0enld2iWuBb3mnQJgBVVU8bNHYmYhT6xUi46zFGPSkQLJk5pC24nMQlt1Q+XgMzSsugALUIdQQ5i8hWbDGgd5pMBqHHUF3nMictAjYRWWpDLAp4UZHWHQrS4Uq+MWrxQRlfQO55bftK/7gnQETxiIpzj0kuPJlXW8son+vA968J+e9+xL/V5XROi11y3lumJgLpU/n0VCqCe1oUNYk87yoSwjLSB9ICIpUORxURRrASXLGSqKBJg+A5o8DtAvA0A9bBWL6hdoxJAHYJkNTe3aFXI5MGJsmJQm+kITNlnYU3xJsP5wFUxJROJsFeepWgJqnCq60Z5gJHZThXHO6aJYCeeuQATOgEkZCQjpMHQfUpFI0Zk6A4wxapDdUyYfElFgq02dApzLXiZhMN6BEDnPEXiBLSjswk6tOimdJMJnC/lgbvVP4orv+V7wuVz0jXfQW/Agu9cuKwPnqOsbcDLd6QTaUmAdieVNu8RD3HRcaHLd35URCZgGUmwtSzAOy9Q5je2xyx+Il38AWhxiEIZSZR6ibw7B6H6oZ4K7XhnfbH8RvmpKQLy3njZogsx0B6SVlnuLBOek4ZUuJN33Hryjyx7G8Tb9Ih3zqtTJ+0A6/gtGuvh2PEzHnGhuks6EnOPO+bakKg5+YU5uK50TwTUpQSMey7qYuvTHgfqYAzAZUF7V7iFCo3MfPoBIKQe2MN+o3dbmqOxJpgk43TWcsSVbxlSFgZAQseKZOWWbZGntJ/GuhaQYMsMWKBTZiUaq/xgktyLlywqg2IUgTI2ysoj+cBkD3VI2tam1IMO1X70z3puATE671EB3SoWJQrD8UjkH8Bm/2hsxO/evRe7l1miIny4LcAo/iU/uXKSiUiAnxECdAvAcY4LeAYgBJDGc8bHu6RnScp5ylEC36ElF+/rQJXxBShSJ1GevPPdErgK4b0z9B+QBg3JXb3uyAMHJbD4IzopJOegGyontm6lLojb+SkAGR1YpBs6/yxFgC6/WGQS0j7pBl2SNkEr/yoBI1yCL/nKtlR/x3s7kB0a6jFf8drPtsrQDboVOicQZxj7LQGyrh3G8fKw6Q6c9lQGLHzuB0dPD1CjArnYrQV6GqCmLF+W6zvdWrDHzRcNOWxLY7bdApLewRQAFyDEqSfT07Kdll0yJpeDWoUSDBHmUqSVzMNzAk5K2vzu/J7+GCJPa5+FBUnXEwfmZNJ3UEtvJwXY2vDGHUUsbGFJN9InelJAXFoRLzlH2gZ8SSMmm7Cbls5YCSAxD/JsUIkugnKxQwNx0EHNaaKTcsKw+EEaRsWBxGineIk7gDdoA31gep8P6OFIpM1GTfiLPCLNBRiTJrRIQI2I42+dLgBm+uEeKhVWjYZ9tsFFVwIWMRiA5fBPJxG/2fsiFgEB9Jk++mNQxguMFM/K6pLzCyB7pzi9y/RDZYFMAt1Cn0+lQyNUTYbaEOYN1tBEXxWf4ogMOV91F3kUy5Uy8LuzbaT/fJ9lzjsjgQyXgGocLSDt8I4XfHUrbWeBdJ3XuMJflJl3OP/Vc70Ddd+mul6Yn/HBxggsSUPS7QPHZCJg/ZNuLcvTAjXSNL0PLflp4+gCmqhZFqbhMFeaNhNnNESWiDPxx4GrbHy/qC0dGd4iSWGxYVWJwSEk2mSeLFT9N0xQl9rSTzBHSGbeh0NSLNL10vKiLS8mtc0ooGfpmfQsSceEHQCJ2dag8oqUo68CCZluwYQAL2mah6RqsTkdzwFmxLUqIM6JU8CHsMsyv8OfL73DX+abDizYOMAFUxhoYQkRZvXQn+YQ4Mw9gTel+yx33hMc6sCb0jLfEqD5Tl7oqDIP0D0OyY0OxvXid1u3UKXj8akiyiagjD03DikZqdm6fv1GqxTSLsWpg4++ungBZP7hKUjAjjLysfjhprD2IUBN5/I5zqBdlpt3bifpUfE45ZK+/RU/W/PkqJyuYyULzg+viyQeMekFseviRlry5KtE4fQJSFyZrqPmd9x5RhK/d/tKERbaE6/y2g8O8zyAmsUU7U3Xu6hkTwyypWLRTyNVczgkRuM95TxxRuN08w7J89jR49W5s3Ni3nWf4oxawkAjHyyxFnyaCQAHjgly6NLoA0DbwBZxh1QOYerSCb+TOczUyRzOTyXd8KKlO5aAow+f0Io/L/P2isayhakkeufF0qKYiN8CDL1xGFYAAhOsSAxgkgqh6IIDTEnJcqKWrEvSRSWCZCm0MmgD0kUKNyI4a8HgJbttZtcLpDTbpLg8sQjEIQp9eHY5DS78CtoknRKceZ8TgkkbvlFfAHB8I96MI2y0iUfZd0fhCT13GJEcdy+JZsJP4ehvvNcKbYAdBlt5DIAjFN9DRRAdhOuLeOTXwGwzySxvlN/pFeJ01mu+x0/deQOwJCjh9c8t0gXkiTfbuFo6piE2nkleOvUSxHMujqXEXQjn/JRyxzd9Lx0L33L0ROoRB/6loz7xsg+gYI+bPnMcHwNQHxY9rz2svvayzE8M1CWz9DoXdWEB0jNAncBAGXhGer0rfezHH79f3dTCFNQMNO0ADobeMeMPPw0NL1TD2q2OvXg5EUZWty0mDwYOvWk29HpapJfSJe9TgsQvz/nbdsa6WGATx1ex+f+B2Lj/IPrayNMy+mj5G+GsO3c6MFqAjiVKgFpS9qBWDnoTeKUBeBEGyxGSsSpEmyuRHw/zQboWSxvOAniYkCp5rDdgnknX8RnYQ+1QL/cW//ruSVEFMvhCaz2nFJw08uihlTb1FKMIOpElqZ6IM2lstUXJW5QHWkYpgGTA2AiD8zJndbweZoT0yWvChaOjfVCt4G+UjzuE860N0vx2vcWHuMWvSLl8o6xOGaLVnN9H5C1Ijajkr/gNWkdHybccYVBSYnWM/JH/FrwrzpJb353n8ibjaMVvgSSc66dYngDSHjD404C3KY1DoLeWoQTt5Rs4eF4XS8rZzrnr3NMCNQW5pOuyrq93XakekSEaIte96bvVxx++X3380QfapvNz74vAYhChiMEBMDl48JAka+2qpwkkVhbOm2GROCSBcrCnjo8MRotmnqAB+KSUTVYyzXzme7oEMzOwwS+AnDwsactJJq9WpZ9mz+dDOlG6Za2BSkSrKT1hZjAtjC2kAlhXFA/Hd+VS4WTunARLqQkWNYBYuqTjCPBL5oYl63rNlH7Jd0i7wbTkO/TTMXlJ+dIv5bVOm84EJJXf9uKMBJ4AFm85KwCGxmFFEZ1ngnLSEIBNU7Y0c2sDWqB1dHxJaSOZ/wcwBlgn6NbrkXwbnQzI5CvRKmjcqjO8EH0B4yhXtIVSnVvaR+Qk85AAG+2RX06ydCT1aCMcyUTc/Cb+TudRlTukmofMSPHcaot67zJTL6XdtfKv4g8pHneSKiFJ0QawrT969KhtwrWVSL+5cyoQ13vdWLBnAWpWJwLWiC1thVw3lnJLnrC2mKt+8uMfVu+9+zPpoO8KEGDsOPqHjc5pmAAiQMDknkFUDRZQ44irFW3SPyxpFBV9glMARzJpSI0kC9OnxJz3BId6tpKB0g/pGbQFWjOazIydzwLAUIUAuIJU3clvYX6F4ZxFFk1saGtWduIjjgTMAEAYNJbEw5jxLnTvTJTiEtQj/Rjmo3ZIcMdPxotf3scqxdisnv2qkbS3OACP8oB5BRgSfLNjtGRflssHjdArs1qP+OkYcTEK4Qk8rTvnF4kcgIUqBjNAN1QWCXRtwAuwx9/WOuE9F+8zkaCx06sDZslA1h9lDC8100G9o2UEINIHBEjaI98iIUqmi3oPP/XOrN4pliQhJBHoX4yAosAlPlJUROQm2m8rlNMDeLPM/l5++1nfmeso2Yu7/t66ftlWSW36tePsgycs2M7rYiKkzKR3T6meBahvqxgA9bwuZuJ6wEXju61DOW/c1GGt7EWhLUAXJZmurixWm/dnta+0LCt05ebtSNLeUMgz/bCFLoE1TzRYAyaTVXYBTi2mhSEEZHWwzm/JeMlEyTRtoC5RKh0AbV7bqzLsPLQ0qYlGtlTdb901jjjMPNyTyZFea9/4bslW3hYX40CL4EmAKKT4XLiBX+IkL9ELI1lGWcl3G7wijxm3JdHIUWtEUbLldAv17CPjIy6rK8gfcZv2OoZJL5kIdKfh7wFudXplufOd64S4XfLijDuRf9NILusgvbTz7a+6wuY7w9k/70t4fNXjit+oQNL8LUYBORJJv449ATB+8NcuBelQ4UR+Se/BMpa0S3asuVGc1p0nyNMGrPbhVYkjfsXfQhN+ZH5SfePoyqgnyswLR1RNHTmptrOo+tEp4lvJUY+9V5+nlPGXdR0UTe7U66wbCvRUQE0hVJg8SIAd9XoEqKPRYrS/oOXR4/sPSMKT5Cz98/KiAFur7Oa16AOdLhMmnOeGeZuXDmsRBExhu2Y12iXt6TsiANW6lWpQOI02IyVRgDXBoF7hCQj17/VGgN9Um7Tem9b6pTx5U6Q7q55w5BxDDp9Fes1wTgtzPQEckMl+EkjCAHrmI3TVsVvcpveZiNWXgBMu823AUDmxO/bwmFIXoArQjN3xCJMSO3QJKZmOow12cLrDAiDy4w6gqFgyvZK49eXZWfnZpim6AAZyEVhr7+lKe2zlL1LBb3Qc7TpAuo4ON98ZmAp48i6jb33XN7/3hF20n1bC+Y33jG6cR5xUURQ3QbkOzvoaAO7o8OQQmAjGFDXv/N/fomNU/NGb1fLHZ8CYDsxROD3TrtST3/Fbzn/Tox5dvlLeVlnlt9VuMpvqvQAAIABJREFU7Z0CBU1I4tiJEzGyS0uS7SrDqfWkY5U1QM0RXWw611XuqYC6lIC6u6gLFcirXVWqh2QmGFrLsQW82CAPaQ/e0VEkXkmnLBfWNSZpgZltVBwLsvwY1h4gMANbeg5oL4yVQe3VgA3yAiv74qBZD9k1NEd3xwQdDoahoSc4R9ohFWb2Etj5ncyS/hOs7LegB3zjrSvXw/aZ5d3Hjse2nCldZ9wIWBkXZm5pNRGWIgJKrCCUR+cL+BSGsUdEghGdUuYJcAssCNDKCbgon9HGcZFG6LlDlQJow+aYEeYiEXq7APM4w5H8EncLkFTItNrgm5fIO38FJOv5KoU1kBZwMql4LiBTvCh/1IUCkxjFzA9+Ee9bcRjg8dHWw/tbScfpEaqkSVTZiQC3YVFiedRZwSVo269f0mXVvilNFsS08lfSoByETasMfju07mGREZI84Qju+ozoI3KynSk5Qf0hzngK/9CK36RZe6Z8tn7RP+qHBVNT2liMuhzTzol96ABq9NS/77ayPQtQU5Y8SKDbyvXQ/NC8vNRZ1/KwQFsNk8bI4hK2qmShxJAk0BHtEjcrCXtBKgfCAOijOjV5eILDOEMiRcJlkQX3wUEk09gsCACHkQK4ipSjOEKSLOAIw8EYZtq2y3dmuOKHr23gRyJltzVt6LOm1YMCwSNHtQxdS7hDtVH2YvBkW8QP8KU+2KkpXvIIgFuFK90CEiHsCkNyWCmTpRHeAfxM+chTWGLEO/iaYXcWg3To5PCTByAkoDjtYu3BWD/gIbApNppqS8BO2+UuwETYh7gEQdNMfpxOKXsdIIOefKJXwpPiLuDmqDvqJOnnOEp89lcc3xP08OK09crlrcVV73SzXmuxOIw7Io+DKK8zV2hdaF8ITBpRBwXAXRb8RztOatkPcelbmBoGZRxeV6QQcbkctXgjQ9F28Iujnd++fVOT6gfiRaFJ+dwvtzMqCGBNRcRQpEtK9qxAzVljF3WhtI1D+LqkYA/LhnehU8P0TnFaDehGXAAWaXBUJ6Nwwgm6as4PXFrQSRnajJ29qBcFyOzFEaveRDq1b5/QIYDHOmRkJPTRNGoAJgEyGT4lRcAwQTuBJEAkGIbv6Ydy5LdkqJRoAdrbt+86LsAHvbWBtoAEwN36rcwChpTXbC0/fHMhVG5AeB1lcA1gUHHgSJc08A6NAofiG5sxwfopJaNHB6QTCBwBcZAvHiwZc0WHFcimdDNf+AU4DDSEiw4rAse3OrBE7FGeOg3xk7R1+opy0BOEeuAqcGVLiUzP77c6Ax4FLs7xEho66b4FhKExe0QXdUPo8gvgdcRBdJFfPbTSjbxlLjJd7tA36ityTpjQK0d987sG8YoT9ZtutXy30yxlLt9a6ZR8EzA7V7wELTe8GIxFUQg5rpsSvo9ueZDAAdFkJttZN5TvqYG6MMKsCnFJFyeUs1a+6x3Mw1H16KcHBu4GkAV0SWoo0q8kaiYUvdBEwDw2PlbNz2nLT0nYSzJRomFzxD1qBCYQAWaGhZJl3ai9oAJJUK05ATd0w6nDDTXBw3TVdWAIEG7rruvAALHxy74cFGFjg/MaYz8GRg1WPcDAgCKCl1UbweioedYEnpglkleDv/5zJ06kZO7ZWAPwSS8EDXcmlLXkAb/R+YR+nveExV+CWwtszOEBeEaT+FnzH+BDnJgdEm96w2ubBgEXmcc6YyUNSzt1ekqA/ypmpFn3zwcANvNKOvxOcPRv6EFM+CWi8tyKx98LMMdH+93O1euYwrkkzpyeamF473RL3jI+vLU6YZcr2lbGw28f1pydBkKiftNZRQvIv5E70zozWvKRefRd/0/qGC4OMDBNOvK5XRl78N1+5fm8ruO6WMzXNe6pgbqUgBkogBoj8Z4AavK9T5vL2IRME4NMerHakAadq+IAFFzsrTFsv5y4waY0C/OzPokcm1L2iraqRLpudlwzOJs5AiCHFD/6SkAcl/GaKWjocgnk/iGX7wOcIr46sydwp38AiHRjV7PoWMKSInTQ6c95Ebd5clBMS7rsDMc04VBRBXgXkJIvwtXTzfe2yyaf+odqY1lbt8a5jpFSi7ntiXIGIMP7W+KD8/XfTG8A4Q5ARwdBh4AVSnZmhG2DVEIK9Ik0OvMaABt05puxhstYSPiwXonJ1Mj7lr/k17Ac+Xb6FKnAWQt+KVh4agVPcCeVTnrW676Ode4k0PETS2kfPLfLXPIvuhBHu7yRPu9aKiZeFbAN3bZfELH/OYQitxee+Vr889LUYQRkOuEx6oifE1qAFfvPPCt0lIS76wZpUH2AZZ92U9Z2gtosJQesv9tNBXtUXvYJdAEG9NKWhJEOdQEKdbDm2YAmP6gRkK4B5FENAe/JtnlubtarG0dGtOMdKhWgUNI1B70CnoAjB4/SzlOyofETJ4yRwE1etzJwsE/6zbIQDimfcHUg5zubNs3OzLWO+4LB0oKEtDwpp2gxGVdWI/0iPXurUyYpLbWFVJ15qt9JP9Q6KiflIyK5NO3ie4vBDTakG1ImEnrkJ8DT6haly1FQYSutOG0DnhJ0mwbkn3jTJVCFnXH4SzBOPwBwuACyADbSDlpDn6iTCB9AVg8CYEVeM+00t7MpHISS46/jKdEY23iv7+Ej04v3hAgApOPhXYBupuE7kRCeZ7eT6HRJJ8zwIn68ZbtKGrXiJl8lU1H2khvXC7ko+dBrL5iiAyA3pQB5J5SX1KvM03dvVwc1F5J5zhL12R2QPt9tZdoJoGaDJoAa49yu3wSABsi+GdiC+uglTNTUQmmfCTI07JwI5DkWvzBJB1hzwseYzPVCwr6vM+TYsIm9fgg/LJ31kM4eXNcxVRsCdvadHloLk76VlZAKDYwFlOoNoq7DTkapfw+GK1KoPiRY4wf/7A/CxGZsXhQh4wiu2OYUTmwxf8s8rjBwgk9h1O3S5V0CQ6aZd5hcH1vg1AKaAggsKiKPGT3PANDKJjvjtdUplLETfAx65SJcglq8a+cU4Iv4DTntD+Up6NcepVi6VBguXNqHO6TzGnEg7T6o6iBghIt2kyOBADXeBYCXxuVE2nFGGcL8MdVM+Hce2wVxHFZHQaJBaEg8MfIgvmyzkZMAcAd3eYJuUZw2TYpM7fK5+/OoJMqa9M+68sIfpYkQ4l0bxS8IMH3sUHsgVe8XDRaizex9aZ+J4hRChcmDBLhTyK53AOWByYOWBIclTWj6J0yjlPNUX2SDpVGGJBN7WQwPI0liHRKr8JhYYQ/nBV3LOloJQW5gkPW1If3mijr1DZZKrM+WWd2mACpdppWdQzBJAEp96J/+Yc5kwhZwis/YxnNRp8eMW61DfoNRiSOl3+D42JFPXUkxnaPcIbW2wKnGuDXcaA2vW0BgmsVkYOYvOyE6QECnPbnWBrM6iCQzZNrEk9/roJzxtwAtX2x7D2BsATaFKK7FfGBoGP/pSw71S0dY/BsWRW/XiaOIMrRi1/vIa3zj2RYvlrLjWxt4N2VOedQqtNu37roT51uAcU1VpXB+5/xShyioCvo6faLmK+3JnuySZnXQtaRMPggPfAce0+LtnzvtI4pGGgXGXQ7yQcRqr+poj588ZZPVFv0y4f66Y9YCUDOxyFqRrnDPBNSlBCDORV1I1j0B1DT0SQF1y6kxJx8nMNBIk0FpmAmO9VpLsEbnvaBJvBltiTordQjmaUNa2r0+FJN44zLrGx8fkGXIgs3iYFDiQ4LO1XdmJqWTag3SyXTzm8Gi5Ivvmad8DzMiUS9rf5AR2X9TTqRVymarDjFkW9qGCemiUIkEMBBPOqszCrMCCHB4/Xv4C0Y3HhcAWRVDc1J2IEJbosN/hk9Gr8eXZcVfne7ppx62Xm5Sjm8hyUa+4i/FybRSPdMqIpm2whri6Jk6RrKkJNkY/NoQFvcgg7EOn94K1s/tstkvb0tChHcMJKNO+szpU9WpU6ern07/rVeb8o16qDsvMBICj5j+xK87UjV35ZfyunoIRBn9x78yWT3FbwrH4cT8irjILS4jkI9W2PjGfCOptRKxmgrhREeuccix2tQDWwSUWPvgRtcHUGOqd7lbyrMTQE1Z0FNTqG91S8EelQ+YZ0L7PVuvrGcaKk20LalFI+dbHSD4HkwStsqEBzQAbPTXI1KLDKkh3xdgL2j1IFvbjugAACTwIo7Zb+xOFsdhJWCnZEz8mWbG/zBdNmXMPCagoBMnLlQNgn15wKwrykZaWcY4+SWO4nKZDAIhw8HRudeDgaZcka8EsrhnvmH80BlHp1anVdZFlivznXkmX/WydPrjW77rvIfO1nCXyfjuMpV8G6HkErr8zJCe7yz794dSLuhPPfOthDNg4cOgaGz0la4EdzJZpnpa+OMbNGG3RjrqeZl8Ju3c/iLwls7Xp9C7DKIPJMKP6ogyt8LodabpdJyzyKW964+/+z//FF5/eR9qlGj7npTVv1b+TRsiJKBCKM3796Zre9/wsW8di14A67/tlhLuFFCzOvGiLmZwaoOxbinm1nzQ8G0PzdJqSbk5mcI+zG7YZahLqJTuEtQT6PhWBxQkDIOfpY5RSdf3tK/1/WpF5m+sIByVThxzKWy09QBLWMJNRkpJGh04aeTvBLxgrICHerrkI5krh9yoHtCRIyFi5x0dQwAR8WETDrMTLsolECnD9QQYbK5JLUE0mT5+J6MHY4e6iHxYNG3Rpc705DMd75Ou9fdZxi3AU4CGd3UaEC7e8RT1lrTkfesiPyoU4AuUk24rX/XE8bM1M/VfrTK1/Bj8CFTADQLxuzhonvWYZV3VSOfSpUuqW+olTm53mYBP3ZncZh4Ex/sMH0lRpkiduNv1Us81yEy+IhPZ8Wa90NOI8pFNvFqtEWUgkGJVuuqk1DbcxrgCvpUXTlSXEKDf3q6WoKWsfXhjGfl5Xcy5tXWUe1jQZwbqwkDYUTOhiF01m5t0raOBDQooAaiJiQkB6rQbJXsqAzPrBiw9FKZLUMx7nUF4h4TMPaRfmEmdgN6Nj++T/fU+S9dzGuIuSs3BobSjkrhp8DAEceVOeCxeGRhgVzx02Dp9RL+TUSGm9YgFgJK4macEsWRIwo6zD6VspT1k1tJpeC47GcIFHwYYQA9eOB4XnQ4Fi4yQdEmP/BJ/psm7drrxnV35zNglrhYgFlom7fJ9xpG/O8NFuuSoPtohrQKOpEZBnGYNJ1s/okN0PMBhR506Yjm/zzDFj3/nt5o/W7GUerDEXfx3lqEE9i2tRSLGmDtARM6OlbDo84kuaZR1xW/qPgWFTLtkqXVr00516mxFZ+X0advumNO6I+iVSGu/dGipFU8aKGzW95rUHcd0DBdmqVaVUJj+RepDKh1S9ZTKfzPrtpPmu/n7mYG6ZJZxPkDNSsWuBmq3LTU0dLXj2hmPhuhtQd24BUwMAfnBIwzEMLgwLXcYBgcD8Y17fs8K9SIZqTy8VF3APDJ9L/YP0c5jyzr+iTCoSUiEycVYIAMQA8gBBHQAMCh+6w0l08o8ZPphOUFY8hZMaqnY6KCTtb3jWYBoxElaqEnkR+Wgc/HpMOnHvVU40o8wlDWYt13m9MPdiTm/nY0739Xzn37q9Ms8cu/8Xn/n1Eq9ZLquNDtn0sATnRfvtkr6TkdvM4RLW+Kr0xx68LvE6nv8iLL6PXk1apXOrsTNt/rojOijjTmU48069vFu8hCg6sZHll2XTPQmJrrMxa/zUVwnvds0iaiCVuSZNAgUMSZNSS6fs83H71J2eWA1L/vkxHviyly189EnT2x1el4XW5+CaXvudgqoKQhAzd4fb+x5qR6VARqkvo/KhG6Uk6jlaLgGKBgAqUOTLznBUo8qGZiGjEvmqN/TzhneBtRRh3gnPi21npY6ZFaHyeYCGEwEYVzCj8ksBAZgMjClqbqZHd9IPzuKTDNXIMakJPbVbIC0qonLeZkQal8SpGrldatEHoBuKa0ATCx2CcnVahfSi0I6X1yxOCQ6qjrwhr7Xnlvkwn+dRq0P+OoAmvSLnwCBAPr6+63pRTptcOroGIw6REZi/MnONPMX/gsWOj+s/EMXiwMscXzHZfkpXjvN+JYeS4jay3hM/xFHAG+AJeZuwX4Fe13vrXpSYnwPFYraBCMa6kR1ZroU+maCW+hDwVtl9wPdQqg6+FUrV3jkb7QJ/KalE3nBETdtlUVVHKbh9okAUavvBwre+y+QqLl+2w1F2Umgzg2aomV0Q+m2y0PJHcDo4b2YwQ3SYORW2ZJi69I0UcEgyUg8pzRLw3ZT1zvCxO/gpf372fBJKg5JIl7pqGtG+15zujmTSqhDyAcdg4/QAjRqeSDeMOsLBqUjSGsT0ssd/JLJg4cjL84v+VF8uXsd75gYQh+aqpLogJCm47xBJHG7khcDg38mwCH95Uij3YEA/OwgiD+nU/wTth5H/Xf9Of04sZqrg2M9zqQ/XnkfHWjJY+pZC5hkHPJW8pJgViTtDrVOJl+XrvMdOOcy6m7SlLLWsuw0UhLnPb/xG6QkhvaIITpA8k0nQWcbbfDkidPuaG/duuU5D3f8eHLoB12k0Y43/EWDdygnqw6pBK7T0p+hGaoy57XwQ8mnPnk/mwEd/+bj1/obpCEHx3Kd14VkUhiC13vjdhKo2ZcaqRrbw4m9Kc5jpqoJFyQEwBrVQwsgABY4qQANsfEtG3QdSLIxR4rRsH3wrSQXM7HCAeoAM7wFWAPUbPQ0OrqvunP3js2zVgTYNHy+WWep5NOSIeIIUzdbi4hb4vSUkPzQRXPlbn11xgP8Aa4hHYxAkdjvGBemYAI17WviVYHqHFD9WAeNRYCLEDRxfAQq5QlpvgCbolORHDf5DNAMakSQ4s/B4znpl6CZ/vKe/jKWTiDJ9xlP/Z71EXGTa+e8dlc98pPqNSlUZ/ylfi0dEiLAN+JoS5gI2/ZnesTdaXs0RCxRvnq5to6+ol1sbsYuhtAx6cbkYdQBNIzRSqxE3PQKVw6JuKd5jlSZOA3yAU3rpVOEnXRxw2OU4LxH2Slo+KtBrT+aGK1ylhe+MbpCqDhx/IQFjOyAkibht+/+5gZNHCQwXa/bvSjpjgC1G83mJie9XNTFyS9dC9QmeGE6Fh7QCNmrKHSzTCSGVJwVk40y1RGdlRR8ExIrDRcmBKC50xEQblWemCk3IxZQJt7BgTtiQp14LiuMBemvY2IxJnzYQyQYKoAhpcUEZhiG77yPb5mzATMVHVFKnMnAUaY2gHrfZAENQBRSlm0CDGEJYg5bGDmsCEKvSmrD2uME39DOahT7i/x0NuzSRlrky+/c8+Ijz0nruh/ywVWPN8uV4VqRl4fwGyDl8MTPP2FX6q7bcZZyUl7QDH8F1CKdeJe0cRKmzf/P3ps963Ec234fAWIGiIHgLBKkqOH4Xh3fexzh8PTgf9sPfvDbdTji2j4+OppFCiQlziDmGaDXb61a3fVtgBIpYW9sUWig99fdVZWVmZW5Kru6urrAF95Lb+aTY/RDeyBb8+TLQAX+9VkIjUEeZojAJ4uBhSWG5RJtl05lnnVjfodeOQz/6gjcPnTyK6hXDqS2PP7ZTuf8rp6tvKCPVcxt4szf34231t7S/rL2r562mE8EqIcQuDsRNVP1Ljxtwf5s/TJYTPLkKb2EpHnGhFhMO/IULsar9QeDbFQELUA211fKcY4sacrVluE6eQuURO12EDnrMa0VYvCXA8ZxtUyXvipz4cLbm1defWXz2WefbT788EMDCoBPtMyOp9bp+qp5AZp6Oe7O9wu5haZcAQL+47D1R2QkgqNjyAMrpnYFwGjKbHZMO3gcmJcnSodvGaJJg7TSDQNDby3fX+h0j95Cc6W7njffThrN284z6St4h9WZ14nmQoz8RupVHzS6xSRC5reAVdCqCqIfg7VBTbQs9Qpu8L4A3QJ8sSeGMfw2orbKyMJWXlJAdzwp1/q/1gNoYh9sD/uBMZ+u9Lk66nM7jW0G3VwaPJJf/+A/9UcC5wGcp/I9TqVadkFDbryBy0ypne3Xer+HvwD1D7T/+mnL9iSBGlk+0g5Y/09PW7A/Vz+misHyFJsx4gPPaWqcCnhNBVnoDASAH0B0/vxLBj4WYiISil/EKQOYcfJMYwsowUNoBciEn45nDunvCXMgN1CFzHV+54dvb/7pv/mnzYeKor5gTFIPbhgTpK481HkUEOqks6wBkHwmi/SAfB5sdnjF3ZKGRHBChj+ywh2yB+wLxOlIAiAFC/L4WHzDUUGJsc37zCCRjDv5aqc1gwk8t56d13eeL8C3CBoY2c7HtVVHa1quFcfmMj4eCeVl1iXplnHshjUD45RrVJvrSTAt9DNo97cvGfXOxPmUx3c/eou1HTL1tA5++W4n2x19/q13a537384aOpF01f+2TOE7vKhz5p8DkiHfJFTYV+dNx80MIv2jyW/cvL48f5n19D0+ZoEmwLpm8NREfdJA/akkAahva9/XH5THADM8cUxrTd/KB1SHI7Y1MPSY/4HN2xfe2RzXwvwff/zHzR//+JGn28XPE3nPLViwpnyHBIjW7NMCxgMHFYl6MFhPKR7e29y8c1Mrk325+fWvfqlo+iMNh1zWfFWcMpEYdoKDNWKmnHkbQMD1nU5Z0MrrvomuE8iHFnzBEMFk8jJCnZXa4M1DQqTrNz5MfcYfOS1lKRgeqD8vC/nKNwIwNZVXg+DYd8rD+c6tslbOiB5gDNQEoFLOml5ILADmK9TbEmsta+6p5giuC5GTDp7/5purboP8crC0wWgbp0vpkCEf+ieqBpD9JqASePaATTyvROgCxFzvFEuOc0eWQILrqSd1t+1gzFKHofwOHlP/kHArPbQix7AxRFSB5dpQ5UM9y3jx3LmtMepJU9/Xw/MS7IL2E9LH9drg0xD2iQE1QkgYFtsGqBnT4anpPt2IJOMYh7XkqaMSrNn/M+bKOabttZq1FsOt2zc2F95+U7d+R/0yy6effmpA7bodlJwjxzocejEoajNY64FSZpvIOeW0zOU+Knq//vUvN7y5dldvMTJFL4CyOlIjJxwbJ2L4o84E7QIgv3Xs0siwh763yEs3vKk4wIOoLHcHjF+Khnj1k3/aUnSgtRrn8FhL4oEi1Z8hEnyfYRDoGsS4MG3zeeoO8G1l0kkAKL+l02vDvgZtw6SLh3bqS7W9HuozJ1kBrx3Pdu0L39jB2HpEe1Ff4FlHo2Psndci32PkXsmJExHE7r5WG6JbHiTyLIINOaEXmqmZa9gRQw6l0zpTBvvwUfDalFb9N2DwZbcXNhr5XS5/kqy/tiEojDb0YlpiGx3evXt7c+bMWZeZ7W4p/P084FkbETWAff1piogFPsmNKQoXtbNA077eAE3P/NCY8eKQ4tgK6QVLEMO8dOmSvzzOA8jXX39989Of/tPmRz/6sYz33Igwt8GpwDoDDU7mMWM5Qo9Z6ObEiVNe4/qWHih6elu4eER/cbT1YRTnpU/mOhhRNHucOKCWB1crj3HiRHnrmKwc0yAeBSBDXg8vAAMmVVDyFCgzl3qlX/Aqj6U5057TdsrhWgYfVUSBLLRhJHvGljlO/WvzjQ4FWkprfWlf8iJXpikahEfBnfWG7rZs8LDQo+YBbgvIDd5Tir/a+a982AAdLkMhkaUc85tODNrgPg982chHNL0CdWj67kZpfjDsnMFfy+ALK99cqF0645LUermUOqgnd33WnJcGZoYSn3vbomFC39sNDQHUT/2jKE8aqGmxD8e+z1uPl0zGZx6x6clXiC7jBrF10r74/LPNB++/v7mu9TuO6uWVM2fObN794Y82P/uPP9u89eZbfrkkEXPWWSYScoSiwnG6OKjnUttJ46wcH1XZ48c1ai3H9XQ+tQpAOkdEpQHN0kbBAdNEvhwXINsRkKdlI2QiLvL5JQoJirxE4Rn3XJVBWoADLIipVJ7oa6U1p5evpd5hCZyX3/I1kh77sxP8KptBSFvT18JptSXyNVhxt8TuEgEiHhryD3Dlctt+HPRlp9STqLWzgSp/60eBlmu0s3mJ4ny4VjAi+ZG2yqLOcIAx2asjs64xYr4e1Gl7IR0gFbWFPrrnIxWeg6/r3VcrtpQG+dSrsti41QWd3C1QOlNDV5uNnfDpOc3/l+3z+w+28TARsH6q2xMb+pikIJq+qJ2pCvu2VXEIXu/GWgHNDlUAZoujSwDA8iER6q37m1/8+8+1+tkXmzcvvLl58fzLntP82muv+AvgRNYXP/jDhg8JPHiQuaYFEupyNKi6eAGFB2+cA8oAF9P4Tmo1P14rv6vhjxWg4ljkhQbXS2t16DkCyzg2bTEPvRig4pUGJcpmy60wY9GMMYe3RHALWDnqXMuvZaEQYMwQyBrdz3l6XGCiVKPCnfnmPI87bkfUtG1ehkgT/fA9sFLXF6k5CHa5ULCzqeQLqKKmppmWCyXfohMyqX3K204esSfKMIrQyvzF9dGWlWWezx+5aMvoFBKVdeuYtTnMDvTHx29FN6+dj/qUlvHu0EAe09JusDcfeT5Bh01aWIZhiPNLcPC13ko85ah6J++t6Xv6y/Q8gJpnbjx7eyrbEwXq0YCMTxNVM1794lOR6ttUKgMFoAFb5lHHOeOEicCGIQ+Q9Pof8rYPP/xAq+Jd1lS61zZv6mOf5869uHlBIHv07QsC69MC64vOc/u21hpWHTiuNxUnYvX4Ls4hp0/EnIWZjmtI5YRecGClPUC2IIPjLDRUuo4NSY7XW+FtAJzBME6OU3IrrZoRU8fuPDx+TkewLvpkB7YqAGh+ceBE39wBJCpewQw9suPw5a+/M5hGphUhZ94ryyNABxdlIqwMftJBwSjpBpeRlzozW4HImYSRiFiufu3crAcDVMrzl29pctHrp5CgdPMwMpXXx8nmupUXPbHz4PC+Hx6qrbTTGZqDkS93Iuokl8+QpT4qDWiGMXec+h/9pPNMeu7aVu5DOzLyN2wnr2vert/C5TomvtZJ+653dSzLevaGyGikAAAgAElEQVTsOT8bgYbV8ph2mfn4nhzz7TGA+px086enJfMTBerRMDwJu6idGSD7FqhtmzK4U3rz6wGv7U4GbGN1egEguVlZ7+uvD+gW8KrWm765ufT5l5t333138/IrL2+On3xhc/bcmc2xk/pIgD4i8MnHf/LawzhWQCzRK8CowY3NfYBPOx+bPaQhD1a7A6j52vnD+3Jo1x5gNScGIxwknO0EtF4nL8c4FICfWQIAhGYY6G1YvpROepc+PaBXgrOSo0AW8NA/A7GqAUh5+JVob3vIBTbqrAd0e37wYO4OuE0/qKlm3crXNxl4r/NrMFN9lXchMmRq3lnWOc8WgKAmZlbwQztyxJCHlJpr6LRgE3BFZg9fUYKOyznRedrffI0Ksx7IsBP0NkDLDwv175Q+Astqc1999dXm008+cTptat61V8erXmgTBQ96wEhaZCRvhrPWu6rwvOoiciAMfPuZgnmE9yGfL6TTpfp5m3UJTc632yw6e05tfF+0j2mIbqFbTcYQLHfKolj9tz5X3W3X/HdzhoNc0M7kCN4ReSrbbgA1gnyg/SPt/+GpSPUdKuXhYJwgTuQn+pSXwxJ9+lDGFiNONIxDEwFd8mvgVzev/+BNv7By5txZReiH9ZDx3c1L589vfvfb324++ujDEQXJCWK5oigwIloLcT/9P66ZHyf1oOZzvdjJQ07qzpdSmm243+RISQnfiXJXgIyDNBpnOp3KM+apTuGhZp6Qn60fgXV+QLIRn4QUXBvoM26JqQAE6ULInhX7MszS+doFmTroCigZ7qHOgkGBodd6Pl8nbabBcc9TDr1wLW3Vjmmpn0xAmAGD3wCPj0ETg4yTcu784bEPSMW5rjB0lYjW/C80R4GpHOl05tf1RuEdvXU668RcUqf++45mdExtB8p6rBnAxwbG3ZXJT7Kno4BxJ5BkkIa0QXJcy2kELAD3dxQeth39+RrsmRBbuquTJ89oUaarXuogS/KKf9+Nqd5hy7wPgH7T4TG+nk53EPIPdOf2m9P28THj1CzQ9F+fFo+7BdT0PIA1aPBoaz0taXfU69XJvGDS81odnI/cZu0VAzfDFCOysfPomo3QVhjfxvyZnnfx/T9srl25svnBW29tXn3jDYHuic1LL764ua1ZHF8qquYlGWiw3y8QqqxBh1/RxgFOaKoeoM3dZW6JA0prhBXn7vjz4xyuIpZfzqmHqJ6NSBvR+mX1jIPEgeaOiXVLDGXKnG8ghnLYjz7qdPAHT6ljvRWfHXKnc26DbZy3nYf1on2W7y/RAqhSrkAsfo01tFcBbQDF0IklUlLrcTZnBYbXNuAiabkWvlaKprIFQPDBxxmsH2xJ6X7NXsfMl575qZyZfbJS7YcHkr5Nf8HQVD3qr/zQQJ/+oeCQhmxDjkFg1impi77NhuRUuzqP6PAG5bWrX23+/ef/unnx7Fkv13vzptaq0bDOsaPHPWUVi+HDz2c135oAiGdAvFTGXRZ21E6pdkMtfycby51e0M4zN5697fm2W0D9pSQBqJl7OH2ccM/l+8YKMRbmsBKI5WUDmSZO5ehA0aSAB2uPo3ANAIrtg9WYv+Ms5WF89/Mvvtxc03DIl5e+2lx484Jve1/QK+pHNf0PoC4IxXlDF8OFB6JRjBnjZiGe69fzMJIV7u4OZ6HcCijbQBaAwk2Sh3wAMeCfOdSNYjKs0TnkKAceHI0TuVEH8pAwHN2dlq4T8fGbDiCAUsfjN1H3CtLfpPg/J0PLFEBa9zfRMhiJW15rTySddunazgHdoavHEFGKdbYA52jvUCF1KIGGp3dz/myV3Z2bdrcBSWHK58wt72p35tR0tp8rpEj0OUi7LHXxl28VOtpuu5QOvGhYpO1RvbY984DXZGy3qceFwyeHO4KG5KKqwQ91Kj//Hurr419d+nzzf/zv/5vv/u7r4xYHFeAc0gwoOmm+ZMRr5kw1RVe8HPbGGz/YnDp9evPSS69uzr/8inzhuB+cR3fWfPhaOCoH++6XNfbf0n5a+vhi0c8esvnEgTrA9jUr6AHUrKi374B6Bgu/cIBhjodlDxjX5BZyOAptERCIWWUKmy5iwCoGaOPYyH1TxvrRhx9trgis37xwYXPqhReWF1MAwzp3sGF12AMPNQ6sSJppeic1tnntGupLhwGvBgHtBXtqnI1llmfOz9hy2iMRtPnU/Ttj1eUFJyv/BsapY6AsgF/eCwrUXx6SZkhZrmWWQQCei+Vv5/F8bkAYss75TVRbZa+T56rqDaaNXAIWqY02pEmd5APad2RZD6JXXSapdeZX5bnop4yjOGg3eIx8ATHqgH4fCrYWhgUOUsbJzvWIHuY2nPNgfwQNdLJ89f4eaw9YntoMdbem0J111jaPBib+4WHwQx50ap2vpBZ7aQVh3TVvHgqcH/DhCwUTrLEONc7Je1jysqb3DT1oh/c7t67JDz7T/OvDAuuzm+Onzm7e+eGPtRTDixoWfNnXaUueb7h99vem6WEGaj7RxaJze749caAeEmAPF7UzBPLunkv1FyqMIQMMD/Rw5JiNlYd6HWszaPBPDw4R5HkNA2BKiZ50Owh9/FYHjGh7cSMjtsooImeK3s1f3tyc1CLrvGpeJ4pjYJcBX5MZjsKwwREZL9P0oAqPrpVKlL9AVd4NqgM4St+zSihi3vPwMj6AoysaFpuH9TakOx7xS+eALJxDr4DcsnX08tnhk57zWx+j7Pyqs+CS5AWkVp2vsi9AMYg0T8tVroJYf7fqdy3IjCQAZs4AD05M02lBtpmGNUU+be24ch46bhsThAJ0Ri3QHLonvTQHKdPr9bTbAFi3CQ+Q1+GPnTIu56aR+e3ccZu2ZcPUpFs/4AwfTSD/EiUrHVrpXCMjZQeJBaR9zTrqJl51ni9m6poSuCtgTRzebMVGfUfmJMmOTAQVsiFzhD4AYNkid6qUvaMhkgd6ketfFZGfPntGQP2qA5mXtN728eMnZYdr/aGyMLOfDgBqxqn//WkwtVtAjSz9kMDTkOsv1mmjVvjFiyoYKTM/bJUGO2ZkDMfGIZXEAngeGiAKISdZnReAZ3YFoGeimY/89R098desj+EaGDBOaqcYtMnrmRacK43x6ZNanYzPeJkPdRT+UC1h4o6twM3lmWbr4Tp5oJnq6gK8bZiHiuQFfA1CymSaqpeOx6+6D69ewQSa0UtBLM5Z5ug8dnK68rfIrSw7Aar8Vh5+W0fzruXhF3DdrmvtAJOOfBZCeTN1MMBcfXVM3lRoB+V1manukWQyTpnSZ3nmMqiguk2buyB/bD9c2+oY5jrJo53hjuq/duUO289RyAFYquc1XzpXZs/5ZzhEx5l9klkgaZPI16EaN9OQOTpaGw6boH6bgxs4zzc4ZLjDHbJ1CkiD0eJlnEPWD0M5sF0lb23xxpWrAu4behD/qWZL/WDz5ltvb87qec4xATbTIrsGjovvr41ZH4A1VveoQ+4yr7sJ1Hxr7KJ27uOz/NcuC/NdyM/gxeuxmFaBGDoGCWAWH5BVfs1k6xxlaMQOgiHHJLFcnIAzzw5QZG1zBQgxXO11TugXLDw/lmhe+R484KO4xzy3+/6D23IKomANP9wbD3X+jIClNz9oRIaCXXngFtYLQxFeD3n6EBXyzP3lQ6Y80QwQ4cDDye28gExkIh2w5NphdS6pY+jOwLE6/59hfUlqVM+Fx5VNdBhdpqPimDrSBh1+CF+jXUYn13nIZant5t+hp+qK+pvOsctqc/u2vSFEuZYnwyzvaG/rU7os724TZ41uoAfdde58+ckzEZP1Q5HYpwtjWSrXhZ0GpaW9wloCiupmS5+UhczYODaNwVOfRyBaHgLC44PN0eOsr85DY4bIog++HgSxfhkGGoutKY163VlxFyfQZq0ZOoJ7irA/+fgjTWH9zOPXr+udhJdeflVv/R6zfVrGlcX9cMRUY4D6lGS6MtvHXjC3K0CNEBKGB4kfaOcL5fsOqFFugOHB5rii6i/lDLyMgHE46kAGxgq5wrEL4BxE0QFkLtUwMcYUi+HGMInGx9dTKOfsK3hCl+05Ge4B1XXgeX1kVg8fT+hNxxta4tRpyhM+444BqFyfnZ284SH5SKvDGCQsWaJlIqB8ey/AC68dtuAhEU/y2UIDMEbu0O91Z6ADG/oJXwQa1LvmJdewhxQhx+BtJ/9kePzwyrbLVgfGFbcFOg0oUHfqg1ra0U7l/8ozdO6zQbYAPPNZ3grSrguK8D7+MfpA+hKZj2PrPdm3ANrXx23AVjQ/8pb+3Ma+hk4xHzO80m6x2aYsK1HstHEJu61MkR1aCBXBzG8VMtqQTh2jNnBrYTLWUj/MEgiaM/9A67hzd0B7mS5Z3aHEvlGAR2e0OcoXT/wufkJ12h/o+54ff/SBZk19pfcSPt28/ubbm9NnXhxvDWeIJVSe+l8w7IL2l7Rf2Wtutlv0ydbOPRpA/fGTJfvkqGHUvvXHqDBOO6/2Yb/c5jPJH/j+2hFBoiHye5xO+XC49VXfRA++JjaJaRKdEBFjwOusiAVsXHdGdAERXivnlXTqAGCZPsiJHVCb+ZvOZ22sjrgNql7HQ1EKYHb/fl5myRfK41h+E09bHH6N3qmSuszH6KQStYYX/HMeCiFftrWTmPl9nAwFmcq28hEac/oMSH2glzsE8emqB0gApkNf6HbCI6NDeIq8g+GRf9Vz+Wg6RJDdZaGvBOS1qaCIsaVeUrNz3rVd/IBx3GHNcq11bNPievW36ja5W751V17qNTdD/uRGLnjvLt7c9Dv5zrXaJpkUvohEouhbGmvWeot+E/c4XyTXuh+xDexjLDgm+XxLueg/bQJNL8WgwAXb49gPrkWdz9Td0rOci+/9bvPzf/2v+v2tviv6ldLznGNiM+I8vb9E1E9lgaZdiagnPX6oY8D6v396uv2GmrFV2SnzPpkTKkvz7d3XfFvQjqh/Nri8+HKgEdsgZ0cxiGvD2sZWR/UbYq6jgJOM9Z8ZdFZ3wb4PeNlTr6x2QBGLbp2f42n7MFrozw7WenuNXwMI/KljCA9lMk78QNHRQQ3lPH+IW1Fec8ZxIo89GFBaCVsHhEyd8rWFASNfFsUPkKGQAge8FGzKY9P4LQD12uPyUEX1WHrlMeXEM02lf36YRp0qgy7pNPmXzVd9Xnqz3pDLcg8dW9ejbl9e6AxyI6264neCviXTDLJpl7UjaXuGs5SvLkpgGfOdFO+6Hodgg4E5rXVsZTetcFxdFFy52ruz5oKHS19e2vzm17/a3L9zf/PWO+86cMd3nvMaDGkDFMACUd3KB/Tgg1/P5ddx9D2t2a5CN7Tw03u/+9Xmsp7vvKU14M+99Ip8QA8wGb9eqD61A0D6wtOofbeBuh8S4PtDzOfZNxtOzZ3aES0visV5OEBR70M9SMTo6tz9xf955Xu4sqNljjG4B4CjDW/blOIYMXWOH+dYjjQM6pRPxANPzDe9I4fgVvOuXqp5oPTZyetIKDRl4wQdOigvAW3q4IEnefNKOE/a6yiZjigG1TFxi3pMdfIiT17uCf9rlLVG66kroNf52oYzg8UKRj4bKFHQ6G/5n/NwvHOrjDOdjtHSlk1nGGlpB9Vp7tGdYdY5TbpNtdUmyj8PSXSYYuGFNnJh/Z/a0/mGfB0qIU/avKWtlPA28i5MJMFpyz3JRC8lR1nszv/hhJQhT6tZ9L7ayyO6p6Tp4wMBUM4XvQ0+bW+jFo7vaMGwP7x/UXOm9U3Ow8c2p86e9lCOdSkbDk1+F2a2aHIVO8rSBuvdF7Uc0jTZRuekf/rJn/z+wbs/+vHm5dfe0Ni1Vpf0XeE2n2tNe3LEsAdR9XHxcXPW127XvmtAPRzxsgQgouaXVaj21UbAzHZCT5wfPtBMQuYUG6djdIyxAWwMSdgYMUDQ3Y6vfwxn2PUHISXvNPael2YVsJ7HsO2kMnr2w7qlJKrmK+WsV33kyD2/rk0Z3zrK2OMUK6+Uz6e21gdT1FWarRfe8zCQqHOAl+8cREuy8UVsz612pzReClI003rL5yoHR+kk4KlDIeSbZd8pd/mf9UWeRl6mOmiQt8cz3YDUSBsVmO5ov9JIeaRZ2ynZAkMc8/zKLemGHu04jgfpRefo0PnoYBkSgzLXygO/8KwfBkc8G2OiRd7Kv9QFz62o9U/npEEPXpHE3GKbPuS410ehUUfKZIjBKQy/QUnpHpsf2ZOWgMNDd6SZrjo+86a0Q1rq4IUzm5MaQyY4YUbSQV2jc+p4dIIN+Iw0bS86dXavmw19bBg55EMM73Gte8ceb2ohqF/94v/b3NFHC37wgx/qJZqn/kqGPrJqoObBIpMk9mxrt7ZbFfJU6qL2/fkhAW6NZTCA4n2+TTiiggUU7Axx2oxD60RACoRh+hklWSOXKnF2wsUoh+HOBpyhvNVVAFXeRjyi6OIU87vFW4A7LxdAv7fRC492pnUnT4FgdQizres4Q6Z9xVGY3MGtaGbNkt9vZ+JIC79Zy8PgPTboAxaJsuOQLjt0lfQl++qA66Wtozrolm4cqUU3lYdCzetjAxZ4GX7Nz+C7OmlF5o/dF9pm6GSMv7utLYCpBgpT3yzPrFsolef+Ur76gcqsk9IJF3ASbmYalS+6XelbrsE/zxqwVWKGaCBiz89KlmEq2p1clMWedOgu2neQuYOzrobM1s445zgv3WT99NN6y/AnP/np5sLbb+sFlhOeh28aQ3dR/RpwYKvRKXwqkuahJJ2W+OiLVBErnZm7A9noc2KSYTmGu+/evaUx619qhsiHfvDItujaZ3u6gZcA9et7Wqsq222gRh7GqT/aa8G+TX02MM/zBHoVqTJGPUx/Md7hIBgHue5x6wZxkG9ytDrYTiPqddMbu2k5omArLIiakJuHlDz8Y92PQ4pWnHcsetNypUPpma6p4ZCgw9iohyiZKIX1O0jJ117yvb680kvUFGnMf8HGEVsBOXVBlvJk44Fe+E/0zXHfhiSfZVTGnTtpdeKmca3X2xn1Wn9XOjj8eNCkxC0aQ/ZZLxyb5riFmgEKqcuLx7MRbNDskqQ9n/VKROkWpAwd/LCcmRcokS8UIwXkXYVBMh2DU6rzZItVDF6SvLYp5+U5N0PU0TaA1qgjEDpsJIRTp44XOUeF1K/DtNmaFx2wPg0d+GEtFvaSlkbgY7t+aQfZPKspepNI0bN1gXbGPqLothl2A8h7KVi9gMWr50e0mBkLmh07qrtJTfU8orvKQ5rKd0igff/utc0nf/qD1k+5NZh9qj9vqnbAek+3XRv6mKTg7cSL2vGs9SnDnor5zZUxh5qxNyJZgxr2jv/YoRKF+WZRhmyDHKTq1FwrsDj/AIoth60hjzRIBBDqfOO3Eb0MmTVC+BDqrVt3l4cveQkhUXbrgufyBl2OOyc39RA16xZVRv9QrY2TqIh+OxcaMG2nkfL24fHwpivkhXYcOXNpfYU/3hANnhp5R74leYBFOqtZNzP4NTcyzWDdPGveAMOs7/AQfnpLv1XOQJRomfuhgTOD90f5Ki8zDai7/Q2qPgjgRWGxF9cz2tf5wpMfco5jyoX3aNA0odGy/eV6avGv9bZcET3srW1ANRLKwxDOM6qbT4gtiHL14+r4ZxEwevoxdVok+k4znfQioi6zxAEzV2pv+TINzzXy0DpFw1OjdteiOwCGN+jEGZ7jGQxrhHDsjl0cE0R0iii88N4CfN2/y7o3Gh/X+u62U2Re9Gi293pjCPeCdl4rzxzaPeBgV4F6NCgfEvhAOx8S0Ncx98dWR+HNPTbWHDhwQG8BymhiuAEvR0s8YIy/2ZApC5ik3DDoIZZBRnkwPpmnrspQdWGdv5vyHq8zDbuNS/OX21luS1nq9JhmpNy+ocVuBNh37+klgbEA/ajKPwsQGCxCe6cxJ/LF8MmQ+igHqPJasB8olVYycWZ6dUqAHX7bMczOQn3d4kNxpm/KQ16DzihHvu6lM9PkGsDNtQA4ep3rHI0zCjfa3KJBfbTJ5OSP46/yQqrpO3mhas8IMs3kI291o4I1lwVYbBfcy3tzQyjNUOl/6T1NbLKI6IlrLVWeGOawLuAFPSoPP1hU238BNpMNgDPljXx+4Qk1uu6VX1uHgZfRdVMzbTr7F05rjNjZdc0iZEw763ULiMVPpoLy4tRhy8XdC5H4QQ9l8PzliCNpP4QUEXbqUxcjgrpTk54Aad6eva+hDu5yDxzQeiEv5Nukc5vB/VPYTqtOouoz0vOne8XPrgL1UCL3KwA1CzTtG6CGNwyWcbPjWggpS3lifWwxep9hlNqGLwznDchkfJPog5sFm9wwXnsApZafOord0k5VuusvwGmjlRETTfOF8kuXLtuwmf3B0pmmCkBox/nrlL3O7wowPkse/R48wJN10inHQ8nQMbBpFkjHDT3mK9p5MJTyazSz0g9+DBDx7X/0RJ2kzUZcnsvfrAOO532nLHNZ0gJQgG7xIjoMDXJoQ79Dxz6nDl8ebaLjRu2hzxBI2j1yrXoudLrkmmiy3VL3eChm3UUmdMFmHS+5oyufip+DsKr87voHf46MaWdfWnleSIia335VPvqMPvxL1tHmow0sN5Tm/i3KMO2FLx37YZ/bslIPnvx8Qy9kMaWT/kZ5M1MqAI1e/Hr54Pt53ZEhM4HQUQ1nEPbwli19FRGyZ1DR8Xu4UXeymoL69UM+7Aw3WkJBL9XA9QH9Hnj++Oa8XjfnA9D7YIOxC9pZ+pRZbXuy7QVQIwhAzTj1T/ZEqm9VCY7ELIcHGg/jLiYOYaOVsTG2iKFgOJhtfWUGmFZDGv4LsDHeDY3Oo+Y6iX04R8jsiF3XoMWGsyS6lhHLkhl+5ffoMb2yixnzOreM2ov+D3Bu/vIArV4rj6VLdI6XxuEBpPEKOb5rnuPo0KJTEGIr2s7nowCa0ktkPl4QGvPKUQwkMs0LD15lKm/8VtaZ34LZnNaodNZNjxspL40x0S2t0i+49XpBj/QZoNdj2sEtt8Wr6cQorL/RnDne0YY0Z+1krs/XYiBrhkURujTo81O+XdcguNjOIm86Fb80Io5yb4ddZYe0TUv1UjWbWeCXKN58JqW/zuNLsnc6LNlZzpyyOXpYr8Lfvbs5ypgywxWiQWdCgIN9wit2/XAEGYDxAX3px0NuX2eFPYbT9HjDSyI8pJzm8+ODLIjmdiKK0NqOzxFQyNaJ/p97/ujm5dff0evlr8s2s0yBGXu6GxE1+7/uFRt7BdRdoKn2slfyfWM9fVMQg7vH0o3M0QQQdcFgOEy80RvGehBEIixZHAKAJZpexcLgGL7gimnES+PgOAH/RvmFNhGYstrYKYcTyGiPKoJgbO+OHIS1jdlm0CqozdfreJ7POxwSFuJIOD93AKojfYWdizKdfmd+GVOUU3G9bwDODk19nOP4eTCXV7+9iuDYymd/y+MMxMi4DRRIv8rIcYG0dNzJTRs8ZC7v2qGYxkJ7dIgAwShXmu30uOxoWv+SJ3y0muiBth9yQ8vtvOYzf+O8uuY84OOC3pvmh3GhaB2QTJrT+ScjMs1Bt+XWKkfaoJJ0sg/LLT8hbDLRADxXEwFbSFgWX17lcBurIPo6KP84xLolzOnXh56ZgXEI+1QaQUXGrnmDkYfUDHfQoYvmg7satuNBfe7QsJdM1ctQCOBLACJCqlsdAEOQBnTZ+9fPa+Gm1zbv/vinXmVvH20s0HRBO/jJRyR3fdsroGYN1w+039C+LzRegz+kSOH2+LIyUbD6+sUBbbcDRD3ujEMRv5AwfLRRbIYs45gkCeKct4Dm1czskAE/wlCfGzW5jaQMzk8nEf9kFT2+nAHw4/Ck8eCz4FagK93F0Uc9sE8eOzzUhyPy4DTRv247x2u95IUOUZr14Ntfymw/2EtUTe50Ztw/aIasnY8vVacu0pFhGzzLd393prcs6T3md80fHkMd+pGtdLhO3spsGcWf22zw0zylEd1F306z9n3Qo5yKLptVOG0zr7280DT4RPdu05Fh1lHaHLvg2QY5iGZjJ3OnNpcJmW1dhz2uZew3OgvP/jv+zHz08k4ZZp2HznMKZvQhCgH1Xc1pPqLggTuvI7rj8+vxtLNEJWghvr9375YWXdLr5hKHoYvnD2mNkOeP+eEhIA6PyE2hjJXjC/gBr5M/rzvJE5vDR/WautawfvX1N7X0r16sGbY0VPi0fxjCfUv7C9LPpUfb5smzt+tAPRqdBZouagew9wVQo8oYd9Zi8IJMOMq45bOBAly65qhx3OoD5PT+NhzRyDgdhpr51dDtjJDV5wG+AJ7hDTBR4bo+UAItT+WiXkdTiTyO6uk4iyQBnDixfVnbwI2c+HxQGxk4w+HZ4HUFWPEip2DeeF9UQAZPOlR2nAmn9NjhAAxoBzSglah5Nk7ArdFp+QiPqX8+Jr1AMOctvZlu8zUCtjDIWadF1so7yb9N1xqg4KIj0/G2diQpk3bg+qLPqWz5cck2REkNepbYHQT1cRIQ9uVRZpF/lHF9Os5DXXgNX86f/845bztpJS32Ud4fekxFu4gDhGWZsossMDl0Co229axD7JkVFZ8/9JzW+NBUOo0782CQuc55hiOrtq2hP0A3L26xPAPDbge1U58fpmrohKzYM+PYBxVRn9RLNKdOn9ucPHVaK/Sd8rIOADxvKx4+nKh9W/qnfsZgOUDNDBAWndv1bdeBekhAKxJRM1Xv7V2X6ttWoFsznizz+asuEGODw769yaDhXOeOc7F523WANFkA7Yz5Zp5oQIuMLitb5sfgzfAF3qLjZRqbjZsc0BctB9hxcl6ZZc7qVX0klWVED9xcI8hEvYkUzQcUYE7bDCJ1yjomYMD4IAvAe3waGc1TWLMXafMtrSNCtkyfgv6jL76kPiJqsvPqefSzKHHhC0o7Aabn7cjIswXM1K56e40OzJ3OFlC2rvBujonQtCGOO1MxF72mo3CaX6uPTtGDt6HDiVIiXdpTyR1SWdNTjLTt1ii5R2eNLnEAACAASURBVNvE1SR51YdBlavhg6PqZBY1+hp54EmH1Xc705X6qu/Qrex0RDCgwkPs8LTdmVnvSmA/fFifhbtzyx/RYHiDeu9p6hy2f5DFmQSstA1DGQ5mlOF5LVnKImOA8SFNg31eAHxE11h7GlB+QQDN90VJc3mGPiCMH+h3Yg329tsGUPPR21/tBWN7BdTI8pF2wPp/3gvB/lIdNn5HyXrggW3oQoEOK46R5K+/J8gYpo2IctqHFR3SbR2vtjLvmRdBrl27rOIyYN/KCd5nupSHtsoThdZXDNVkx8CJfEQeAGHsjqlNLD2aqVy5HpDOiwaznMjQ22Wu14Ezm2F1UuasrtcYY9Q5r1mqZsYGodFZBNWLhxH4oIKcycMi6M1DKENHKjMwbgLVpFWvM4DvPC6//HYeeEG0dZA2H7eM37Zsn4L20C/MuK3Eq9LyEG00GgUHrfABXWfiYKTmh3S307QV9DtG3RJ0uGm9AFl1B9nwA28BQ2vbtgG80x50JD70BkxV1uh1lMM+BpDRMarrVO50QuQv+9E5BCk3aDp95ZY016RLvt76VUBQGV3oB//gU1tHmHInZTK33q99k4sH3F9zl3VQYK611AXCR/iwreZcH9G66szUOK7vKJ4+fWZz4uQpXyNSzp0ZvKSechVO/y7+8nYiYA3rO03kiQuwl0DNhwQAauaY7YN5NjES1ta9qa+FdzoUButjgZHfTMOBaIc8mnebuK/X+SlFBbxS+/rrb8gg9RHba9c2H3xwcfPhh+9rgv4N5zPky7E67Qna9gk7bIZb4k6mypRWR++U48n3QSINXWQcnS0O6MOtbQaw5pkdfXFWeFKFOBs14uwAt0a+dSzg1UOgBw8VFY+hmoDJ4Fc1xqlRywrSZSQyxWbnY9JnvkMzwDMLsVM2zrflyvi9MRkhaCfyqBPdcnR0bDkpT+61AwMQ25mVdn4HPwOwGsF39gNVdnhn4X8wH6gdJwZeqixHO2VIMrzNEXNkH53FILW2X2gsYG7ys8TUud5tBfyLusm7tP/Qmc8Hidj+oDkyOgk7VX60fl8PBI8fOyld62Ef63vINomYT2gcGSA+oSmu+MOxE/qgs6JkppbyAQzeOvRKkKMnTbNttdaQ9u/u57w4vqD9pNru2nZ7PHlZ9gSoh2HzwgtAzQswPDV96ht8ERncv89KcR2TTRRsV5dxGXYwbn6AT/BBzn7g4GF9ZfnNzTvv/FC3cC/YcV7QOtInT8pANY7361/9UsataUkCfPuUvdlxik+g1cgMJw0w4BlEZfkHb35oo2GKe4p0MfJ7AiWWJaW+BTDqhWZ1zFrRNegSnTI/mjHFgAFyAAh5Wo9gdEqODkfHAZPwU/6IvhNF83rpOlyw0Bt1djimETGS1oCb19I7+h5DRDovKM4yca0R+3pLH8C3KpEfYhyPf9BMfekgPV+Xtpv04/xukPHrBg7uK7cOnGIdeQbFKD9DywL0IeLCto9Bt3zwS9Vc3sGC63SnTd0EBByPfIsMLjQYdAk217Scuf30b7HQqaLQS/mwtpb1jAxv0KIzg9C4hszwxCXaXufMdj59/vzmzZ/8h82Z868InE9vDvM1Io0h86FbHnozrMEwhzvxlcOto/DxDYl/X5f5uOlb2gHsa7vN+p4A9RCCaSwXtfMhgX0B1PDFrT63Zzxci5/i2DF+0nGluKHGaX1DiPM91JtSJ7Wi1w8URZyQYfKwhcn6B3R+cvNjLc14W1H6+394zxP5/eq3iGK8GHyAg/PUVceLY9eBUjdrITDOd//BNUfl2ZJnBaZxdTgaju7hixEVF/AKWH5SP4YtuGvIynwAaB4oIn1BOpQBkYBewXgGRa4x46Nb5Wh9XN8CR50v5aUU0lj7gSlgAWjHzLq+3tI3SsTRyd89dYJw0Rfj0eEEbQcuCg6UmXnycwkS1WnlevMnX+94XMdA3ORIreaRpPXURwXaHAesk6VgvKPEYLC8UVX0T3tH7zPv0W9swR3qwkE7ppUhR8tQwf4QVb/b7ULelAuZ6M1vH3JB+ZkJ9Po772x+/LN/2fzL//i/yl+OeywaGzpEtKycoR3Zd+pj5eZ7dYTYADVrVL+/25LtJVAjy4dj/+92W7BvRz8T9hfnluod4zAezVMo/fdDQBGLwXMbyBeZDyt6PrN5+eXzMlCtQ6ApS3xtnJY7oY/TntDt309++pPN1WtXN59/9qlfYOmWcc2YciKzRDONQgtAdiYRPKRohS9pANjPiae7+tYcXkFdMFjH23a+pELLL7BoA+TpaMhXEE4Z3JzoWfnEqD9QQNViK1F0nR+eCzoByrwgEucs3+0gKi/XGzHngWNAmGsZshAtXTLgIBd3HYCL+A1/qSu8BOjm22gryS2UfK7XTec/I23KNYDLd0auT9lGPuoLyJb75LGOx6W5faKRkcdVJRc/obXWkag1RJAVPZW71ll5kTUdIznSlj4Ss7WZ1pG82xFxQ4uWNFSPk9rJXGdsQhms9wx1rIpBJlaYPL45p0j6lIY6PMYcUaa/0eU2x49k+r5d4GEiYL3r214DNcudXtTOeoW8ivnUN5zmhj4x5O/A3b8zwAG2iLbGQuU6w5gZPzZga3/5lVcMLswa+eNHH25+/7vfaKjjnhY6/8nmDX2o89zZc5u33357c+3qVUXD17VwDWtrxLV7y+t4aXHubZAoIOAUmX8qXvRGF9E10+cOH2VtkgN6Ep+hDYY3urXsAshCJc/2GBEkvwB46y5o2DmRXHnhl/J5rT0ABED2BRjqiIMDrABtXTcdQXkAnBO989Zjm7xDPWMYhKLaA67rQ8kCKDzl4Wcj7GBi6uDY8ww0LDV0KIYgGXiFcI487i5+VtANPVKRYW6L1JdrXGe3zGa0FKwu24PrG9ejm2Rbj9cIOKV2/o3+yC+1a4se+tA39acTQ7K0bTrT3u1QKk0ofhYeV15nfW7Vbt2vXUI+gYWkyJyFlK5cvrI5e+asdQ2n8Llzq452Xv8en/dDAsck464u7bdnQD0cmw8IEFXzcUjGdp7yloXx7+klEjs9psl6G4xNEoTIYfySi40yDsqYHVEu49IA6FdffbG5+P77m88//dSgdvv2HUe9P/rJTxRxv7x5UeN6N25eX33bfhOn90wSRU8r4GWhJAOlvBVg4RVceAPkvR6J8jMGeOIEc1QPba5cuekpcbPjLNGaeGcmCjQoU9Ckft7GXMuEB2a3sI22ylDIOKcsfCJjQLmOaohcgJo1Sojy8pp61nqgbKPzdBYATCJ31MHNCyouMPh7lL4u2gMQ3B46DmjmGKUaHEf7BI5R745OD11yzUlrWvVUUEb2QhZkyUuelAE9w1ftI/nhO1v5i14zrFIdm0+ojzuF8pEyqYt0zhGnwy4tB18Z/kldXA8N8sY+01emnsFSOiYuWR54Wsu3PiXoutpMienyoiu3yNAXbyJiewxPLQK3kvG72tOOhO/vKV8yIKI+Kz3d2k35cx+6d4pk6sJF7cwAecpbDB3AYuGY+4qmHUUDojJq3raSlwZFuBUd1smbfHyNWdgjIHkgoP5q85lAmigXX7x27frmvfd+v/nkk4/1YPGExrE1I0TzR3OLisgYv5xm0LbDDU0szte6lILzsTZv5gJnvjYGAZDbeR0l18ELGTmvkxnwRTNvJFKKjoDikk8y4KCmZfYAitVBW4893XErkTkPNtnXKL1j3vzypL/j4JBEx6wdYqAYkTc8eSYMPKALK2VggI4b/ZeXFTAlO/KLZdoA/jqzY6ejBPSiEx8nVIUlbwVBfkufduKYcXvYYksd0Ul4botFV+Wx9KKr7TpyJ5I6EbWbxR7n0TXq4IL4xjaWPfkia9y27Q4tdwD8G7Ks9HON8+qH+jrElHxhguE1Ov/Wy/ML6GHbL51/WUvuanaUO+xS/4f/ZV7iBe27/iGBvQZqWvYD7UTVT3WLsTHme8eRpj/uCmhoI2pstGWjdfQXQPFMAP07IrBm2OOLL77QGPUdgU4cnHJXNdzxwcUPTOcVDZGcO8cSjYTncnovaEN3EFAyjAxnLFjUOZ2knVkfOSKr6hHdK5dv6AOgN/xKOfQAghnc7Of6R70AdOunc8HBeXgXecnjzAOgzc4CTvDAFnAOvQDKCoAFGHgLaHV8OWULmAYWJBl67hAQlWd8OjRLh9JccSdFNGs50WPzhecAVnKvYBQ0WYEuvBVUyd00t7V4X3kAgDPrBQ7SLulUoofU5UgWjONOJAZFwgq0o8Olc6uuXcB7t/m48iSqtpxDp+Qep6Mg5dDDyKuj2W4W6uOOjbRsKTOx68vQxk5YpXHWUXR9wCtM4id98Fz6z3790subu62HpwHUvJ0IWI94ZbdFfDz9RMhx+Gt6EIjz9CWPRoc2fP0j10NmhQhgAA0MmRdcSKfsA0czrLiHk7LY+b3Nx3/6eHP58mU/XHzllVc9PkudlElcqgeZjipXR60z1eES9bCGr4BaTLQDoQxT9G7fZlw6MhhMNKcEh6MzyAsJdDJRc+EB2oCdx70VqVPAUSIS6Lgg3MgS7RX8vC6D6kvEl+vQW/gaEViGOQJOHeO23E7PsA71mO5SZ+hxzdMf2QmZRx7/0kpDXwSdS0TulGSt7pp31inXXC95tTPE4nrKSwotOJoqOwzgRP5MW+yjV2Et7LVNuECxtAO8VJemxvlErR110sKj7wJWwmjfe7ZIMlSi62m/2o3H7oa0rbcv/uS8mshdHhEzz2uqczoudMR66NeuXNmc0XrUO3me2P9HPWS50wvad/WZ29MA6i8lFEANOj69TTaK0eGkt2ycMWr8ymAxgGEng9wOHjt6XA8etUCSxqMBHgMVUSJ+KbQm6rh+49rmj3/8k28bz59/yWBbugYP0a+D93odjTrtQgy5KBOdA2t+5HZfU6K4PVUO6qYs48IsdsOnuzydj9XIyAEACbR54WCOWAue0AmgE2FnXeGOZQ+ESR2iFQev4wc7chvuqrwFT5DN4lm/bI5Yp82dgTJkyiJSr91mgZOSlPMuOnQlnoGz7IB+uCyvVLG026h7aHK5bqApMNMG0HYnB/ADvOVdD2k9XDNaiXKTXXTMPfQjHG22VOv2CT1fc12r3ubOYWl/2xwyoq/Bi46WzsT0w080Fn209vBUbQwQNs1sKTvk0aUOf3ToqEGD9WPboRHFi+4ob9266fzPWwcLyWcH+oCAlPCWdj4ksGv62LOHiUiAQUoYvt4LUPMhgaf2WeE4UYY+WDimt3RVttPro4AEjieGWXuX8VeMlrFXhk7saEo0mNg/VFZg/ac//Wnz1psXNJXvtMarT9rYAQXy43w9TqQe+gsYEDKKgTqFx6lVRlO2Xb4bfDIGfuBghmIcCetO/OBDot8AA+DLA1D4ZriGMswSgQ48AOJfS54HXxOhH9BQC2PqAkgWbvKYckAKgKdcxltTljTykha+EgEGDMMli/SsPHf2C7xFZjQnlExm0+HhH0BsYXNOpzXJPR8vehQFuM2Yu7keVyAd4OTI8tK+qfGRv01xB0L9lF7KjJkiwzjQN1KUn7RMAZQaoJaa8tAy8nAd1ZquKLizGB0GFdb2Wq+ZhOcmmOoqH1ympnCwCKX8pPQuqNdXOiYcxdW29Jt1YIZNq81fVLBx+85tD5kl81LDP/oB45IA9SvawbRd2Z5GRI0gF7WzRvXT24aTYHwAaxwmUVUiN/wijlF3iFPyZuA9gyZjep4xAuDIuMEazw22833tseobWlAJ4Dv9wullSpzBFKcc9LkZZ3ZJHdcRJ9vg0SuVyUEc9A9HpTwbv/CDr/kDCErvOWMxDzREwup7XLurda3hjSiarWDdz0pRYUGO9ABB9FDAWADJAJoOhw4gPKPHCdTEE+x6bi5YrJ0OEV66wwOzWfiqNp8F4zhf2zGLBi8PO3EM6FCBj6lnNd8CT3lKPtovenYxyuvHndDQf39N1FtbewyT0Jajndy+Q+7l1/nRFTsZqgPyNsVZFjqOmEc7upx5zIPWvg5v/kceFx7tzfXUxcW0gY+sd+fURo7+rvxwZafOKlvSoBibT3vBA1M0FVHpC+ROHaS3gX5U94/7A1Dv6jj1nkbUUzv2QwJPrWlHnGTju379igHWd5z+xaGHAw7LrNMxbspYHg7zvNayboThaEgEWFrSt7UyaN5OvH5dS3Dr+MyZc5uDH+YZKrQKFijAY7L6NSgp0XVBgBidWRkjqoXBRkaMo/Pl5jvqaDKjQkMjvA4vUCNqBhC9nUynQDk+o+SonFtYAX/Hlg0K+KT+ubwAPZ95SudT8LZcyrs6aY6RJdP3wBYcPRiTW/iwsQ2y8faCREAVEBkPPdGFs4yOcgBy6279yBTdrHVQbMU3dAkz6KJ3GDpHv/Cpf9vDNwWidAitJ6ys16yuGEQqdus9upHHVmSdFVSZYil+TCR3H2RBt9VRwThFp7ueUcV23YgTPSUZm7GA3l3/2EI/d3QuJR2UlnUGT/RG1lfsEAl4mH3zxs3NKd0V0ta1g4n0P/ohb1oD1hhZ5rg+YY083sKecCWPIcctwkXtDIM8tc0RssABsLNTeRc7tlcZPA42uHPUA5Bq52srRIIYOl9hyQM7AaLOAT8PA6gcX4y5cfWaz09p3nWdo4Ze0IyzBDgMzgZ9zuFDPOllHLmHF4liLNkOqApOaOEbpgB6qEKAfuXKZY2b57uK5GHsGtrbX3hWQdHMyzcRNuDPdXw1QB6eLEVc3s6bDqa6cpquVx54KvjujFgp0zQT0rbSoZ5uAY/QZNycKH+lG77WsgHTyMExkbmxZgIiP5BLheNXP7oECM08QdvDOqNDKkfmXSdp53TIVlb3mX2uDj1C39UOQomkV953FEsuI+ZaZo74xd2SB9qWmo7I/I1/Lh/7gYq51DWODiiv+3yXW7jKOdecUP5QIsNizAbRS2G6M8ynsOayofXs7+acdABQs0DTrqhjz4F6GAiLmHygnQeLT2+TEd66qTV2tXwjTuj5AOCRlM2PHhEO6+Wa/SFGr4NbtzQ2rRLHtJZ1LFw/BrNEN7gN+XmoSFTMYk3P62FfgSGgwEObPFSjeXGUpAcUHQ8BGoqeD7LEpMduoR8wuKmHoFmWVMMGmmlyXw84QaCCF7+ZThbH9SJPBm9eprEfiryCgCzZZw76NqZOvK12NzqxXNX1yIocBZPwlQiebCsQh1bPK/vaYYV2sWPWc3gKgEaeAOX6Nh4mTPlGiOZ66CD1huU4UICLEmu5la8pv6lmK791wdkZ3R7qGdqJR1/hhc6+D0CRKXRK1Sbla918bDmWin3uaBtunNcDZQOyhyHskLf8Vi54dFDALBo2VzC+VZgLPmdfdKEzt4N8gDu005rxwTDh9h2ICz/bNpvjUsIF7XxIYFe2PQfqIQVeDlCzQNOebwE7oovnNoAdLmkfCNLY8diyqhw4JjDCgYbrcp0vgmO0LO7P5vL+DS2AjLHlK9eu2Fm5fWTmBuPaa76CS5zQdfgB23BY+PItMa9fZ1lRovM4lW5HbrLGSN5M9FdZPJ0X4IzD8csQCNGzh2XGx0QJMLnrJgrv+G95Oqp1hDs9MdeoPwABHwWW6nAFpqgPXc5bHb/0Z9nn49ANWMxACL3oPXSblvrHncdANreH9U9eflfzNuWRz+062rjyZCgq7R5TQFg4XEG/efmdefTxMIBKX72YB3ZdsCRu2pFL1x6RVaQoS+5FDhqMITmLpT9UZ3rJZ/C2rAH16jIPfZsW+S02OrI+8rIUUXMfEC+8OVv4vK21bM6cPesOmW2bZ196tq0LNO2KLlZL3hXyf5YoA7Yf/Nkcu5xo0JPB39Bc6PkWM4YoENA/oiJup+2LmLd+ecGFh2HcCh7XYjV5WwsPIA+bMztQvaN1pMmLI7EUZBx2OJqIHsBZDKIk4crzhsfmdpVVykI/0VHBArrzjJU6E+mLoxtYsgAVM1WIkuhfIBkM6cO1h+qAbijvA3cMALbrlBxEsF4F0DsAGW46RFGQTP5ogeOtYZ4xpIB+yyfpbFwLz+mYPNTELkWmrplWZQtvoZFr5HVbmWf4WHmZ65n5XHUVvgLiafPyWn7NrLZerx6Q33wsencNy179bLfvml6+KbNa0k73RDBpRNPm8hGLyAz/Xlp01J3f8GguAHkz2s4rd3GkOd16Wo9LhzLIxIyhe3puwZeQduphKfjsgLcTL6DO3VDFTkvYjTq+ieanSgCosyL+N+XapesYIetFP3jY7xF2WGF1pQIznp9hkaTdunlDMxTEtprkiMao+WgABpy5ymJY+fELAJQZEcy2YGMFMn+bUQBE+MuvH9Qpb4HJJ6Ot48Z8W06OqJNOK8OR4niPKmd2OlLjdAER1g1GJnizwxGisfNjRx7Xl3KxOZIA7TXqImfyz1Grb68H8BagVx5Cq9cXUHFdiQ5hJGxAu9FmANw1OjFa4bd1cz27a+OPt/X6dlRcHTW9D1VTdwE/vORuInpc+Wun0Qg+0Wy/WlJdVkbzsvDDnQwhgKgxHj46E+rmmDaOHknj2tom0EE66BMEpAWiq+VsnKYsETCd3ZrX1Q0aLj/ZUuhN6UOvR7TmNDOY/OLVKJODZ38nDXSBpuNt/yepnacC1MNRWJgJoGahpj3d6qhEk9euXvbDkm5+cWWAxOJwvsJM6hg+L0JkTjQPCU8p0jih9BUgbPzK6g+CMv6t8oBcDR2wBigTmSZqz4JI6608jrvSjKt5SGIBwnUJU+SBVzv6SG/kw3Xq5jqRIvjselv/cHfrxEiVoROGUpgmR16SCtJ5uSbT8er0iz5H/fP5zFOvz43tDoo6XPOkQ858Ox9gWo0/PNIJRp6CdHTU2/m13FxbjksLcdFHouF1HZWWiE4DoCmzDi1w3mvkn9tzpZ88yG1dDYVVD6tMqcM8j2yhnxkabdPyBZ1tGpHdbQSNnA7+WioaTkCAraSTsa2Pel3QOuEK2+jUpevj+sTWndtjIS9X8GzboQE+2v2W9hd3QzNPBaiHICx1elE7S5/u/WZM4KHgLUW+efkji9BweURIgNyADzuOysh0lSFzpBnSOHXqBU2908tJAkLmejArDuePKXOLyZuMxxwpEVn7ZRmqKMpBDeDUP4PauF4Qp0YcEyfk7UOGJBqVEgkGTOK4BcWmr5EZDsf85fuegVLuoJ3x6Kg/4BC9BOjDU8a6AW2APuPeElgZ89LOTmAKNQAjs2CYIUO9mTOd2TKpCyAbwCIZSyfAtspUeo8CPfyh6XQmkd9QNckYefjbujrmbt2O65GNjrhbZC8vy1U3bMpRT+Xgao9TJiXWdLe629hyuJ3Xa22z0tlJu8NbpM/APetk1SlKzR0Y+cPteofQMuijbyNSIDNI9FtUcJvogfutG1ri9IznuT/aBpHz2V87BEC9Kws0Pa151G1Xxqk/0v6f9rqhiT36Agi/GCQg+QDjFDMyV7Pkv9i9AUGl9IMhX7p0SQashyxao/clLWf6/h/0nUS+awihsQVceb2btZ81xsNruAJM1k/YcirlX5yPYQDXhS+HF455LXyOkpd0ES7AjWoXWlwncupYM3X4mLFw5B18QJcZIYcP5JNfdDTbtALQyJ8Ie31oZx4HD6QByOizEWaHFSof9aOP5SWZAVrWd1Ru3kI3vwERjrPDGzcOxrq205RG/qkZFv00f3lZgTXSBoRSlryJztNW5WfWNdXTwYZfm8kAO1LmB5uhX31Dd2Qe/KdTSC7+AubU32mgHHNnxDODjKMnfbW1lMFeRFu6IUDgQ7TJHz3uBNl12Ep0LAR7Oj0YGFK4LTg5rk9vxaZIebY9RgP9kMD/+Zi0v+nS0wZqZn1c1M6rZ3vKC8bHutG3b2cqd26lCYcx9TiFxxBl8ICNbZWBYnsYy5le0cdsr+oDAS9uXtWiS+fOvailTf9k8AuYBQzf4MO3GtujHqI2XiYBZaifaIa7TL7kjKPwjw1HZsaI39Dz+QDVcRwQ3AboGSyhvTplaIYuNUhGgXeBLOCPU7JIFLNAgtIzmJkp1x1QogPqeeuq3MyGYS9AQ7/OnVfvM2TDcT6IkLne1u/gewZD6sn1yLHKVR7MySLvWnYGv21gQb+0Reuj7rSrtT326BB6zdu2j+54yEvBlTZDYxkeS9sbMc3bEqIOPmNH1G/QHtsqW3Tdzm4dpogtLAXGQTqAdJjmxwx2tg6ZIhPskpR9W5+cYQOeaqgM4Q0yX2vlvBOy96uZirqz8mfnswZ4jfyCdr0i/GSfvdWC9lzdwygvqeIPtO/6xyF3CogxEqFc1pcr2OowWWc5xhrojJEbpDxEQebM5vjs88+81sdpRdXvvPNDrZR3SokZTsBRTr9w1gsysdIencJNRdQPFLHc1zQ5Vs5jtb1Qzy1oHaiAiI78Eo2c+b4y8gVo8qzAAd/myBsO26gNoOQYJ89tc57gaxBlASjoBCcYssl4dHFnpht+VgdufVxvPRwDLB3mKECTdwYgzskDmHdGTPPurJO8uRYZU0fq4Th0AdTMeCgPTVuBOGDKOZ3MXA91WA+0r/cA2cz3CrSj00CmVVF+0Jt53dwXqA1I1TWi/o7tQy9bWpz0lFn1M/OV44yJ9zjWkg4E+yqAJ33VB2urkA6XMY+pM1HF1csa4Uce6PFJttCFW+SBLp+Ee37MXlppLSI9O6gGeKuNV8n5kMAT1cqeRrGP4ZzX6ABqPiRw9jHpu3qJl0W8a4y6TmpjBSAFOphkXmKxV2UfDkr6F59/7rcBT558c/P2hR9qFsmDzS9+8Qt/ceWYXnD58Y9/7PWomRJ38+Y1fUPxmsCWta+5vZSj8VFcgRYfKViBIlP11hc6YCJj3ThOovvk55hy3xT9orxERokgOe/QA8cBdo15C+ju6zY7+f2zbCnf2+04uXWDPnZs0DuutyVJY/yefOWRrDvLZcgpBh0QfXRIqPW3qpynKfqq9JyH4/K2OsvK6+w/BThoc0ybNL00Qi+dW9uIC4H3mAAAIABJREFU9oBix3dtGr4S24GGo+1FR5ER+de7ESLp8LXQHeeu2/yk0+C3nW71sFMflSHXK0vBu6ys4FH5oOuOaujA9eiMOfeWSjphat75F88/A+qdyn/0nGUtL2hn6dMn+uztaQM1ogLUjFP/9FG5d/fKzRtXPV5spxiRA2bK5nmqup6URFtc9/Qp2/vXmy++/GLzwYcfbF566WV/0BZgPqolUD8XgPOxgDfffFPnx7TG79XNxQ8+sKET7awAEseZwTfOG2CkljiU3ch1cx6nXSOj0uN3jmTNL/JZpsjQ2RIABvRyq7vOLqDjKI2CXjsCrq80UQ+dBLQDOnQCvDDTYY+CQc+TP6AHHepio1z3ype6AJo10iVvaSQydhP5Gs3FZsD0GLx+fS06TrlVn+00ImNKJm/AKdRSFttI2gBA67LR+ayHdKCV28yVsRA0KEILfvJiVTrhyDA6GWVhvvry6rsEaWTucou8ETqmWl2pzb08afK17Vom4+7w6SzLRrpb1+8WML6tY5PXdzlv550BVnDsuP1a8tnRDg0QUbP/v09SM/sBqLtA02IaT1LAx9GysevfPUW2N7TYjNd2INqRxT8gsrSRj5KAmQ4p04t1qtu3b23ef/+9zTtv/1BDHC8arN99993N22+/7fU3AB8M+6rW+wC8+9ASDwAoCnwzjwUqO47ydEgG54Nn0qELyCUaCngWXOvI/BZ0U1deX8f5MnRCRJjZJp0uCD3Gjh9qbnleR185K19c4dj68HF0wy/l792bvL96G7+UgXfKN9KGN/hEX9t0A0LrGC4gliZIUyQdHsqLjnzM8AN5gzQBv86Hhl7aD35Dg3rXtijdgJlpMvZssdIGHGULgPYloIxZtzOgI8qzDasqDI26qY87GAQq/+JbzyWy1rjKokeVgbfu1Mlx5aQP7l1AdBNboLNCC7mW9qjMKR89Qie0e2528mFj09C5OpYTWqaXT8zRRqUT+Z/9fYwG+iEBsDWRyGMyfddL+wGovxDTRNVaZm7DXMQ92R4IHAyivOKttwdslPyzo2O4GZ7gHADajnrjMDj35cuXNn/4w3t+RfwFLWWKo7HXoe7eu735/IuPBdZfpQ7RMyjgvfKkggz5qYfzXkMRjYASTedV8o6pkt4yBeqUWZ2z57wuLiQQEGeRpoKTQWiASMAqfBzQbUOv9xdgCXAmjfwEYEwbBAiZ/tcZH613pzwrUDyGR9FreuWCTq4VOKO6neP0UefQXcNB2nLoOHys+mqkOctoQLUNUMewBRmDrWMAZHkhp3O7UMC97dbfTvvk4W0eBgRkAVc2eGDYyXUlntU1OrLQbedRGXxz5DYAhGsn6xAK0W86nxWkV/lc5WpPYYEr1hEmyTH/81KWrg97pHOFLtcra6g9+/sYDTCE+5b2F9Sul6r/x+T7TpeW5vpOpZ5Q5iEEAH1RO4C9Z9vXWiT/5vXLGvpIlVUobpevjtcJ80t6HQYHKjASGf32t79xZH39+lVHSnFUfZTg3p3Nx5/8cfM7pfPQ0UitDUdkVkcjsABeX81ehy9WxycKxkXiiLl9jqOXr1lxAADXC3Y+Zkxc9c7On+sFZvjJg0folwZ04WOVubNgEh0nQo4Sicb5OjuzXMp79Rq5o8OZvwJm01tfypMfvrNXxplmy83AO9NsmdS5mvuq27VjNBYvGwA2TjjQnuab86ejhVbbkg6dZxR0WgG1VeasYpg7Cr66w85MIngLQGfG0Gpb6xg/LLQDCV9lzhZrAHY7DRuD89prbCQ28Th7IW+HVqxbSFdeqYyhuzNnTvuBeGkOzTz7eVQDWidi+ZDAo6l/5ZX9EFFjWh9oZwjk7b9Sju9cDMe4qtu5RhI4QR6qZKZFI4fZMHGgggTHdf5rAuhf/urfBcy3N++8867XRMBRL1/+avOb3/xqc+mrSwPY5SxEMHDLA0U5aR2nYFj6ZFkdbERfRPZM2VN0HMddQZ388AOdx4Ek6XzAt4C7gNmKANTosgxFUPcMeKXZ4YL1PC/gcM74NGBNVH2NB6dBFKp+jN76ss3aATrj2Krr6iA01s5zzYn5LIhqvSQvUWJALO2U4Y3oZ+VnpdNyE2XJNMtASoeNelw9pGJALmPOoHrX3+AlpYCpk0f7lGcl6bBfVGn71S4K2o3CB5ei08gfytyhDb49nJUOabaDyk2uhecWoaMZnbuXckWGQQU+eAv3sO4YCS54gNpOaRR/9vOoBoiomVP9y0eT/ror+wGo4ZyHiYD1//LXifHdSuEsiSxZBe+WwdoPvGTkvgOU59ThY9RxClIKXnUg0ikLKP/7z3+uudSfbI6N8VZmeXx56Uulk4fSAL1oAKa4F6va6ULBYHZS6oGuuVGegrAdSgw3b52u6a5F6d1NgNpGnZwBxACqUyQzG3WwzjZ5e/tc2vzOoG1ocKcVQCj/TLljY9odkXYWo1qBuDzPuisgFSgoT74ZINtWpAEWpPUax8q+gE94XlBrKy20+TuBJKdjizwtu92JMkhNqZWv5Ov5UkrtQ+TMuUFNv/BXOVNVclfOWdakp8PMnQS6yGyU2GRrQg9pBxgzb6p7pe8rPm075th/fb1aMG++kpSZH66f1Ucv+HDAsWOMUQPkWaxrFHn286gGeDsRsKZB4mCP5vlOV/YLUDM9D6DG07l12OUt08f4RJUNr7ZPrfEq18/DcwOSIt+HdpYVQAIQjV4FxJrofPvBjc3HH94UCGqhfw2B3ANQDfqzw/DAsmCo6hT14SYFqoLz6lwDiAabOGPnRX+Tkub6AoqZFrZziVXnk+yH+B7jAz2g1Ov0bLkNDjh0bL7ykh5gJF/0MwMwIM1r+eWfcu1Eqj9+Ky+/Pd4JXKVbeYYal06I6+VrzdOhEniLhsoL9QTgAU7kyF1R0qPnBcSWNoMI7dcoNWVXowmQkoOW9PNJZaWNrCt2yxtwyzMHUmITc1u5wLIlPeVqQwkYYC389zq/tcUSaHCx6mjlebumRc+6XF1Vr5yf0BuJfPmHrW2wTeHZ2Q4NnNf5Be0npL9rbeO/RUtPHaiHQVyVEAA1L8DsyrvyjyrpOU2vu5QHJnInZnNlDoRyyjhxaN/i6djANDpGgGsGFqImXIr1gQ0CAgOWQfXssBFxNoKs8cOLyy1gkKi8PNZx6jTU7wc8yt8HO49z8NZTOskTkDDP7OJpBk6YT7mUCggASgGKRLBrJwVPjTw7g2PlcwWL5AsN+GAvKJe/6nHmt7R6becvuhicul0Mjx7D5jj1BZB6LbmpyzkGL72TmHkPrdIJrWX1PGqaO3SddxgoQRMypuxo1gHQ6Rwia3ghfabV9l7bNIBYXsM3lReYU37WMcdrJ5R84YPrDJVN4+ljtgvymg/+aK94cxtwjTXbWc+GO6QO0USSZ3+/QQN8SICImhX1nsjLfLHeb6htDy9zz31R+x58SADjVLR7/7YeJl7VeGrWm2bN6eFpA7hk4BiwHDy2zHADURKGH6eoc5APuOYcIPcbjIqo/MuY4XjCMwNpZ270le3qujTryHViP6QUPdYXYfy76bMD1tGhtR4XvOzm03V8M5EtPN6/n5XRyANvyMG3GJGXvaDhDsyAnyl2Mzj0evP2vI7f18YL8AXu8roTyGd5kKk6C2Cl00EPAFLqJFf4ZZU/6vEVXaoec95o08lLWupDX42uaxLJX+BLHWvZdsihtb5UBL3Wm9+5zNxGO485R+fZ5/oGhS2+mz7rq51FrrX9Kk9kLt/R2NCclEWbslOWYOX6tcvjRaZ1zevw8ezvN2gAIwKo3/iG9O98eb8ANYyzQBP7rm52GEXHrF3wQG9f+cGcIgyMNUCQ6m3gIwolLUCA/mvWI5/T+LPmoQ7DIwY/xr63gaKO2dtpaM5boqAAHCgjp9EPjsWwynobvQLoVmlkhAcx1vU1Arxrp0F+QNmzQXh5YzhlZ3HEicewy3BeaAKm7XAK0tAijToWBx9gXr1RjmmL/Lpu6tMxOzzOoN4ykT+S9Tid5Dp0EiBKHks0ECrNNx7sqc2q/9IhqCTvfF0i6NzSeOc4DyQTLYd02mqtpzQs1aC5LV87pnA5jKV2lApjQ7q2gnNlgta6Y6/hLc87crzyVN21dPm3TNBZoum02aJrFaDtHGgMntzOun7sxAk/d+BhsYk8276NBgBpwPqJbE996GOSglcuL2onjONVzF3bsEOmGl25wnS6ESnr2rBP1xtjBdRXgyYdQJnz2dAxXl30wxzRq2cZyMbYNvQKUqGNwQdMC3zUO3DGaaap33yUVEcjMq8jJX8frHEW/mZn67Qr6mY9D8WZBhMDjarggSbjqRlTBTwZXtHUwrvrXP3KW3AqGGcYJtH1DNrNV/7IB89cb9k+zCwN8+coPrfpkab6XjuemYfmKdhGLnSYOd1+qcR3QQD2DOIDuJVSvgqGkRXdA4SKyNVDopPUEdqzfFbimDZJ2doNeWaAtrpNnHbHYrAtztnomNv2KxA6N2VUeOHLudeOJzI/Cp5YDnWmvuQPr5GlMpAlNq08KpDhMTNlTilzWg8T148mJ+3Z37+oAb6fCFDro6qbPPz5i0W+OcO+AGqMRkbMBwSIqFklicH4XdrktAImIt1bN66rDkxafz3/OVXWiON4AHlABtPt7fcMujiOXU9yyL3tfn5BhWlZ+JkAtk4cZ11F63kdbnnYpAIHBfI8k2IYhRd0un7GTh7KS8ESWr3G23GHD2e4hn6E+gLKWotDYJSIS/yojEES/i0veQMQ85S8VRePgqhBd4zLIyF5d+6WU2nkZe/LQQXqGXgoO3cA1dqsMxSc88BKbIn+cqx4aNFIS3r56m91VbmSd6xa6Fk66x0AeaJXW8yQbaWbugu+VqlrNdA7P8NGDMeMhIHOgW0sh5TYD/ypgH9ymPqiv1FeCeF3zVP+qMvxMA9L2MKyDmb+RhrtrZR1tg8FYvNcZ62a03qZK3PDTe3Z9pc1wAptAPU52c0f53b6y0UfzbGfhj74XtVF7Xyia9e2Ou3lr76KkQNGjqq3naIMYPgFPTseQGPHjyPa8PkPAALIpBN1K93O73wCTgpQh3auA0AFIc63d1P37BCm9t3Tfkdzkw2CIsEDvm5MtWsUSj2lCc+cL0Me8KJzzzLRr6M9AQgkzd+Q0+Pt2lt+lTUyc71RMDzMwx2WQf8qG+fw12l65fmghjr4fNmPfvSjzT//8z97/JOteua4PC28otcde/KR19pefqk3yGTt63rzALyJkCnbLflzljoytk25NQ8n3E2l8wp96JIjIMxxHkCnu07bRyfRKVeSFzuobtWtqJzKsIiMfru5s2ePNQ35R8ehTHPb9Hi1I8qFH0Y7ajE781EXNcZSIZp2yAtS2MdzmyuXv9TyCLQRen22fUsNYEQXtD+RyRH7CaiR/wPtuzpOHTDh1e8rjhB6W0vldczZcfO6bkAP/29aHyzG8eJ8q5NwnlEQR7+s+cCttGEsG6DU/OPS+LF76z8Iql2gjBMFtPPaeyPqDiPspPUo8Gw7dWSlnrgey6hSptH1LKfzDFDByWcwbf0pG4ABxInUAWhefOmaJAx1kMZbi3y+7Ky+ag0t0o9p+tfMk0/GRp1zpzbnW4E0QzakVQbKLW1lyArohf9t0C/Nlkk5lXF7px236x26c4fAxu+wAd9TuQXH9fW32ZO2/gVS3ZVP9uXiQ8DoPw9PoTzTMZCPfDMIu7yGuWpj5nQwlk44nU5mH8XW0gnlrjHlUxfPRZjKeljPGFYLTo5nf/+sBnjp5c0/m+NbJu6LoY+J1z/pGLDmiUnCmm8pyLfNhjHfuXPbsxxu3+Q3L5UQvRgQ+bsiwACpAF0itwDAAgLygOYH9AGKgEWcOK+j5xqRpEFQzLY8fM8OVseaeaAEPsbNbIYrwjNlC5az/I86bIYaAsCucUTeyKpTJRAZlx7pc/095pf6Zh65Rtk4f8CHoSUAmLwd3mgUzjSvl155SUMez2vhofubzz77zB9OLY3KUf1An53y8zanc33V54BIo5mOLSAgl3atDJTpuhqRKdR3ysb5rE+Od9ZVHn2d/ISw1qs5Cx9Dpy7PnGfiWBvCaH/lz90MUXDKQA+79AjJIgs00+XPfIX7/LXI5NJvKAHEZi3POZzeNg4YOy+86F8W61opnn/pNc82cuAADf1r3WuuZ0eP0UAXaOKrwPnC9WMyfZtL+w2o+yEBBo9PfxsB/po8RNJXrl6R3Y1I2URkopx7Hd41ioqj4tSL52Htzp8NV+gWz4vjJmJ2iuiy9aa2YMC1nUAwp3lKHgCq34d64aAzMzpmvAUQojU7T8GEa31YeOhQwM5j9JYnzppX2eOoXAO42EofEOZawXTmuXkL4My57cJMgGsBml+GOF5//TV9uuxFf/rr008+9eybdjbluTqYgai8WGdmziyOs9zBVO9OLlr5OOeh21Yo4EIo7ZPnAxyvoJ6z7XZytUue6K28U5n5mwGeh8Bc908QkWNoFBwZS/ac7SUf6eGxshRMU9dqd8H1YZ/WC3WEL9OgnVOd63S6ttxN5sw2ID2weFckGLZhfvSVFy2LwJurc9ubyLPtz2kADHtL+2np7fPZJv9cocelxUIfl7LH14YQfBeLiPrz3arezirHuaRXuxVH+vNTfG3lPtddaYx4BokCh8GIB276zYAEedf885DEtkETpfDSiuKo4cAFnjgu0RU0eRsybpXy1EI0nm/nuX4eEQ0fjcNGU/PxrDuuJxqdx44zRFC5kj9AAih3eGNL7onvOb3HBXKmcQHoBWjk6/xphj2uX7/hNxdRCBF1I/lvMuLqcU4P7MCnOKfdrJD8lmfPX194RsLk4ai6p+06VAJosT/nsWIyDUgT/2nhaClDXjlunevvTLv5A4yzPZE/5+twxmIPg78tPg3+uSub2xngNngrc66LHncP5ngYyeAeFSU/MmYc2mUIOmxz8MR5ytGe7YS/kq+c1HDVQy1klm+HVv5nv39BA0TSADWR9d+07beIGmEuameBph/9TZI9pjCGCehd0wT++xpzYyaFDdsGujp2Hby/kFqcHufXuR1cD3/qOCuQAHg7Hk4q/+yolPfcbTlDopfQ4QEOdMmL//gWVNX4k1121jpk8teRnF8Zy2OvVwUL76JfQCA6h67B315sKZW+AnXpVMaCeOsqfZccDg4YUy7fQ8yCTQA11wFvQPr3v3vfn+LiizjUG4BMBNc656EO6i2gp852ZjqbMKk6jowBJu5jBmsLj9CwuNp6p2QV6GLzmobSLSv5h+7QEY1TnbvQjq0stSzJfYiLfAHK5Mq4MDWkjvDrGkPV9GmXnJZP0uHJbWtbgq+12Mjtn9oUxy1DPeEFoV1ryjtPnkW4c1CEfeC5RNKMUVtB+ya8i5T7/C9AzTj1v/0tfO5HoN7VDwlghFe0kD9LUX79kOgDp4/zrACbqKOOHyCT8aosxsvr3LZXvGd4dn7WcgWuNk5pkd/OpQRDgI4dA0Fbx/Y38vDPv4nG743ZHThX15GA9gIY0KP8AN7W11+c9dAhgJoyOLecU6M87nCYYzzRWsB7XJsNbGcEbFlEtE4PIPfBISDIDBW+opM1SvKFcsavvVl9kXOuo/ScRbRbZ/NyLaoX72F8aYekJd3zqAeNXm890WyKQyy0V31arjE05l6Ttkpl1l/OQ6065ixtFjqcD81ajmwpK/Le+twjx7FGbAI6wOdy3Xbhs1V2LrBbH5HBben2DZqmfUzGZdlSDGKUcfHp2jbv+MSrr/9gc1tj1DufE4Rm/4be9rVnZ9LAa9oBa8Yd14dL31E1+xGoGfa4qJ1hkBPfUZ4/mx2D9HQ27Te0xKmBQrrz7a5KxjmGs8mC69wGLql4DCGqXADv8fkD4H79fGzNt+3QwyGIhkbWh3IwHCMdQZzVdY9hgjgfUVQiutIrnwBaHLPAExrr+DoOLEf2bf5YDMl3FKvDwjL5O4xTepVllqHgAI8dAsGZ+zIL+gakucZDW164MZAtukHHAQro79Rnr1W+1rcOPwBUA6RcPsBGyPdombRn5ehv6qz8bYu0b+sPuzQSqKb/VGvgps6V7wDeznqaL787QdEEF1op605EGZdXvFPUupo39O6LtlUBM/ls09oduUc3A7NdtEM9czuir9qUh+YoP9qItjt86PDmKF93oTqmhg75Q8Mn9g34oLQ7ClN5tkkD57QD1Kek08vbev/2+tlXQD0ckQeJH2jnweITBWrUck+zPa5dvSzQYOU80HcYmo0sBsqlggJlcrymca3X62Z2CszUzkL0vT5MjC9xqxlacbiMOQ5Kjkg9T3o4F/QaeRqABdbLvFrlmxfaKT+AZYHQ/KSi4XTc3AJkcUoc1k7I16WlE8CZOdujyBgSyGBtaRaMF9mVeQbe6mzm4b68+979DK806q789nC0hu4HMJRn6uDaPAZe+pRPvlE2DEk/4b/0SrN0Wt7ZDSQpzznH2XM2p4XfCXikf7XAsJeWrQylO6i6GAaVH4s57Au67lrc2cQUzdmOZUThf9ZL8uT5xagl+hssWs5pyIc8Gf6gcrZ0xCvN0m/6rPvnNrxz8MLp036YyOhHNwcRCnTykhN1suVu0wIPYwpbg7m1+D/KEXNPL2jnTUVe6vurtn0F1EMCbBegZqoeYztPdpM1fabvFxLd5UOvRKwjEpNhxZkDLHPFs7M6v6NaOctSBkcd44/c5WCnhDLOq0q1M8owbzb0OqF+72s2RmZgrDMvSGc8HdqAc8vMdEqjQE2egiL5DFjDaThPNB2QOiSgPnCbY2Xhk2TwOcqnWG6hWx+dBjoC5GdeCpzka93mfei2oEBaIvxSRG8cPwrYLQOd7vDeuqBlRWtXP+PD0d3qJHyTd+UtmfJMgjpnvTTfWpfT2Yw5EC+gxl48nm/84c/a8SJPZIQH8kKHuvTXp6LDnZT+pbj/Lk3kITWyqYjzLOfhLTKFdo5H3nFH4TsLi5Z2NTHzkAemWREwdKN7yk/1kHOq8/oNrav+xWebLz//REB9xLN6uCs9fPigP0FHFI5t82Fnhr7QCfkOaP513kNI+8x1hKd/mL9vSVLW/vjNXyvxfgRqZOGlF8D6f/hrBXtcOYySNQvuamaCX8fGDbiIM8dl7ExzZAodnI45t8vQgq7hSvHdOhmOx3EcEkP38Iechg8F2O4dZZezvCFHpEM6G05J5xEHG9fsBAGBdCwZ5ipwldr8C4jO6R7GEAjDP1P0ZofhmoHbwij6daewAoL1g3aQxyCbqL1gjG7KbxYMCicpl+M6vWW0LAUC6mmetVzrmsvNx6XD79Z1syo5ouypQwhghee0XeVK3tGWi9yr7k1fp+Nn0V10WFrmxOPx7byQiw6h8i3gG6YHHUrFfvLTziodwVC9abO13dYhkdhV6qL5VmUmT20zHdra7uTLblWN9rUF6nKHQZIiAD58ZPN//1//ZXPz6he+yzv0/NHNUT4ioGgaXzqk9OPHTsq8M+z1kj70/MLZc5sjx05szp09vzl89JjKCMDpnKyXyNm6Ldz3e+PtxAva0fZopO8m8H4Fal4jB6j1ocHNke8m0qO5Z+C5fv365tbNGzZ61IbWcC7hmDailBgRZzjRQRnfyVOnNqd16/f555/poYoWxXdioiLyZNwvTuMom38jksR56BD8wFDk67iJBmO0wzsytCEgDDDLuaChHefgYWLKrtF22Fgf5BXgAoYB/ETPY8xWPBiYcRTNxAD4/cKPBLrP12Y80NhILXrhPGBMbdn6UClgF8cOL4li1+sZupj5IV8AI789bwS8VDLyhW4Bp0BG5zl0NwqgG9TV66s3jE6yhJWx7RfaaZMVxHIOiHTYpZ0BXXFKr52TrSTswbFB6PFbypDcuqDXDs/lKMpdkxmkJjJnvNzjvjrlriofHu44+qhTcqVqLBLl0CFzxzYNRdhWlWTdwYdOxhh/eE7EzceevZnmc5vDioyv6ePMN659pfnvhzf3tKDZ3Ts840mnfUc+cUWfm2M7euTo5stPP9o8rzGSk6fObI6feGFz/pXXN+fOv7R5QX50/MRJdWj6VqTrj05S2ff6L+tSv6X9uNr+xjfbyDfrYN8B9eht+yEBxnRe+Wb2v11KFYOR39Xc3S+++FIFsZT8YJcBwRh7HYmXMp5XJPCz//jfal2Kdze//d1vN++993vNwb6k4QjNGqGcg586KGAXogZipVseOgIAQjvZcSSy4Sg8bAudONRzMmLXP0TjRRfqwrL7gBKa7I3wyTr05lLhIdfcCY1Ow7MY3GXIUyU0X8Dm2PO7na/88xtHAvjysHodciiAlW4UGWAD/Fu/5RXdns+8rXWF34CM2bcsO40556uerVzAzJ2L1SMAoFynOFYnoZ/xf8rTka46antZ522vNKoIoKvUlEr4m84odRcczYGzcH2b/+oyXUflMve2lVx3lUTgpmGjGvykvC+Y9jgaZf2jzXWWW2cKSHNInvIU26IQNkg9ubMbVJ239MyNCMgyNidOETFLHxiELhtkqVf/KOIIXhcYUgToHQTc+0Jrvl/ffHXpcw2JHN2cefHFzYsvvbJ5TbNITpw4pWt82mtUaBrVYXj4Hv3lWRtAzWJzfMz7O2/7DqiHBCx1elE7S5/+zUBdrQBsfCwA8IsvxMgwFgyPsTWMJeOgOSZ6fOWVVzfnzr20+c//cmrzyquvbd77/e8F2O8pMld07TmmiV67tkJo1OIBXY1ZK4+jG4CSerBqZWEVvwwn2M616SGfnIEBDgD+gXjl9tK3tfKrROqr84b3ACKlqXs2fsp//TVjhXgXYMrc5gC033ysn0Be5/AGP71LMH1zjVMnuuZaI8FGbakXBw7B/q75Vh7bHjOfdAYFk6bPEW11bJxAFOlyO+JdQdxj0EMPq/PnmjUMQMGm8iAvfAQj0B2XaSNJ7Q7OjTWyjxZy5xA53ZajrnRcpYkeSy8SVRfmgT+pVMehZ6ilHxggmOuRG2vqAAAgAElEQVTQm+pjqIksJgA4xhbCd/LOeq1OkSUck58jZMzdH9yQb+48qYOayMlDRAO09UK9Ftp8Rj38ygfIL5VRkyxrjF3f3hzC7vXw/tOPbyjI+Wzz8R8v6g3Vt7WUwGt+SJk11tsBDvr8fH82hAOoGQK5+NeItV+BGlkYp2b/T3+NYDvLxLC/3nyuhyL39eWSRrjx10SLaNNO4MgmUfDRY1ksHVA4oqjgrbcubM6cPiPgPr/55S9+qS+Mf6nhg0SNKyikdoOcdo9Ba8cxWLo0DiNXwStt2aRTOYbOAeeARKJc+UleDrHxp646JjXFyXKd8wAPIJGHm4Mb84CETP/DmTKcAhwE3JGxDwnp1EIrgJNZA9QBawFv2DT4jHHqCJFrBYttMF55m3VVMKFuwO2QpoNVdwW3jLlGcwXGyr6t94JupF7AUbp121oDktcYl/sL2rvDDSllNBqgVKl8ZVwPFcuW/ykGZWcJD24HMgxAdspog7aRwTJihYZBGiKpa/0dVZgGJNMJWKBBd6cdVE/wkM6LsrIrK4I2DJ1STsAQm42E7go0vnxgc0/BgmfV2KZ01zc6iAOANREOfLuX0aE7BWTnXPl1F0u6I2hF2rf00eff//rnWkLgw81Lr76uCPuNzSkNk3D36rYcbVW+vie/LNAEWP+Xv0ae/QzUfJbronbejvib+aT9mT3BG3E3bt3QK+N6cIZBgYd2MIxNxqWokijloSIEDO6uvn/40UcfarW30x6rPnjgeX2V+ezm2D8d37x47sXNz3/+b5uLF9/TMqS3TSNRVZqCc8g+BMhFy44Q93AGbLwdBs5TwIFGoj7xIcBkbY7cWgZQ6+ypBSDNQ6zWvYKkiAIVOGW82w8LeWuQehuRUgeyc+7ZMF6oaoAOHruAASBsivyJM+qXcuyVvyBf/soPQMxeOfltOcD+kNbvRj+MYXo9EjoB5Sn/KYdMK+/mYgBX6+O35eZryzGN4kyRgUZCJuj48mi3nM3XZl4AodHpqlxkfAwvo67KnDqGvYlC61zrsiGYXoqOtjNfAULarjxWtzmPXG1Xp42OfWlEKjK/0W2XM4WR5F8bmyiawOCQ2sN0aA+Glw7w0FkPpg8eEh/kh+dI0LbiLBE69WBf8K6ZIhpuO6gXr2jrW9evbD76w00Pjbz62hublxVhn9CY9kHR/ZroPSS/L38ZGbignciPj3h/p+1vBsDvVNu3zDyc7Ctl/0A749VMGv+bNmjeun1L33+7JiASCPi97AClDWJ4DD+OruysBzY39HGBX/7y31T2xuZnP/vZ5vyLrxjo+CzRG2+84cVqTp46sfn973+ndSyum0yGA2Lw67jyADIcgopdpSuK0xGV2PGZJYKjarktgRVj6nc0Rp2XRSiVqXFd9W+lY5Le6rwrfaI2RdCiBVAyF9aOTcdhfrTpHMB2tO2OIjwazJKBLI54Ry36WR98Qu+IvmbOWh8hl3xc94wH7YmYV1Cf89nX4Un/DAgjP7rM8E34WAEpYBV9Q4kIrgC31o0cw57SUSLvkI0S2dLWsJkhn9Y1dAB1HS46MaiXLjTWfOakusuJ/oovA1psIHWSrx1RZA+d0qIN6Migv/LJMQ8T2eDXtAcvnC2dLz2q84yoVpnT1qEXzIcOgoUXaKUNXDT0lfZQHfcJLaiFbg5o1cNbCnZYCoCXYI5qRoc/gKzhvQQdkokqiUIGDeuUoRHsiwfjYVyzRfgEm1Dr5vXNxfd+t/nqyy8VXb+5Oa9x7COa6hdC8FH5w9ff6d8XxPeb2s+qHT7+rjLtS6AeDUGvA1B/pv1vAmobqHYivS80cwOHjoHrCCOXscS5BFYyiow+BCyZcnZVK7z95je/UjR+a/Mf/8M/b15++WWvBPe8ooLzmor0n//Tv2gc+7XN7377u81Hf/xARsw7O6FJXbiMwUIV9TX0Rr8r8A2HxzEI88UXwMk6wACVz7ecL2/5tZ4ZHGoEOG2v28kkZ0CLjkrLkNpBE506mlZ9hzQPFiekrkbKrcNCDZACi6CXc/8YVPjntxE1q6TfayTN84YppK1g23bxRaWp/zSwRCeJKPHRyGMtNmtAxMWgOdpKyUs06ZzrefOMy64nW2kGeNf2MEve8ku6EWjwT0oBJPbUtJQK3/DnXAab3HFFnrRH8gKQLZXOInkiFylz+0Kn+dvWs27nvBYB20sjDGFU2RAO7kiLTyABewTHPg6p3bDDo6wZrmKXLl/e3NbyC0TJB5XGcIYfiDOYNsC5kqwyiSImrUgcu3JAoLIHeIr/AHuBH33aSR8oIDC6pkj7rbfe9QyR6HxSzqqmv7cjsPaCdhZo+s4f8d7PQE1DANQfaf+nv7VViF5uygiI+LitZpzVIG1HkqHZBzFaHCUgNZsHk/zff/89fWfxyuadd36o/Z3Nyy+9bDA6ffoFA/f5F19Snpc3v/jVz706nwgtDuZFlVQno8Ne+wLiqixj0gOEdG7HG+Xgg88gOcK1u8dxE2HGmdALZQrKBgbq0m93yi+guTh5KOI0dlWRYxpgd9jYBofUwzXoFUhwpDoknYqjq+cOaXqW1vxgzrZkzlDKdgvOdEprpwwFU7/i70oi10qJYRKGfdJm1qf1hA7olZoTYGvZVW+lR1rTe5wx+ZnngCN1Rd4Qj55Gu038uf7RFuZduztg81ZdOstyTm3ReWRdz9f8XEv9M29zh7Re3ynzGsGjg9pJedcvHS1tm+QEFTpm9hOdOB94uK8OXms5egiQTp2OLetXw3OGtWKDFkZEC+B0UqFjHVOXpgww40gDXb5LZSrsgwd3N5/86aJt5sI7746hkFUf21L/3Z0RUbP/P9+V8/0O1F2gCQtvCPRdZRz5H2pa3hf+qC2G5NFF/SdqMBDyoMQRUxy9YO3CIw8HX3zxuddQZk71T3/6082FCxdkwIqudUtIdH3ixLHNKQH3r3/9i82Hf/jD5pY+UoDdY7QGTpHH6DXUZ4DEKQAXopjcIoZd8pKPpUCzPkn4JrVgkpx17jqza9sCWWRhutSRI4wRA2CKYnQ3wDXeJLt1++ay1jBl+0ARP6Ns6XE9W4AtuuJK+Gf8G/V5bFMrPt29g0OPl2mkW3SMTPA/R/uDqH8qW8CIqJOpXnOOwQHOTlOpwswxtjZ9Xr58pD/I4Zwu0Kg4kevOzqjnC9hQgohv0J3pueUGH25b79STzkucpe1VmvZNfrMy2iflOa+ey3s7itwhpMMPT7HRHFsBiy7DG/VkyGSVjXzpIMifcWUfjer6O2i5N3JGP0A8eVL2rbY/qa+R///tvVfbHceRrVmE9x40oAM9KdGITq67JZ2L7jnXczNnfs38rXmeczGPWt3ypEiKpEhRhqARRW/gHTHrXStjV+5NAASID+BnqoD6qnZVmsjIzJVRkZGRjIps+sABsIan+mEmp5SuD4fINZ4feRcepT3Gnh8enfNArOBKljZGUu+//64HgjvvuldCEJJ1UnSyK/eojQRgYPNMdmWFWe5AjcHzWzqxPWSzyG900EAAOyYSj0pHzUEj9m4palTpyGkINDIkCD7jbH0gJLc+2GJGDgDprbeOaGeSzw3aD9z/4LBrV2atAe37739A4L1pOC0n+m+99ZZ1rtBAB8bqw90XycXP0tihhc9JN2LCY4cqmpnM5LB5lCcV5xvsCBChj/ceePSvBpvESXpEX7+hAIT8JdGovCxfBxSIQ/hShURP2nXI9GDTbboaOeFhAU9oyUQVoeAxPAzAF83kM4KJk5vpsV0PrSytghLWOFR1RT0CYolb4DWmm/G9JmbNw+4oXi7ytHjQg2FFWwwbKbXejouDXEbXb1Rp5rgJpcyz1MRvRqHwfSQt4ca8ZhEcn7NX0VQ889L/Kx/4XnVCPJ7rpB4cievYFngyDhgtVejXLWo+PE5iI400TX8In2nHoanydbrVLhyOfMX7rhj+0qLN6Y1C6C87AsX/zAb1EfzOfPDeO1Z/bNUKR4K0JBthK/KyV1TfpZONBD5ebEuXK9GyBerW2QDoIzo/0vmNgLraBiD9+efyQy3QDTioWQHSboY1yUPD1k+1sk0yFXrowe9YAn333XeHL6Q3YyKEhmwgVEAcqj/33O+G43KGf/jwfdJd3xLpWuZMrMLawSIBhVuv9NiYgMPg2VoxuVuyFwnp2HSKnNDGgMAqMHZIP3/urGlfrFzi9VYWvPepgaYkYP+2VEjZAYqsWqOzU751SMoXMF0PHSLRfGgkm7ZFCdjg17qOByClUW5FW0JKtwGCy9u6cSt7r+YgPL+LXspD+pAMv2blEx10aoNLo6+1E2dZ9wVOKWvqypIpkRp/Et5/Z3F9oyNSLHfUWbWg8Gae/3lffCJG5gIiUYfGil/5IASEVn9dpAWEjFlCtEPaWQayqK1IvQPAFrbKCq/Shhwq9y3MyCNAORyEqlY75kCChlbCVxtnzv24d+05Oxw7ftJxUoWpT6fjaPwmbQb10GLeqb3ZwkjP+GBt1d9oBcTFb/1BfMnkUL5u2aDjrOaEjqrPnj90ftjg3dtX/MEqa4AaCxCE0Cs+li1QtxLQBJCoUYHcc8Wl6gKme/DgwvD+h+/VZLS7H2oI8KYaVjV6pN6dO3drh+zHhz0yy3vn3Xekynh9ePvtI/YVkgYYifW8pIw/vYxN6AfDAw8+PNx3333SWWs3DAHM8aPHlTaNNzKDGzMSoBs7nQGpXpsXiBDLNXpmunQi4Z46pd1SPDBEl+eOqJO4Jf1Ssh6s/Ls76311SuLTK6GPSRx3SE4/Judcee6ubDq5z8Hv6IUZNEpCHVUahIKfFKK88dWnNnF9CjSrLAXYBchcORPWqZk2d3THD9CF1tRu8aSuRWtdoceTuPCuexka5kOTx8IT/4SGejcL4nLOgyJh+/JWWfr62rFjhyXU48flykBlBbC/PJe2MZ/3OAjHYqZoo77C5Eo/BSMNCEgq4+AaQIz0HzANneFtWlziVF0DurZYMtDeNJyQP+q9bWCx1QmgS/H5h/7Qh57oP3PfBcrwDIFgo5ahox5EbYJEDm18udYGEzyvAZK2ytzJps3yEYIpKQlKcFolB0CNTfWrV1Oe5Q7UlOUdnYD1NRwyzZMlgze11WKXAiQAkhbn7qtGWc9prLfeinS8Zdi+Y/tw3733Dnv27Jbd9J7hNQE26o7z3vmCaKgUzgwfvP8PNebj2t384+HBBx+wCdMnn32iBqtFHBJLYiFsiHa/YPLSUGjw0W9+uGNEJYJ0ysQNPji+NCBeDBCgPxIgNBf9TrBOpZl3ATjCF6AxGCCl44bURNHpOj7MgLWBXMW1FN7UCAVeJt0oMaYPdYAyw09LPWEoU6OX+MSbAURLI+mHN1V26PNQlv9Nd508nXE7QkdyRNyLpU0GI4JAV/IjtQwefm52jnwgZD8YVZiQ2PL1JWn4K8BjVwNMbttRvAF4Dh5kJbEkVU1un9OXUngx1h88Kfqq7B7wq60oz9CafFMHGdwsCMzeNx4or1nb4JF0wqQbPXjaUNU1H1fJW/WmBs4q1k3y33FaErVXrnrNoWL7D605X6NuU+4QaY/ePGJjLIACuFs8H8Jz6pb8GKyyUjaDPzwJHaiCSG+D9NPbHaYrFMFW8sHqRMCaljJKQF9TopUA1JjnAdTaaG/At+tVH1R+dnVJp0iHVzJNKknnTCNh9KfRoSo5c1YSrQz7WeJ68MDNsiXdoY1Zb4l0/dabwznpj1FJ0DhpxF/oM+1Pf3pleEuSNw3yhAaH80Yw8uIMYFEAbLk5eB0Z2zdWlVyQiuW8rEzoxB5YmpRJ+AK2qAfSeZ1Qd7jjpifPSa8JUrDZ8lZ+WMHUO67hQfgwl3D7EV0i7cy9tZ1RjxBkBgqigfLF/0MkZTqdJ037cKRgEApo+GV3+DkJkR7PCdvej1IjDwKQXfFn5IX9yZeQiec7JR2QBGRDQ+hOtlUu0g7AtawNUhAyK6/T6uukwDW8BACxHjp27KjmBTbo64z5B9pEdLNuKjoJp/+uhzrC8/xurPCrGjAtYdN22r8UvMC70cT7YoGTKlqTrvlG+2fg8VeeSqhnG/SHEFgbQdM6SRnJN+oqBjNAeJPWFmzQYpXNMtlDtlgnczwyxCZ60ybsrQM38IiTNEgv9RUeuR0YyOXBSP1t+46d7kur6NivsgDUO8SDLy7V5hfLu6w50ECJ2T+AGvdc+HS96sOffIp1QhOJTHCdEVAAfrQmJIM0/BGYyPe9f/5jeEWrDh9//AmpP/br022DLDq2D/fcc49XJh7QEnLUIZ9JT82+crWklo54Wob7BgadXvWn08JG6yUjKLUOEg2dcBqJhY5ywfbTqD7QUXuxJC2XNFsafVojUOS901fYipOrnzh+gADpT51O0rEn2ZQJ7xbzKb1zeFQ2zsWzgJwJ08HnOROgpM+1ykm6lXY5bap8iNeH63/Xc54BHuHoiDS8D3hWWdPpKw3HA3A08elyBIlSL1S/864/hO74N6sv+JU8UwVj/j3fiduqyOnkfmxTfqgDsPvnP/+payZv/XXiqmXgSx3zC0GBwbifZ0gdzOfjRBXN7aa1DRewJVXPzH9yscifNjaWJ3yj3fGftCiy2aUHqB726osSlU3ML2M/DShjR82xWSC9cQtL/yUpWwJmkKA9Acjylqd8+3bQg3Tf7kjLqhSF3y71444dbOQNfSNvnOHKPbSSx/bUeNRjMd8VHcsaqFsJmBY/ohMj8asGahoBnQKp2JNxND0kFj5T0Xe2BlANuoDphFyh/um1V9xhHnrou8Ntt946bNkmiUGN7sD+A8NWSQl75XMXsH7nnXezyMU2o0iQkVBnQEPncMNNg3PDpE+oh9IZ3Xlaz0C4Rdg+debccOI0XwDhgjuNzgINnlbj7Ttj3Vde1dkNyjrTWVondNsXLSBF1xEAv17q9UCn99AZ86kAOs9CX6QjANr61iKa1Bt49B1txpfufUqZMtX7+fIVCFeHHTtupGNoJL9KqdLqythUXSlqylD0ORT14mSrnkiDBCvRsf4qvEO3fAOCCV8LfGhjUTGAPUziRq2RT/7QGPpTHsoMHUiRDHbJp/hI2glHOWdVph8dha5nghEmZSJOA+P6KlDk4m/oT9lnpXUG9A/VrQYTVH+lsgF4sYgq8zx83fjjQuHdRlROvjZoNzXQQGzREymadhc7e48PLgADOt39grb/2jbs0ypgNh8Y1U9mx0o/qAwkarDsr1damJUA1JQFPTUOmp650oL14WiISDKbtdz1y08/84hdZnEGTDdzJCeAXEf6gj9N3/jzn4dPPv5MYP3wcM+99wmc91qqwE3jfffdL+dM+7Rq8Y3hz2+8LgdNH1o6Aqd6AIhp3awLmDS3y1m+zUxJxJzX5CId9DS7aIhmaMuEIhKvIzntAszKh2t/X+ESgzjcBWw9WOn3TA+qeyZ7IKfSGTsvHTodMEDPyFGAP6o7SL0H6IuBcQ+8i/d9+KJ9jocGnuJhDzIF4JHYCpCgv/JIyf2gpdH4MPs98i7xile5Vj0VD6uBFI94PpbH2bQoyKMjuEP/yCPa4KjfJadFvqLDTZ4pO4BvgdgNFJqT16zOKrDboAYuNcaqa2iyjxDizsodumd8bemRegtmFchOJj+1eGn79m3qO5SnLWwRDQDzJgQOY3X4axJNIUe+2MgDGkpg4O3Y34ovgDfCwAa5Q9XqX+VXFlItydVyAaQB6ys+VgpQ4+70iE45Zh6uevrXnU8z1TtlMveeTO1sjqbD7Vp//KlFGMSCJj3yzh1AEuJHH7wniVkThVqV+J3vPGJwZpUWUs+BAwf8Sbh33+7hlVdfGf7x7tvuJDWp4zToruqUpG3pqjVhpGhLP+2ADjrTWemmvd2RWn86IVIqZwKW1JUONos+d1OA0IOVzcHosOps7sjps56Jhy7MAWNmB51Ic9AW+npgJaN0vADeDCiMUONRYXhSQNw/q+cVgzChaz7PvKeyCpTn8+lpHMsLzxMu9JFKBpkikzoeSR5BnJBFJ+9j5kdaY5p9GO6rHolXEnRPL+2h1EKAW2gLf4t/9cXDAI0wwMQj/lnSFlHfRW0RmooW+EK5AoumtX2dlUWKxV2fFDjhoDlHx1Non7U5gJ08pebYstltnTasltGEEeXZvjbIzjbz+pf1ABEE8HceHjSaKIgOm7lKIKkFVxu0bVcaI2XeLNen+4a9kqbxpld1W9Sukiv7JwLUqEHYxPtrj2UP1A2U2EAAifpzneh2rvhwV1UbxYnSNumY83ka8zc1FzesapA0I7tt1A3gih9e4qr5aXHLp1JzvDK8/8E/hocflhnevfdrkctupce+cVu0yOV+7wLz0ksvyl/1n70TjGFBjdntU8nS7AEiyX70/tY4G+joN4tcWMJ7XoB5Wjak9rqnYHF2k0YeqaqkxwBKBoZ0XDq9D2eR+0WQhWZ/nlr00WSl/tJ5/Et5A+izDqY0UgdFMh07Z4FZ5QPIJ27ybnU3F548Kn7dz2hu70yIjhEsA2gu1OwM38wfBr8OlOs+qQQ0Rl6QRkCZZ6O6gjI1MEvuqTfftzpqz5NuV7e0FqtVQnNVwTgI8L5JkDSvFgCgGvlcE5qkQ/3QYFQuS8YhgfQY5BOd9Eirjd5uW6nvXgqt9h6aWzmcTtXjyGeDJWUw0AO+fGlJWpbggKoPenFmBm01WFxgBxr9syoHSVuDkDmsAK4tl1tpqW243jUA2f+0/p1TPlu0mGWPVIhbZd2BdQkDAu9HH9WN5hRgtfzdoYIA1PvEnxPz7fXiRVz2QN3IRpI+opMtuq4KqN3H1IlQVQCszE7jP+M80kJrkMUoN3AB60wgsfyQg8Z46vRJLR0/64Uzn8k5zYMPPCy93c3e4BPVwe3yqwtAf/zB+8Op4yeq3bux8s/dTFl4AQBktU7n/PUMegDrs7ImYUVi6YrpgMRG4vJ96+jEuyRIK0ZJ1ZSAOL2uT7/8j6QYGHpJlmfhydhJ+sZU98Tp8yefxUbH78W4FwtTNHLtD/POtI/AMoYNfQVGxZe8B8ChJzQRP+9To5FekxMgOwLayN/UEFxyikqr0VIEmiZXnQ/yIN3YPK/TV1i8WSbvTN4mXOIUz8m7ylk8xdqIhEkau+MAYFGSMiBAcCR7FzS8tsojR3iderY5auND8aViF+9c99avqI0qEK4ONugPahjaXp2UEb/U6wFdQJo4Cm/BR22Y95tlB71FK3U5N8qXOwugAGCes+PLJvWbAHK3mMWEj/S3Yqy2CwW+W+dtOlHrfu2xUoCagrylE6n60a8t1VyANNKtW7YPhw/fO7yhyb9PPv7Qu2Pj0B97Zn+2ck9DVGdM4wbKeFy90D/8+YrUiB/qT2TdcZ+Wi98r3fVuLSGncdssTyu5Zp+xdCOSV9qk549BegmhATrlx2cuZnwAM5+6dPBzZ5uO0aqR8SzA6Tu302p0+j2dTB2HT+cRoEx+k3hlVXKG96g8Yhdrx0nKhvB0ykxkWeR22jwvvXjRz28O8qpnfqCD31f6jPBz9Lf8Kq26ho6kvRi+8qy0iubxeavHEcJEX3hSPJqnN/TDs8BlaxfVHhpRlL0fEEkTJ120g/Pn2VQilhvlSGvWnlodjfUYfyzOrfIwD5W+aPCXnmjPO8piwlynfm56CNMGNYetZ3nO+7SOeg4vGw/8iAbghBySvGm3O3fsUlloU9nrcKPcmyLwANJMCN6kdsA9G2tsAZzl+jf+b9gIIDpnAJmvuJKskwt/Q/ks4/HFar9j0QtS9e+upKArCaix+gCs+S7vhuArKab0bJqlfuCBh7Qw5f3h+ed/N5z9+CPJIwJmGgqfZmqkNrFDMlALd1fg6tZOo82naXVmAA576U8//VRLyT+1Gd+uXTvkRvVDTwSyMQFtviSQfCAGrEkPycOdiq6jToiUfU5pntZn5kk5MzoroM7SWz4ptYRcs+H+3UlfZRVQYAFtBRoFlLxjIODcIl0jqg3eZdFKwMhhG+CURQy0FdhVWgUg89J3OlrxajH/el58qzSpNZ5VmvW7v/b3fbhI8RlgF2kDaype3QcMMh9QGBiVQcCI8KTfq1DqWVILhtV9f039OrTqpgZCfoe3AHTNDYTWSKuu+1ZfKRvhK57eIZkL2JhXOa6vM/xsRIodc09bcHOd5Zd0A3tJt/LjDW2u8lGkhpFZEBQeOHUlaKna9En4UN/ZJjO5A7fcqQWCspduJ06T0CmjtkBKLvoA55wUqPILjU5/7mgVtvh49f+ujQRQxKMxuOyxIoC6dehy0IRdNeLrFR8GCZ07ZDz/5FPPuH3+9y9/0Rz9M2OtCRu+k+ls+nue8LTj1gFyba1a72dApWBHj36uRS4v22f1Iw8/NLyphTBn1TkZAIjn0/9osqO05EEBspyeupAkFlYhnpZZHp3SjpkaeFBQ0iHfkmp5VkDXgyDP6whoasGBPjHTaWMtEuBueyeqU53XfnbQh+SWoSQdjBEsutd0JvIBdEirp2MRnJ1/Q8misYC2aCUIz+p9/7vor2f1u+K2pM0TV5SOPOvvx1Tm6o+i+EEGCQbg1ELRE74SO/SN6bQMZw88yBK7CPKbm+T57UMF1UCt5wVY8+VMXbIUO+AW/jo2qjfVc+LiGCxfRXlHu6SNjuGLrxRpRm+KpyikFXv2kAb46mVFVyTiOa9kYEHAtv/Ujf5B3ybpkR9+9An5XL/dXwrrWQquiT5/UbnsSdBpuQxfpW/M1JRMRzAMiXqP6u2D+Tb0VfasCKBuZLMyEYn6Qwr31aJc+knPhAPatv4pgfVZLfv+1a9+aX8LBmb99yQKhy+ZIOGuB6JIcwnnRilJ97R2qPjrG9o/8eMPvHQcqRXwraN0w+kOTa+ryDhqYlIF+kpSRn8OAfzmsxlgrN1cqrPTIfuz6OufVUcvVcqmtvtKVnnx1YC0RFYUPB0r6RfVJVEjuTZzrJbvIk+K/p43RUvRUYAyYwpZt/Qoa39crtEGWO2r1v0AACAASURBVAoMChCK1vqda58nVQx9qKSA10zQQgP8T3odvszAJoC7ADMt4NgKuCseeqhX/Jg09nVCGYtXlLnuq+zFP+Kk/s8J9N93uJ4nKVcGf+LWZHNJsvAoefXSNBTCJ+qbATJhkKaJV9YaBdCWqBUW/xwcu/fsH3buwjSViKTEtThQZU+a/d/L1eVXQ6+pJ7KHteoD16esvr7ssZKAmoIc0YmDpgcuW6rLvKQD7NeClR/+4Ef2CPbiiy/YXekFScEgl2e2QbCGCNV5aHAj+NDhlImkpnQKNVjdfCx1Cg2YcPUZzX01VqRk66hp5OoEvvKZ6KQkxYiGs5KmSZdOQBpFz5j3SEeBewFST2uxoECQtNz3TFt04YA29BMmknIkOZ7BAg8wrdz9YNB3vuLLIkg7TKEBZW7pLFbNxTpyz7OKV+GSbAEXnAtIwK8c+Z00+gGg6sFwZXoW8+5/F0+LXqfuNhEl1phv+JfXUa9wD51pG37jZJJm6s8PdEQtMtKSOGMdJ1TKBI/dVmZlzeCTOpSk2ywrRrUO6WYQMzGQwW9XLkWp+k265GXQ55+u7BuKeo2NZ09pw40s4gmtoah4Hyqnv1fNgTsVg/Olr4u50oAakD6i003u6wp3qfcB64PDT37yU+vbXnjhee/XpmZphLLOjoZKo6WBN8DhvkDEHZEGb0IIn8ZPcI4CUe6JQ5qZtqODKHyCuzfbh4Ku+PY4efKE93bkk5U0K79Kx5210VNgU+oIwtS7ihc6TNLsIEwBL/kzSABfoze9sLe+BCpd80JHXUmn7ivM4rMu2zna6vli/D583Vc55+MAtpFKxzhjk1jkA5JkY5uCz8dLFSc90urLN9fUmpRMjWfgWwTUNBVUSz2vApy8y8BR5UmYDMjkG5pThtBU/KXdmTIXlXQMpjQ/mcR5d/BWF5SxBmfC58su7ZTfEQ5CJ2kV+CddRSadlhNp8oW4Qz6hPXI7V6cwHUvDAaw+7tKJ/Mbc2yWPXuS4ZKBl9AK/1G/pvCIj8cvRTWPfv+/g8IMf/HD44Q9/pOWq+2cdHyc0+JBW63QS1TAL/NxpUG20M7bDIHd1Ntp1A/lGBDprm1hxKm1MlTiYlMRem0Uup06etn8P+8w2dCa9HnToWMkvgNIDnWlV2pzVWSsu7whbki+rv3qVBuFqkojdXyj+PGDld6U/Xl0MH+TZ09rnPYYa7/r3dc91Md8+Lu/gfxahhMf1jHC5L94HwHie9OE5NI7mcEk74SkzZwTNqvVR2k1L6MCTWiJCy9cNwPSp3biR5BzLU78ZgGlbtAoG3tRL/9USYCZt8uvaQSOSMsBvdtAJXdCS0lTd5Dmv+zIUL2i+jX9FqX5XqZMSpoHrJU2f8kS0y7EYoAJO12/CAfaCBah3VRu5VCIrRqJuHZhdYwFqJha17cPVHz04oK88sP/m4emnnvVWQ//1i/8cPv/0E3/u0aVwT8pYR/ssSRaG0lYv8M59RL8IQBjetaEPqYqjgJH3ADVxeTb3XM9wwnRcZnlnNJlYKwdNhP5UJRb4FlDX1Rnp6EGjOmvFzTW9jHc9qDqXpmZJbw/glp690uq/Elp9OB0vBVaaAR8T7aN4VmH7K+8rXe7N14Y0de2f9Q25f1/PK+2k6+zb0T7VTV9oM95cJC94jfrgYvMLfYq+FyvhputTCc7468bBjigbNPjGQVXFjTqMsoaWqCUE2KIlvBrlprFceQa5fRkrzbFMNdh0X0tFaEhyPpxcHC+McLrk7/pV2GobfAWyqS27IrFZMeHTggiVu6Jjun4jDuAN9G6drA359HIpjC3jcqGWzzvEEID6H9dC0ggQWaCwe/ceOf1/cLj10KFh+66dcgQje1H0fTptOicQqzgzkGi91NYdgBX2zlzVmAuE6QycFccdQwfvuYf5+KnGtSnqDxxAESRAPqZjW+cWl/jVkWbpXoQZPQ0Jl46VTjnSVA6k6Hf2MSId+Qx0LpLuXHn0vlbXJSjlI+2ASkUvPlRcaOgHiuLtV/hFal25Se9iZa749T7SZiRRBo/ZoDgb9FL+Pr9Kd0w/dUX2IWFBzVLPdV2kf6Mmbtk/M8uux/fQBy0MsKlTU6z0vzpwjjRXmQvcG1SKqLST9tUH01v6jmtVBScNikvlEZ4WzT0/ex7UPQM4C8Vi1qkWG7Y4r+lYEg4gUWNTfdljxUjUXSlY9AJY//CyJbvilwFreiOfeayY2r5TO1po0coFTaBckE8CWqdBRndo6NwnWpt1RyYv3XDPK8IajNt93xlmwKNEFCPx1BlOSuUBUCOFOU36V0m5nfTSp1Umcn2nJs8+TP0uKYo4SPvEIVwBpkHL5URV1kqq9xWmysTvHjwrneSZeC54o2ORlnrH1TxdSK/i1fs+fH/fp1v3lKWPN4YJiKWmqK2AeL2H14nHEvrwP+/GAbqk7L7sjkTSbSA3j3RSj0y+FW9rDqHo40vO1ift84v8G85elLc2gyOrFqhoWCz3WN7WVqk/xaN4rYhpo+Y56TU5jasCQjuH06csCsd8yc6dLHihvfi1jtlNPZiu35wDbCRwd2NqVdNXUms19ZXny/lBbSSQXV+XgFLrLIWr+Lv4VEvD+eRjz8Nt2+S9S51/JsHqngk3mIY5qtu1wvLepn2todNhOAuseR/pKg2cdwV86Ksx0zt58oxAOioEilQgVp1vsZPyfrHD9qwgvOmiw3nQCE0VhmexOAhI0AmhLvkAUD1IfdV96YwnRDS945nfY5urstTzon2xDItlJHzxcvE6liu8WkyrlcZgVOkWD2YANccTl34h/Jh2ikmZchY9bgJtgPAz/YO3H2rhExPD6JDxZQ7Yjm2JkpF2JouL9n7ArbpLuNRF3Sd2aKv7uhYNLnNVQcPVmjcp2/iqM+I6Pw/UicQKQp4B3mz8wGYAxb/FPKff18QBtvtBqt5evL9YaitKoqbxqTA4ZkKiRqeDDeI1HdWgmUg7px1dzp2RNKQGu0UuUdkoAOahoxs7uxp1m9XH9jSNfexIEEOHq47J7+qIqDfcf/Q+EhoSmHb98GrEqD1MB8u529FXXk9DPQdsCzQXwxYwlNkWv4s+p4Wplr6Lmdhcrw1v/Y2s55EAkaBGCdUAELRyfhz8rvvFRlbhe5orTp8W98Wfeu/EdVTa9buP14d1UdoJmPRHpZ8rdRG6Ez8hDVIeaMbBaZ6XhAPEkk/Dsrl85vKUmoGdefzFw0ChuDhXsu9z87DSouwMohlMFnnV0xN6UwdF2yKP+98j6FZdhcJxkAogO04oasCe51Un7LDCYi78ckzHdeEAc20ANYDNHNxFjxUF1K0E6CKO6MT16TUDNWnSqNkUAL0hc4DsrXjyxMlhmz75vKuFOpsXsghQkbrdoZBSm7tQOp+7g671+VgAymOAm/eGQq/6CihwAyif0iQiJ3H4xIxfiB5QAj7Vefqr6b8McgSEmCgaF62kxNpMQZYfLGA4eyaf7AbGIJa/EPgH8BUARALP71J5EMfla+ANPXUUnQVAPZD0oBQaO+AwmI1HhZ0Hz3kVDKEDbAWmob3iFC2EC71jHgkz8pgwPX2Vhn3CtHwKYOv37Ar/xMab2g7irm8d1S5GPiWtyqee9/TWYN/T0t+TbvHUjUpnfnNbA+vIpwobXjAQigbRK7HBwoPHEde3k9KVr0nUgZvVTkezUBdoOpaKA0ADQI0K5M1LJZrh9lJvl+9z9NScS3QIaOUJjD3amDThxGnTMUkSR7UYZvPmjfKRu8sSdlb2pZPFu5ikoR4oF6Sy8n2NZgQpuj4/IZz7s2fOD8ePyZfDKfkHkce06EiRuJC0skJt7IzpmIudOgCfCccekMrcjnR4zkDEQecLIESyCyQ3t67kqrD+hxRoOnKQb50XA4+ezopTz4jHfehoi4paIJ5VevW+8q3yhN5EqHRmhM3dRJ1QZa74RUeuKeMYLfzpy9TnG/oSuu4Xw/LWcRpYut4pL4M3Mqv1wGk33KMuCS+jrzYy6uj5taguK3or7ypL1FSVfFRdY73BW2jLV16lmWdpE15sldznaKD+T508NuzTZhn5ymv0FyHTdak4UA6aLpneSpSoKQwOmo7oRLpegjLg7+PLYYcsPlhAcNMGVurJtEoS9NHPTw2n5bp0l/ZJZKcL7KuPa5uu82fVAdQFcQGJnw68i6UTA0jVWXSVROUOjNRJf6XjqmMEsGWWJ3emJ05ImkaiYYKp4WL0l6O9b3XOAqweKGBIPee+7+xxvoQXs4Ck33l4RveYRTWKoX84bko6NjNs4WybUgDT8iEvQIYBopesCRe4If2RjqKnpzEhEqbuEycSr7LwpOcc3Y2Or/Kgz5VU2m/47X/jsyTBE+orRet5m7SJ3yTLiq1H/aCV9yNwwYekmdWJpIlut8Fv+Gk6NFB2/DRvZ2mT5yg7VdmJ42C0o6qbljXtiHclHbsOHAY+zq+hqHImPYVDelBA/hHH9d5oLBLZwBlV3wb1ia/yvQWeLtfKATYSuFvnFp3xjbuQ4oqTqFtjQz/9ls4r3hzycpysRh1gGEMCnuekijglk7UPP/jAu4zjGpQdXjbJxy5mfJZumWBUQwZoy72pP6/V6QAzDjpsdbLaDQNzOKxLspHpKGVmAuyrHaPvKAV+XPlELkmp8iBPvgwwt0PfjutSHPxs1JZKqDv4zUQXuABglfoi/G3gQbdtPbZPt8wFS0p2ECVCY2IgK0DgWmHMhHYU7fWbtKtsyWcEJsL0AFO/CQfNFbe/zvIR10vaLOymrKmNXCvfSrekXHGkC5e6q3Qds/Gs+BYrjhH4nY7+WaWg8HbxiSRdkUNIwFLPXMZCSdOdtpT6zaDRqsJ5t+gOV7RQrnwFjfyscpE4QgFnBIV4Y3RbczvIoGjy/OXH+y9lAYX3vmN27FXqG8JMx5JyYJdSu1Pn3r499jmsOKBuxGPxAVCzkcCSHJvkrpGGyKpEHOnjxB9JA6AGrJA+UYN8/tmnUlGcG/bItnSHNiPABSS+eFkQsIHGjqpAjdzYpX9RlaQjjmCtLgyIC6jRfZ9W5ynpdFSPpNf2ALZYUDop4OvBQkcBYEm5BWanZSpG+gbnNpsPXXba7u2SEpd4hHM8A1EQYYYflMlAB3BEagvoAQwBNnhY4Ew6Va4qRw+6hFsEShMjgOslS+fYUKq/Rmdsghpd8GHkm9M2wTmLP47gcAE5wnEWEPrt7EdAs6c78ecHl/pCIs3ZfWMcJMDbAF2k16obtxLTqMBtmTvVCX9DB0UIrT3982VRmAW1GumF5pSxaB7rK0/yO+X1wK1yU3THFQ34nmYRLfXLoP5VPlQ60/UaOIBW4G6dLCm/6LEEaoOLpnsjHgLU7+h8ZCky26IGCXiyfHq9tqeiodM/qkPhz5pOj73z6TMfyz/v9uisJWHHblZWG9ZbxK8Hrb3MtqAvqgwnQcpM39hvNbud5xM1HZb8ADBUL3Xks5rP297cLp0GoCZO75ua3wBxASbxkaRTFu3w7B1pJCFZIg2aVDkjUUaiqvz6zjnrxA388gWhrwZ3cPSuBTABpL5uKp0q42K9FWAFgEPXIjAkjDk6i96na/46at6jI650hWbt+Sj1j2BfEnqSHfMNHSOtADeARl2SdqT68CXWI85dhNjqw/QkDVvfdHQTpuj1oOiBo9ENMIKMAHhLr8qEADE+44MOBPUTPydROwBDl+WDeiFApZ28/Mo00Boj9TttJ5d2yCDPhs44MHNwnYsc8YvpuFYOIFFzPn+xhFYyULM6EbCm99Gir+lg8mf71h2ScrFlZoNZ+eBQ58E5OsvLkZrROfIeEP1cG91iGbK9ATY210jcpyUhr2PRiFu0JHFJzTnUvDGHs14wNttI02xiW2HpHNWd6NvpvPSldLCSnOs3YMx9AXnPABau0DlR1ZT/aTKm829Yj4fF0n/TNdP1yowP91GAC2fA5GL55xl5NvJaJ45ulud9GkUb6VW6Jfn3dFd6Ddv8ahGsI22GtoQLqNTS7AKk5DOm3qc5Qk4n0SY3qm1GY+gZpe2UtSTw+hpJHeVd1D2pk+j94XsNmjCrylPOv0LhPDAXj0zLrHnTPpgZKd6n3kQNXAoYk74G9HQI6EyYytOSsR6B29VuZvXHjYMrF9JQIqdPHVcfkOpMbcZCfv6MTJ3ulooDWLDdrZPOmVGxS/maAW6pqPwG6ZSDpkvaHl5tmnv37beDJBQXN8l0zbpnPgfzLaoGHnCzVYjCndCCBnTX7J9IOOJvl0nfBjmwYQLGwIcUDCF0AoE0HQQrEQD9xLHjstuOSR7v/Gms9zVpVUDXAx5AN+v01Ci0lMlgKzACVoEz6g4Au1Qw0EQHNX04X+KfJURnLCuUM35foBbdazp7qTGKr6PEV6DO5FlJmIlD2EWg5dmlQJp3o1QZibN+Fx8SJiwNyJDXqGOdlcd5E5o/TXJUhAw+TmU2yHBP+pQ3AyK1ViDO/ME4MVeDV+hiwCCfWHEUwCbP8MU5KRBlpo7dHvJwxpsRSGdvTbvjMfADkJacoxbKYBLe9vytr7h6VuFKpQZdSOCmnf8tuz6NlCvtbKfsqJGqN2tzaIcdyatSTNel4QA+9u/SeVEHTStSom6dAQ96R3QC2Cjjr/nYu2+vJt62DRdk03xBkz/nTgl0AFCpNGisAOgmSbHn9RmISRPCCrR88sknVn+wbRImfJjFIS2f9N6JkboKfPn6tk8NLc09waYFbbKxiC8QKTDged+Je4Dr1R3zhUeqEnTpBKABZ07vc6drqSuQuksXynPKGpBr5fb7gFd16KKH3wHx0ifzYZNVea1+ZiT1v0cAGYE8wPBV0EkCowTah+vLCy0lHYY+ACjgDE2RIgOa84CUVEIfAwwDFPESp/Lrv2x6+ut5BqwCPZCMvEyJTmShoFuSDrDz7GLlqfR5x31cppJWISp8Z/BHus4zyt+Xq1RWuUIXaZFGC6cfmTxM/GpTFa/aHm2VTaFHFcp8Pklx+rtEHGDpJ0DNFl04nZs7ViRQtxLQyt7SiY/qexcLdrW/6Wy7d+8e9mgni+PH3pHK4owlXxqx9Zz6x2QLMugGVib6mQ5dAVt2ikGNcVxSMmZ8u3XuFGh/oVWNSM9nzsiCRJOQSEdIwWxga7WH0iNdp2WdMXcBlR6Uq+PSIfvOTOci3Bzg03EFEBulV6/JRgC7gHq9LFQAce/LyMRnm7iiLNX9KS9pFxgTLpJmOisdP0AFzXmW9wH3AqG+Hhaf9aDXl4v7sbykMIIaJSv+LKZXYGYWNh7mmkGF8AXo9TWQvBhkko//JoH2rAFjq5fkzyvqQRmZ12kfiVADRELCP7RdKU8PmmM9OjUYqmMx7/CF5zmNuLQBPyBi6oncKo9Kr4C3b0eVh8PqR9Upz7lPO3LCHuyZ6D6gjTZYiNWHJfx0LDkHAGr01K8uprySgZqyMJkIWF/zQYfC+cz9DzzonVpOapLP5nb+3ERrm904zmIVQQ8JOs0aMA0c4L2g6ynFPSFn6zt37Rr2CPxPaaLy9Okt8iPyqYEC/fdxSdv0FPL1jbBiBC5nOTvoNhy8X+xYpFdnxceag12gt2o36AJqdOgzEz5ldl5LnOmss/QAsba7TawWSgoLAFSnB5wCGnlPGvxGcgxQJHwR3wNPva93RW/95roIVDzzYAmw+LN/TD9fBgGVPs1gWawvQLPiX6U/plGgCvgpnCf05ushZQvfU+7khIqnxrfKOxL5yIfUYYY+mpHr2enXfX4njzHvoq+/mldI/Ez8tXHFw2oS1pX487woXlJ3xet6xm9y58ocDERFLcaAnOeE/VL7aW5zO1rpUGHWL/eD1YmANa2lpAfTvNK5z/6JADX7KeLb9RqOmwRu24fvfvex4b333h3eeP01SxeWdtUZaLRnJQ2fV2fGVvicJhS5j85QTvcFxkwceu85PWd7L/x30MB3CbCxQ739ttv1/IvhU1XBNu3cfEILadxVUa+sy6e3HZ82ZKmdz71AQueihF0ARhLWhysMkg/x6ZxYquByk44YyRhVCI52CL/J6hoIoGz1L+HWKx0GpniSq+Xn6exNRcAAo3QcFzaYxABaSa0FCgkDqESK5HcBB1fC9wNQxaNcxQsTOneESeSbw7BDjFko3hk89URZtPcAPSoOVFKErTi5jg6LMhAVnUXHSFsGAOomZU8eAGYNak5dL80fUwVg8jQ0Rh1WdI+0k+asl7puOHiSVMjP/LKqSjxX/Z6Xl0fL9QpsWhWmaHd0HpnWcbD3+1YXlIuBGuDHzp53tJ3Hnnha+yXudvuqgajSm65LzoH9ShGg3qH6+KKvvxUL1OkAF9iRHKD+ROft18o2Guldd909PPvs94d//vOf0iEf8+QaHvPOy9dBTN7UuIVi50+zK8t525m6AyjzjbZTjlMl1BwsPjgjMPxAErZtlqWv3i5J++aDWoikjrZ77x7loUnF49JlexXeOjuAQjJnyS4nunE6SXxFoydPt6WsPXA3fiiNSOnbt2+TnxJJ0RooyLvM89LhogIgbQ6DtNItsHSnbeBZOvbKiy8MMII4tSFqAUA1rJ7GqpOS6vrGV+EuVo6KR5ikz5MAVd5xX7xoyNTKkTiVwgiWPEkZLd66zAWWqIoCpAEp+Eh+xddRfz0CrcsC1kGH/l+MDyMtoT0ScNJI+eH7+K74M7olKBoQczuwpc0Rz2CbVa++dzm4Em8cHFNu+XVB/aa63aFJwgMHDui6ffhEm2V88pG2ouPrTMIIUvQufQn+8Ac/Hv79P/7n8NDD33XbTbrwZTquEwf6jQTmFvOtWKBujEIjcUQnpnrXDNSkuV265Ycf+c5w5K23hpe08e3Rc5+5QyNdI7nY851BjdWARiwBKdINUqE6iK7W8+nedtiSejZi2idp5Yujx4Z3//GeVzqimjilCUUmHZGuN2ui74w60RntQs6EJMvKLfHqmOWPdN9AlOclufYAy3uAGVUHn6ybZYFC5+cZxBIH0GEQKPCEblytJr1asAH8oP8OkBhAFAYM+FIFq4m0+LYO8JAe+veAE2CRowBs9gBKzMNRTdCDdR/uYnF5XyCXe/AKGgJk/bukFbDLfcArRak4rsa5I2qW5DMDTxUp6pZ59Q58IX6FS/4tZ7OBPyM/KiO7DPAbx27xIxUnrfA19y1sRhAyG8M776g3XKc6+eqjnpn0ZjEWu4jfdtuh4fY7bh9uu/U2gzSqPuYt2GrrdX1BvvzHFxVu7/CgNtF47LHHhvvvu0+rcA9qgp2VzT0PqwTTdYk5QHNAogbL/tqnvdKBmrKgp35b57N9wb7pPQ2eHV9+9OMfW5Xx6isvD5+zS7lBDjOpdVZ7MJm4XotIshJRm9PSObAUEUh/iZ8QN2y9l5kf5n7rJNlu3iqQENgf++f7w1tvvy3p+XPbZQOa2Ggzw26pRmkg+bgLNwAtACQfBoIesClrAR2dmgUKByW179qlTUk7qYo4bKDLOAKwoZZxR9WA0ANDJDwGJcZBxhwmOyN9GjoAJt0UKFiD35COZxkMRvUGaRCHPArE6p5rAVwfzhm3gziVbj2bj/cVmFWwMV1ohcACPH6HHodykpE+awCIusKxFJZ44UnUD2BlladoDx4nzyojNNfB++Jdno3Aa7BufIh5HfwVvY02twPet3Dme0eDJ4r1ZZc5iEF1qh1mZCp6x513D4fvuWc4dOi2Yc/efd6kFsskTO4QBhAWmMNgMcuzzzwjoeH/dF1v0zvUdSyKGiX0WVGmm+vLAUD67sUsVgNQ4+70iE5MKJbEaS4Ae/uhO7VL+f/QJ+De4YUXn5cq5D3rbJGm138p4NLpjsPMDvpB/UbSBNzdUdWTkGIzQZPJsE3qFPTW/QJSHLFvk2vVTz/9VICNmd45mfl9qPhUkbu9jwIp7kuC5lmBwfxzJhYBC6UgjNgkr390akC+AJ5NbRM3ZoOoVCI1MwAAZuQjYNQVKRtKUp5IjUYuSdr4sK4FG7CggIbylgVKD8D1vqfbBWwH7w1OEHCRo+L1YRqbW2joco34d02y9fmNcVPOFtB58i7SsmPrLMnWoXyQZn11RE1CG6CueceXxgjshC/+kL4Hr26waCkqKjrmSMOEQz8skcDtxOoPPUu+mcyGxu3b4yudr6VtUnHt3Ll7OHjg5uGOO+6QxHzHcMstN2uw3qNw2+znBTelWAAxZxHb+XEAodwM1rfccqtoZGDOpGJ4QPYXr4/QP/29Dhxg/0Sk6m2qmxPF/xUN1K2DsZEAEvVnOvFCdU1HGIO3ME3+3XGXVCE7h/3a/+7Xv/7l8M47b0slccy66HXrokqQ8YS87KkLqpeePa/FImrXG9TwLRnrBLjY4QMf13yOblSn3CIAvWnddm0cutmSzScffypLk48l0UhXTYdncrHFpzAFNrMOb7CcP0r3HClXm5K2XaN70Kzl5qDA+fOADAMOUEF5AKqobbyPovKw/hbEBzUMonTc0oE2uuZImR9AIvmlozMgQGN/VCPswXSxXPX7UmH65/OgEuCef4ZEzCAUmr7KxgxySZMl4KhmUs5KJ5J93s3AzEidL4/QywAXnmUiOE/DvwBvlYv0ii/kYXVaA2oGbwb7PVJH8IW0R+C7n0VV0iuzj+HBgweH228HmG/VYqt9aldaaGVpW3moIWU+gd8jMF+Kv8RZ7xWrResE0Jfi1XV+rs9gAzUTi6wV8bGigbqVAUn6iE4cNF0zUJNmdUo6EJ3kye89aXXCL37+8+Gvf3lt+OL4UXWI9f5kvGD1Br1UnbPtr1j6TUASwN1k/yHp1rbFVtytWzYMW9Q5ymc0khIrHI9pYvH0qawgnQeZVtpGH+8AlDp7dYMlJ+VDpw2wAFApV0DhS+vAweP167QghrJIN57OmpWLhjnFZ9Bgd5KeloZzM4LyLv5GoKMP2w8yRWvR0r+7VJyx1OMdYSkXoBuwzSBS6UUyDh2piwBVpOGkU/nVOPPV8oW/hCarMe2yBx0diQAAIABJREFULS9Qb3QBjoCz/iZP3cNgHZnTCM0MjoAoUA4fqQ9Wj3qTYP3ergnggwcOSl1xu0D4doPxnj17orKQTnmfbJpRzbGhheuZ+ZHZQZpXB7AV/mrjdZlOt0vLAaDibp04aEIA9bEagJpyvKWTQj2WYi3dXxrwli3bNbHykL3l/f73B4eXXnpxeF9Lx9N51emYEVenXCfVBqoPALqWbGP9cfaMpEn1J08e6dyIy0j1y3P61ASoIwVFVbHli2Py0HfM1h5ZDRkwXgRc6CrwqNISBuDasXO7J5BKUqu4qECIxwmYAUBsGYV+3ABLQg0ECRPwL8Dj7QgEAcrKGYCqQWPkfS/NL4J0heoBgjBFXx8+ZAWA6n3Kz5uAY0nH9T7Doj8EHAb8AkD5SjBw5oHLHL6F/jH+KEnnWQ/W4UPR66vSIUny4quIel6vQZzslWPjedzRxlNjTBJ3akOK2wXK995373D3XXcNt9x6S9Mfbx1270J9scM64814sZPaytLxrLCuETK9pqOvg2tKaIq8VByojQR+WwmuFqBmIwHAGiXb/Pf1NbKuGjFqg0OH7hh++tPtw8033zb85je/Gt74y+vuiHzWn5N+lw4POHppt14A1l6CLuA+r851QWHQFVoCp/u27Y2YVScueTAYbN70maVr8kZqz+rBERyqSH0HK9BGOrMTqU7NQDh+W5UhOkovDWAZXOj4OuNrpBY+oLoJABcAVX7kBYgXwFHY4J4TU1JGx9mx+JsXBXIVqKRdns8PAnNJzdIuyb0+6/s8/BUgUvIMqdYwan5W+NyPIMfvxXyrvFyL3rl4ALJOlEiO3367+OI1KrAdkoK3CWyZ4MsX2j6bgN4lUGaS78DB/QJkhcHyZ/MWtw/aTZxp0T0jp7uOWklSafN8mX6tKg6wjPxuncy5oTFY+RJ160TYUQPU2FXj3GTJjuqkJFgd7Xvfe0o6wb3D7l/uGl7/8+vDsWPHDMgchAdE8F89aIk2owbS7QWpRtD9EgqgRPeIlITUzG/i8TkLaGNat1NS8UcffaIFMkdtlYG1BosxCjz6z/gCEaTkrdJ7A9YssCEsNLN5gH1RG3Dk8pRndr4UD3vEIxxAXenW1VIoQNw4Gn7wAZEJ0qgZooIAtOpYBOLxTQFonlwMmHvQJRR5VrkX0xnfFf8r3Vyhr+LWqsrF9DqyZ8n3+ZEG4BhnRo0eaxwyIJxX3fB+2/ZdVlWw5BqV2b79AmHcEkhtdsvNt0iXfIt1zVheMG8BU6uOGCSKt0VE6tvBnP50rBkO7FZJ0VOzkcD7tIvVIlGzMvGIzg90LilQ0zT6Tss9QPqglprTCQ8cuGV45dWXhw8+eN920RxMCCERXZDZXeL7r3XBHAhHsbSI5jo7ywDw5wW0SFUsUNlotQiTjZ9/8VkWwpxmP8csWOhpIs2ZdCv6WDrOewaAAIBzdZrnz7GZrVQgegI4A8SEYTKxNu4dQRg0CrjbJld0e9KRyPoTIS/SZoCZfEZpuQfrordAmN+clVdijvG5K/BajFt5lAT81UEhFhy99DymH/UKxF9Ugm6AWHkTD21DBjNUJ7HsgXf7BcS3HTo03HnHnZKOD/l3HHPtsF55nyb+WDiyVYNv1BYj2M7XX+na4UnPiel+jXKAWV2AGten3hxltQA1ZUGixkHTg/y4Xkd1MCTiW289NPzsZ/9jOHjzweH5538//OUvf1a2SHbZZACbaYB1nZcV484pR4CxAHBUmXwpS4yAZwCcCFu3bpWkttmS8hefH9Mk4EmpQ9ixZdSpkippWgoWACGpcw+t5evD9tN6h178bLOPdlmwsxYQeX+/JvETl9OSpA6DqqnXCTrrdwFuWagQBhpKL837XjLu70mz6ON53RdvuYYPpXIwGbOjDzcCP4NKqTxCcw0kpluHy6HyEqcsP4rueu9rU0PBO8zZ9NMD6P59B4Y7pba45zC2yYc8wcyiIr6EWDzCoLp5c/xiUN8jbcl/kQezAsHdBBkfTXdrnQN3igGcL8KI1QTUrE48ohOkvG7NvkCCLMAxOqitQiRB8bn7hz88ryXhR6V/zoKVs833BnrHEQADqgEkwJl3WvhiO+2AJJ0aSXvnbnX+LeulEtkkyWyrVSF46mOnmVosQ0UGcNYbPFB7AJpMHqI2AfQAjtiBi2gAS+8BMp8N4OBaNkZoPrJ5AGgKyWPJQE7OLFz2cuUMNMUX6O7Poq0HqcX32Pmiw0UNVMAJv6A7E6BRa5BWwLdAN1J5pc07SMuglWYQcC7AzyQqXwceLD25GAkbkOULaau+lviSYYC8WaqKu+++e7jzzjulupB5nOqYyT3eESZL89E958sjzIHGcZAa20torjDTdeLA13AAqw+kajD63GoC6nLQdFwFwxbxuh8FAqzwuu++B9TR90o/efPwq1/9Yvjsow/lC0S6aHS/0l/3agjrgyWxsoqRe8AO/x484zcdPX5FZM+t1Y+oUQBKJLytWiRz7OhWgfUJeeDTZqUCt5gBZuXkzp07FC7rfghPWoBd0gOwyXOD6MHSI6oZg58law0OGwC1nDUpdx5g8wpHTMvmQQkejEAZ6Ziy1rN6D409aFE5/IYubL5ZQp9J06hkSpr3hKz8TwSESb9T8yzU8CIo8rsAmTEnXzJRY8BT/F0gIbNQpPTKqC9ulj75Zn0lMegBysQTtbpyxvnV5RrXYjkvF3Z6N3HgEhzYp+cA9U71pU9XBVA3MACgUX/gdPuGAXWYjIphk1Qht/kzeM/uncNvf/vr4c03/z7c5MlCTOBQRUQiLMkaMGNSiWsAu/SyTDhi7YHFQpw5Aa4MCIAlCxvIB6mazQmOSx1ySvebtZBmz97dnjgs0Ic+7isPgA9+lfSad4QScQaj0BD/w1ldGXo18UgQQlnAbdKsaYwUSfmQ2qE9YDVKvAHJ6MMpaw1EhMPpFVLuZknVMKmPy32sT6IjDw/7PBOecLzL2QBahdkgYPUcgCxtzGOF4YsDO+Unn3xqePqpZ2yBsVdLrJGWy1zS3xmW0FuhXcrpmDhwwziAg5W7dbI2ZHUAdWMdvRegRgVCAW/oQYcGjFgx9oRUITt37Rz+8MIfhtfkK+SoJgPPyhTvLJYgOvjMBwhvapN9gCiSm6VsW4AU6ZFQ8c3BO0t35CN96VmZc+H06aRcpR5jSy/F49Oc5cMAUoArIMYgksnAUU3hT3eBf79KDzo8EGzN0nPTaADkRKoUfGFuKAm3BhYADXoL1MinVvQhfXqzYPGFgYY48KjSRMomT/TjkehHyTX8jElhgDo8Ia9Kw6irAxUGdsuZxK2BLaoN7wzPKYymTh7QJPDjjz8xPProo8N9997v+opnuOJ5XQP8i0+n3xMHbiAH0FFjU/36qpCoO8a9o3vA+kc3kJnOqiQvrpjYPfDgQ5r1PzAcuvX24bnf/9q+Qs7IudNNWgkoaNEZPSnhAWHABymXa6kNsBIJmAUwkZQ3yn/DOasyJO4pLICLFQoHelbyJr0CQcAxA0NAkXA14YePCVA2IKx7m/8pfy0rR//65ZdnrLMuMI6UHqBFCiaul8lYVRIamcgsXkB/gTbWi5SrylplrGtAl3RcFKcRVQODWmivrwLeQR9SObTZqb0nCWvJfhaHnNWk63G5mGVAu//+B4Z//dd/G5555tnhnnvusVoD3tUAlFynvxMHlhUHykHTTasNqDFlAajxD8qnw7dy0Pk3yC81PhjwVHZAvkL+9//+f227zORipEJUHuVoJ5OLgBwH+mqDHZIiq9uQYFFnKG4kxFhzYJ+NVQkLJaLSSHEL/EryRNrm4HevP56BJWoZvTdIiyh02gZ7xcP/AxOcPDfdhDRGl266JO5cAT8OW5BIUo40TBmIk3ikTXqZ1Es8Eo1kO3r1Y9BxOKR2/WPQKSsW8gDA7bsbk0X+KT/KceLLk+YHLj0f/elPhqeefkpuO5+wo61R52wyp2PiwHLmwAERh556+6oB6gYcONsGqD/Vyazpt3JEGiRrLWLR5N6DDz/sXZx/+9vfDq/+6RV5zMvelQE/oCUHQATwFFButbXHFvn+wBpCk2xIjkicFyRp2wdHJh1RRyB9VlxAirQChk1EJZrBcTwBTGgERC3pKhODaAPpUKUwLY6B35K0whPJSSc+ZU4dBJyzSCR2x0ju6xR+BOjQUHEYIABpJGO+GgBTL5m2rp1BSmVrNuSoegDoWiQEbdZYYy2j5fBnz5wa9uhL5mm57fzJT386PP7Y48Mh+cxgwIxP7vDBA+F0TBxY3hzYLvIA6gOrBqgbvxEdj+jE9em3BtSAVwEBwLh50xZ9erNARivUZPL1++d+O7z77rsCm+ywEsAMgFAOLD1wd4paeCNSsDDlnKRp1BCkx0EcLD4AtTNt/0OeA9Cloy5Q5rcl5GZ5we+oPwCrbNoL4yptrqWCMbjqHUAav9TGaR9spBA76lKPMDio7J4cbOk1AHd4laUGEA8MbXaSgYUJPk4kZgYnVnYe/eyL4ZQ2AWZlpXnEgNHy5gKPSY+BYJdcfd577z3D95580iD98EPftXN8L9lPMWcxJ5DumDjdLmcO0HLv1XnHagNqmP52O59cDjUQUMBt6npZhdwqYP2RXVL+93//lxbIvCEQOmXAAqCi8tBkIysIBYxWZwiZatdzwKqAjqv13IKuTehqhUZnm78Ryg3YlsTK70i7gbkC8loRCZABoj2QW6pvgwJpe4m83KBq1cxsIMDED9S2lC06NkjyPXcWv9xkqNMq8Eyy8r7o4CVbg5WTIcIgObPPZL4KYt7nuBqteg9x9t3shEqnf9Nw+PBh6Z//dfjhj340PPTQw8OtUjnhhzk8IjeIdPbTMXFgpXAA7cDfdf5C5z9WI1DXRgL4Ch0d7H6L1TNKcNnp/FFtoIsry//6r18ML/3xBQMU+lrADB1vJs9iAXJKnveQsLHH9k4wkorLtM2bkQpghY/DGZvEpZCEAXhLKu5BO5I0WTXgFILV+wpPKh44BNZ+p39IzwwoJf0XOw2CopsyeoJRtCL8gowlMVtlolfeY1Fv/DUgt6pntXDnjMrnpesCdbtmbV8EiTN+mQTwY3eNdH9APjMA5WckPT/11JOSpu/1riSA/3RMHFhhHKAzsg7kNZ2/0fkrnaxIZKW1P7tXVatuUiP6afTUjEg4315WBzQi7d1++53Df/wf/1PLzw9oNeNz2pTgHU8Moq/FliKLTqSCEGCifMAeeNOmeOazY38dSKGnTwcksWwAHKNSiGVGqT4APcAd/S7vDa5qGhcE9Db3M8JHhwxYnm3pe4AxPQWYAd+ki9RLPL/1ld8sXCnxlclEBgboPKsre/OdFUDjTRD4t2N7zWdHH53fNWhYim9fBdCH1H5aGyuwPP+J7z09/Nu//VQA/bQBmkUqseAwE6Zj4sBy5wBCJGbEL+n8dTtf1RVfRencuhkFvFUG1K12GIEAaixAlhVQw/g2mBg4sQb58Y//RbuS36KJxt94ohETPWsZJBkaP/WDFY6llnAZkb71H294nnBrgIaQbCBuIFdAx7UAnCtqjPJBzTtn5EvoQ2XAqkn/noFwFrOwVRTAn3wS1SQB9KKLZfDEYUKS+wC1Vmb6uWCWffg2Jg3iuYyN/gJ4HpKH3wugWbnI6sHHNDH47LPPDo89+ph3NsE1aKk3HHg6Jg4sTw6wGO+Izud1Ii3/TucbOtmVanb0wNw/535VSdRd4QDqd3R+Z7HAy+F3VYhgVisMdw+PfOdRr4xjy6/nn3/O+ygCcJZu2/LvUjnMwBSwlAROGGOdzlJrFKgjnXuyrYFe6bcl51pa5WQlocEUCVu/kXxLN43jJ9QXBlMdyRtpPaqMqELyFYCEjCB+QbvcRGJG0gds24RfA/c2IvidBwnogP42Xljl0cKy7dnN8rHxr//2k+FfNKCxSOUOeapj6XeVqwajUDj9nTiwLDjAVz0e2gBkgBmABpNmW2tdDpQvVoLVCtR8VsAYPiMiml2s9N/is1QUkixWIUiMAqCd2wzYv5MZ3z/fe3c4i0MlpFrAS1dLwwoPICK9nkbPq+sWLS3vjwJhis/iFfZx5ChpG5DDBjs7b2eiEDAGJMvmmvDRm0cFwW+AuRawNIxVGlkF6Xf2EyL6kMaVFoOIYN9ltIqFSU/L3tDSVDYoQVRD5I+kD+Dv0MKd++6/f3j66aeHZ56WBYfMG/HzjL24+VYDR91A3HRMHPh2OIDJE1/vqC5KjfFH3bOZSfbU083VAvNiUVYrUGOoDFAf07lrsdDL7TeViI3v/n03Dz/+0b/KE9++4bnnfjP85c+veW/Dc6gUZD8HkCL9AobsEL7Oe+aN9tK8I4zdcyKV6rf+aGVepNuSxik/WIcFhS1LFPZCS9cgr3eWdts1kjEqlYx57ZWBH+C11K3xED0xy9jxQofe+bPPPh0++vBjm8jt0vLtf/zj3dlgAy0pD3TgO/usJxi/88gTtuBgkvDhhx+0g6TsgIOViw7jdEPqPJn+Thy4kRxgMR1f60z2IS0z+fe6zo90ptPo5lqBWUnMHasOqGGQQIZPjCM6mUld1kA9X6HrbBfNJ/5eOVdCimSRzGeff2ZQK/UHNRhwj1e90tOWxMx7O4GylYX+IdQWzok/XixiiVfVD4jTvqyFiJRbg4HVEFZzZKIw0jwqkwwaAX7iZaeYw4fvGX72s59q77+7vXv7a6+9Pvz6V78aHn7kIVloPDT87ne/1W7uv47tt74WsHY5/+U6TQbeLFB+RJODz8pR0pPD4cOHDfZeGu5jAubGiOly4znArlF/0/l7nQAzV37zfHYsNTD3aXO/6oC6FZCRDYka85b7Fgu9XH+nstmZfIt8IB+2udl+mfH953/+3AtkAE7AEokZUA6QRgeMKqHX23IfQGYrMEniildOlkqFwkSdwV1XTwY21Uo1OlQflQ9gWS4+56VtdNgaYLZssz+N//V//d+2wkDYfuTh7w4/0xLum+UoCr/djzzyneHf//0/LGm//tprwx9ffsmbBn//+z+Qm9j7PUEIQCPlT8fEgW+BA+AGkjFmcmwsCzC/oBMJOqvTdHO9QVlZfOVYzT0CkAasV9wRaXmj9dVPyRUnLk1/JcmUBTIBz9EtaqTdsuqIE6RYWmglotUS0iGzqrABNeANiH/ppY8jawB9DoAZlQnxAFsJ002ijiRNmLKPzpdegBrJndWBGzbgEAmVzOBdUPDrnIU164eHHnzYHutIE1tynCShm7/tttslZW8zXd9GJ1hxDWQieKk4gA4ZXTI65dIvv6J7zOTQPftYDm1yNQM1zAaoUYPMz7a1CljOFxrHOqkmtm3bKVXI47PdY174wx+Gjz/+eCYBA6zWTSs8i2IAzwu6z2IVJh0b+Da1hhud7q2L1jssT5DGo9bIcnGeIiWzPyLphRa4xWQm10jx3NtrnvTTJ48dHfbJIx1WJCX5E4/dWwrQuS+Xqw/KuyAuRwPOUbEs5/qYaFsVHCiV6B9UGqRlpGbM5LDSmB3LAZh7erhflUDdpEwmEgFqdihfcUBN5WTyjs0FNknvK1WI1Acsj0a6fuddFsic8VZbaVigppaYSxJmx3OeMaFnQFZaXAFQAB3rCrbXKtP6bAU2hiPu6KyftIztTrPxdqYSQbpmGfuXZ097ZSLL30N7r1ee1zGzMIZBiHRLB+5I0zFxYGk5gJ0yQNybyR3Rb+yafSxHUC7a+uuqBOpWQD5dqBRM9XC+vSKPakioIvbuPTB873vPeOfzn//8/xve+MvrBmAADx/V1idLqt6oxTKAc0m2BdIFsvy2n2kBe0ni3hascQgJ/dy5M/5VaXBftBRgA7+erNSE5G6paU6cPGHf1yVBt+TmLsQtNUuf5sXCTs8mDlwFB+jvGA+guqhl2Kg06P9LZiZ3FfQsadDVDNQwikmAt3V+f0m5dsMTi0QKwLHr9T333KNNArbKC9/B4aWXXrL1xKmbTtrETciricPYW1tLocOTf/p/XtYZM4m4gTQTieu0unHduSyu4X1NKkY9MjphmqXFDZJ5UrfL1XXyW42VRhbO+PUlj5UixVyyANOL5cABJveYh2KyD/0y4MwkIGBdTX/FSMxfx9DVDtTloAnxMB7tv44jy/R9gRuYi6rittsOaTLup3LudPPwvHyFvPXWm1p+ngUnZ87IL7MmDTc1VYWw2OA7w07dbBCoevGKnftn2TnStaVpSefoOvgdv9OS2jVIlJ0215usF5f6RGlxPXXqpKTqPR4sJiBepo1oZZOFOdzfdT6n85ft+ldd8ekzO1Zr21u1QN0kx89Vg0jU6Kpu7it05d6jOgBy12nybv/wxBPfk9vUPVog8/vhT6++Onxx9AsBJbpopFoEC/TRTP4JxAFib5slnTISMWoTvT+HoyTWrugAhDnLAsMrIwFsBZjpudF1NxtrryZUPvjGxi67n0hcuTyeKP+WOUDDZdEaC0l6Mzn6MgtOfKxWUK7y9ddVC9StkOimjuhEsl4VQD3fONkUd5tN3gDtPbv3aUPd56MKkYSLRQa203baZEjGLwhqCknHALWYkglGKfEEzoAxB9Kzrw2k0WPgZIkDsAbEy1qDJeIMCNu27hqOHj1q9YcHAMWZjokDV8gB9q3ATO5lnWUmxz1Ls5eVmdwVlmfJg612oIZhWH4wEj++5Nz71hPMIpSNG7dokckt3nrq4MH9wwsvvjgcOXJEu5N/LvDFxjoWHYFm3fMMHUo7IqEHXL2kvEnbhCi1CEEjRffSdaYf0XNv1Qa7OJAi2Qmjv/WGsdwJOCkC6ZeYyaHGwCoDJ0ZYaM2OabAfebEWgJqRmkbByFyGDX17WLH3fUPeoNWH7Av4uFQhgPZLf3xpePnlF2xzfeYCm+WmmIA0t1mVCBTnRU0ceuJRR12LOZUXkvRs8129tK/oC7KjlgS/f//eTGhWpOk6cSAcQPWIPhlABpjxJvemzhVnJpfi3Pi/qxqom2TYbySw98az+PrnGBAN4G7ZvH24++7DWrK9U6qQndZdv/3O25GSpexgs4DzMr1jL0YkaXkylXokC16KUkDdKyCtwoirVERlfpfqg7DkCFBrPeFwQru1bN26XWmuqrHw+lfe6ssBHRmWF3iTKzM5HORjJhebT91M0vLVVfyqBurGCj6z0FOzUnFVAnVVeS2QQX1x8OABeaD7vnxn7LEzpHflue7EieP6rJB6Qrvl1mYDlrSZdCxwxhZbAI7kfEG21n6ts/TZNaEIcCOVsxckYL1DuvKT2i1940YW2UDRpKeuelnlV8AXM7nyJsfk3590AtZtinoC5mttA2sBqOERqg8a00PXyrCVEB9phZV/OEJi+Tm7n//hhefsK+RzeeLDAJUdV9A5s+ycCUDM6ph4BLQB2qxMzK7mlBns3dg5SwLgOXFRSn779mkMZDm57utcCbyaaLxqDrDi902dZSaHNznUGlhYzY5JYu65ce33awWo+exCqh6VstfOu2WZQt9BkLDxr3HPPWz8utNuU1988YXh/ff+MZzX7jAb5QObHc7ZxfwMlh4I1qCv90KMROwl4gJz3H7gtQ9fHkjVG6UTR6JmN/GyHNmze5ff33QT/j2mY5VwADM5JvrKTI4JQCbn+VL1MYFyceL6XdcKUOO6EKmayYsd14+dyyvl6kCoMQ7IXerTTz873CJH/Gz39apcjB6VzTX7DmLZwQThmbPYUOP2lM7HnyY1C8S9GYFAHZepYPkG9k5EGpfqA/8egP12efkDvKdjxXIAMzlM4hbN5DBv5Z2PCZiLEzfuuuqBmkYlCbAcNAHYawao+07FJN+O7TvsM5pdWA4dum34jZw7/e1vfzHwssiFRTSn8RmipebsHI5UzSrITXLutIndZNBH4zIVlYmAmd9btaP6Pvn5+M4j3/VuLL165MY14ymnb8gBpGKkY5ZhY42B1Iz0jBQ9OyZg7rnx7dyveqBubEXlgUSNCuTwt8PqbzfXdDYBrAD31lsPeVOCw4cPDy++8IJXNP7ljTeGN4/8fdgqtcbpM6eGU3KwBBjv0bZgu7y1FvsVRpUCMN96663DXXfdNdxx5x26v80S+84duwzi07FsOYAeGX0yeuUyk/u77hFkfEygXJxYXtc18Z3abIIfFuv/H53/a3lVwY2lZmYnLWn5/HntUyhLjY8+/HA48taR4YMPPhz+/ubfho8/+njYKSDfsWO79ytEdbJL1iMHtHMLGwHs3bff22mxKe8GqT02SOqu3V9ubGmm3C7DASwu+ILEAqPM5LDMYFJ9MpO7DOOW46u1IlHDe3RvSNX4CtiyHCvjRtDUVEFSP7PRwKZhw/aNw53bdgy333GXzffOyvoDnfVpATgWIFu0xRagjPoj6mesOrKP4iR93Ygau+I8AF++GLFZxik+4AxIY5Y6mcldMRuXZ8A1AdQNnPC+BVCzAOa25VkdN4aqeYCNhcd6qTlQcXhRC6sXcew0TQzemAr5ZrkwMf6mTlb5ocZAnfEXnawCnB3TYNpzY+XerwmgbtXDrPURnSwpX9NAfbHmWh2axSura6H9xUq7Ip/hB4OJvlqGjZkcgsdkJrciq/PqiF5LQA1nmOHmfOrq2LS6Q09S17KrX0xuykyu9MuYzCFkTGZyy666rj9Baw2oayMB3J9mc7/rz+Mph4kDX8cB5k3KTA79MmZy+GLGTA6LJR/TgFqcWHvXNQPUTU+N/o7PRcyUDqy96p5KvEw4wK4kf9NZZnIsx8ZMjnmU2TEBc8+NtX2/ZoC6VTNuLgBqPisnoF7bbf9GlR6JuMzk+t1KMJOjPfqYQLk4MV0vxoG1BtTwAKB+R+d3L8aQ6dnEgWvkAGo1zOTYAbvM5HD5iZnctFvJNTJ3rUZfi0BNJwKssS2dltGt1Za/dOU+oaTe1NnvVoKZHGags2OSmHtuTPdXy4G1CNRM0ADU6AN3Xy3DpvBrngMA8Bs6ezM5zD4BbB8TKBcnputScWBTxqFEAAAFOUlEQVRNAXWbUKRD0bFwbD4B9VK1pNWZDqoKVBav6KxNV1FpYCaHisPHBMzFiel6vTiwpoC6YyISNZM5918vxk7prkgOMLnH/AXe5MpM7jXdMxk4mcmtyCpdHUSvVaAGpAHr6VjbHED9hZlc7VbCld+Yz82OSWLuuTHdfxscWKtAjdoDoEYNsu3bYPyU5w3nABIx8xNIyJjJ4R8Db3JI0Cw48TGBcnFiui4nDqw5oG566nLQRMedgHo5tcilowUdMitRezM5dM3Y0E9mckvH5ymlG8CBNQfUjaeY5jGhiKnenTeAz1MW158DfB3xlYQ3OfTLWGXgxGgyk7v+vJ9yuM4cWKtADVv55MW/wg+uM4+n5K8PB3AHgJlcv1sJgy/uP31MaozixHRd6RxYy0DNJzAdm5n+zSu9Ilc5/XwBYSbHCr8yk8NBPl9Ek5ncKq/8qXjaTHotMqHpqXHMhESNZHbLWuTDMi4zgyeWOUz21TJsJgGZBJ7M5JZxxU2kXR8OrEmgbqxEEkOiZsJpAurr076uNFU2Vy0zOYAZdQabsE5mclfKwSncqubAWgZqKpbJJ6TqJ1Z1LS+/wrGABH/LvTc56mEyk1t+dTVRtAw4sNaBGmkasGbXjLXOi+vVHOFtmcmVfhkzOZ5NZnLXi+tTuquKA2sWnJqemn3oykHT3lVVs99eYdjDD57iTa6WYWMmB69nx2SR0XNjup84cHkOrFmgbmzhUxs9NRYFE1Bfvq1c6i2Tsrj1xG4ZYMaOmd1KJjO5S3Fsej5x4Co5sNaBGnYh/b2j86Gr5N1aDI6ZHJYXmMmx6SqqDCwzMJM7UwyZpOXixHSdOLA0HJiAOiCDVI3Z101Lw9ZVkwrgi5kcNstlJvcn3QPWgLaPCZiLE9N14sD14cAE1HFhiVSNidjO68PmFZMqPHhTJ17kAGbUGZjJod6YHRMw99yY7icOXH8OrGmgbhOK6FIBakzG1hpQ45SKib4yk2MCEDM5JgR9TKBcnJiuEwe+PQ6saaBubEflAVCjZ73n26uK654zZnIsm39ZZ5nJcY+ZHO98TMBcnJiuEweWDwcmoE5dMJkIWP/L8qmaa6YEixbK1O9WwiITpOjZMQHzNfN5SmDiwHXnwATUYTHmeYAan/xbrzvXr08G6JHRJ7P8Gv0yembM5NA7z44JmHtuTPcTB1YGB9Y8UDc9NT4lAGp8F68EoMbiAp06FhiYyQHMZSaHQyMfEygXJ6brxIGVzYE1D9St+ljKjIneezoPLcMqxUwOHTpmcuiXAWdsmfkSmMzklmGFTSRNHFhKDkxAPXITawfOp5eSwd8wLSxR3tTZ71bC6j9css6OSWLuuTHdTxxYvRyYgHqsW6wfkKpxf7rxBlc5fjDYraQ3k0MVw/ZSPiZQLk5M14kDa48DE1A3ELxw4QLSKuDIpNyB69gUULNgJocHuTKTYwNWBoppt5LryPgp6YkDK5UDE1CPNYceGKAGMJcSqDGTw/yvzOTQL5eZ3LRbyUrtORPdEwduIAcmoJ5nNkANqD56DXWABQm7lZSZHFfM5I72aU6qjGvg8BR14sAa48AE1PMVjmUFYI16Yv0VtAUkYszk2M+vN5MD7CczuStg4BRk4sDEga/nwATU8zyqjQRYJLL7IuxDh4wJX5nJoWMuM7lpt5KLMGx6NHFg4sC1c2AC6sbDtvAFK4ta+AJQ8xtLkN5MDusMFsbMjkmN0XNjup84MHFgqTkw+V/uOCrLD349qfMnOvGJwTJsgHoyk+v4NN1OHJg4cGM58P8DgFrLibXNxWMAAAAASUVORK5CYII=;" vertex="1" parent="1">
          <mxGeometry x="-280" y="210" width="362" height="361" as="geometry" />
        </mxCell>
        <mxCell id="DniHUGlrfKImg_ZBEnJM-4" value="" style="rounded=0;whiteSpace=wrap;html=1;fillColor=#f5f5f5;fontColor=#333333;strokeColor=#666666;" vertex="1" parent="1">
          <mxGeometry x="520" y="410" width="20" height="20" as="geometry" />
        </mxCell>
        <mxCell id="DniHUGlrfKImg_ZBEnJM-7" style="edgeStyle=orthogonalEdgeStyle;rounded=0;orthogonalLoop=1;jettySize=auto;html=1;entryX=1;entryY=0.5;entryDx=0;entryDy=0;endArrow=none;endFill=0;strokeWidth=4;exitX=1;exitY=0.5;exitDx=0;exitDy=0;" edge="1" parent="1" source="DniHUGlrfKImg_ZBEnJM-5" target="DniHUGlrfKImg_ZBEnJM-4">
          <mxGeometry relative="1" as="geometry">
            <mxPoint x="590" y="420" as="targetPoint" />
            <mxPoint x="60" y="370" as="sourcePoint" />
            <Array as="points">
              <mxPoint x="70" y="380" />
              <mxPoint x="70" y="10" />
              <mxPoint x="700" y="10" />
              <mxPoint x="700" y="420" />
            </Array>
          </mxGeometry>
        </mxCell>
        <mxCell id="DniHUGlrfKImg_ZBEnJM-5" value="" style="rounded=0;whiteSpace=wrap;html=1;fillColor=#f5f5f5;fontColor=#333333;strokeColor=#666666;" vertex="1" parent="1">
          <mxGeometry y="370" width="20" height="20" as="geometry" />
        </mxCell>
        <mxCell id="DniHUGlrfKImg_ZBEnJM-13" style="edgeStyle=orthogonalEdgeStyle;rounded=0;orthogonalLoop=1;jettySize=auto;html=1;exitX=1;exitY=0.5;exitDx=0;exitDy=0;entryX=0;entryY=0.5;entryDx=0;entryDy=0;endArrow=none;endFill=0;fillColor=#dae8fc;strokeColor=#6c8ebf;strokeWidth=4;" edge="1" parent="1" source="DniHUGlrfKImg_ZBEnJM-8" target="DniHUGlrfKImg_ZBEnJM-11">
          <mxGeometry relative="1" as="geometry">
            <Array as="points">
              <mxPoint x="120" y="310" />
              <mxPoint x="120" y="610" />
            </Array>
          </mxGeometry>
        </mxCell>
        <mxCell id="DniHUGlrfKImg_ZBEnJM-8" value="" style="rounded=0;whiteSpace=wrap;html=1;fillColor=#dae8fc;strokeColor=#6c8ebf;" vertex="1" parent="1">
          <mxGeometry y="300" width="20" height="20" as="geometry" />
        </mxCell>
        <mxCell id="DniHUGlrfKImg_ZBEnJM-14" style="edgeStyle=orthogonalEdgeStyle;rounded=0;orthogonalLoop=1;jettySize=auto;html=1;entryX=0;entryY=0.5;entryDx=0;entryDy=0;fillColor=#ffe6cc;strokeColor=#d79b00;strokeWidth=4;endArrow=none;endFill=0;" edge="1" parent="1" source="DniHUGlrfKImg_ZBEnJM-9" target="DniHUGlrfKImg_ZBEnJM-12">
          <mxGeometry relative="1" as="geometry">
            <Array as="points">
              <mxPoint x="90" y="450" />
              <mxPoint x="90" y="640" />
            </Array>
          </mxGeometry>
        </mxCell>
        <mxCell id="DniHUGlrfKImg_ZBEnJM-9" value="" style="rounded=0;whiteSpace=wrap;html=1;fillColor=#ffe6cc;strokeColor=#d79b00;" vertex="1" parent="1">
          <mxGeometry y="440" width="20" height="20" as="geometry" />
        </mxCell>
        <mxCell id="DniHUGlrfKImg_ZBEnJM-11" value="" style="rounded=0;whiteSpace=wrap;html=1;fillColor=#dae8fc;strokeColor=#6c8ebf;" vertex="1" parent="1">
          <mxGeometry x="270" y="600" width="20" height="20" as="geometry" />
        </mxCell>
        <mxCell id="DniHUGlrfKImg_ZBEnJM-12" value="" style="rounded=0;whiteSpace=wrap;html=1;fillColor=#ffe6cc;strokeColor=#d79b00;" vertex="1" parent="1">
          <mxGeometry x="270" y="630" width="20" height="20" as="geometry" />
        </mxCell>
      </root>
    </mxGraphModel>
  </diagram>
</mxfile>
